<?xml version="1.0" encoding="UTF-8" standalone="no"?>
<svg
   xmlns:dc="http://purl.org/dc/elements/1.1/"
   xmlns:cc="http://creativecommons.org/ns#"
   xmlns:rdf="http://www.w3.org/1999/02/22-rdf-syntax-ns#"
   xmlns:svg="http://www.w3.org/2000/svg"
   xmlns="http://www.w3.org/2000/svg"
   xmlns:sodipodi="http://sodipodi.sourceforge.net/DTD/sodipodi-0.dtd"
   xmlns:inkscape="http://www.inkscape.org/namespaces/inkscape"
   width="205.00124mm"
   height="101.79687mm"
   viewBox="0 0 205.00124 101.79687"
   version="1.1"
   id="svg5218"
   inkscape:version="1.0.2-2 (e86c870879, 2021-01-15)"
   sodipodi:docname="00-ticket-template.svg">
  <defs
     id="defs5212">
    <rect
       x="108.47917"
       y="140.22918"
       width="37.041667"
       height="23.8125"
       id="rect855" />
    <rect
       x="84.666664"
       y="142.875"
       width="63.5"
       height="21.166668"
       id="rect7541" />
  </defs>
  <sodipodi:namedview
     id="base"
     pagecolor="#ffffff"
     bordercolor="#666666"
     borderopacity="1.0"
     inkscape:pageopacity="0.0"
     inkscape:pageshadow="2"
     inkscape:zoom="0.93069899"
     inkscape:cx="215.30163"
     inkscape:cy="237.51813"
     inkscape:document-units="mm"
     inkscape:current-layer="layer1"
     inkscape:document-rotation="0"
     showgrid="true"
     inkscape:window-width="1920"
     inkscape:window-height="1017"
     inkscape:window-x="-8"
     inkscape:window-y="-8"
     inkscape:window-maximized="1"
     fit-margin-top="0"
     fit-margin-left="0"
     fit-margin-right="0"
     fit-margin-bottom="0">
    <inkscape:grid
       type="xygrid"
       id="grid5877"
       originx="0.64381929"
       originy="-105.20507" />
  </sodipodi:namedview>
  <metadata
     id="metadata5215">
    <rdf:RDF>
      <cc:Work
         rdf:about="">
        <dc:format>image/svg+xml</dc:format>
        <dc:type
           rdf:resource="http://purl.org/dc/dcmitype/StillImage" />
        <dc:title />
      </cc:Work>
    </rdf:RDF>
  </metadata>
  <g
     inkscape:label="Layer 1"
     inkscape:groupmode="layer"
     id="layer1"
     transform="translate(0.64382026,-105.20508)">
    <g
       id="rect6062">
      <path
         style="color:#000000;font-style:normal;font-variant:normal;font-weight:normal;font-stretch:normal;font-size:medium;line-height:normal;font-family:sans-serif;font-variant-ligatures:normal;font-variant-position:normal;font-variant-caps:normal;font-variant-numeric:normal;font-variant-alternates:normal;font-variant-east-asian:normal;font-feature-settings:normal;font-variation-settings:normal;text-indent:0;text-align:start;text-decoration:none;text-decoration-line:none;text-decoration-style:solid;text-decoration-color:#000000;letter-spacing:normal;word-spacing:normal;text-transform:none;writing-mode:lr-tb;direction:ltr;text-orientation:mixed;dominant-baseline:auto;baseline-shift:baseline;text-anchor:start;white-space:normal;shape-padding:0;shape-margin:0;inline-size:0;clip-rule:nonzero;display:inline;overflow:visible;visibility:visible;isolation:auto;mix-blend-mode:normal;color-interpolation:sRGB;color-interpolation-filters:linearRGB;solid-color:#000000;solid-opacity:1;vector-effect:none;fill:#000000;fill-opacity:1;fill-rule:nonzero;stroke:none;stroke-width:1.25563;stroke-linecap:butt;stroke-linejoin:miter;stroke-miterlimit:4;stroke-dasharray:1.25563, 1.25563;stroke-dashoffset:0;stroke-opacity:1;color-rendering:auto;image-rendering:auto;shape-rendering:auto;text-rendering:auto;enable-background:accumulate;stop-color:#000000;stop-opacity:1"
         d="M 0.27446485,105.83334 H 203.45472 c 0.15206,0 0.27447,0.12241 0.27447,0.27447 v 99.99273 c 0,0.15205 -0.12241,0.27446 -0.27447,0.27446 H 0.27446485 C 0.12241132,206.375 0,206.25259 0,206.10054 v -99.99273 c 0,-0.15206 0.12241132,-0.27447 0.27446485,-0.27447 z"
         id="path6139" />
      <path
         style="color:#000000;font-style:normal;font-variant:normal;font-weight:normal;font-stretch:normal;font-size:medium;line-height:normal;font-family:sans-serif;font-variant-ligatures:normal;font-variant-position:normal;font-variant-caps:normal;font-variant-numeric:normal;font-variant-alternates:normal;font-variant-east-asian:normal;font-feature-settings:normal;font-variation-settings:normal;text-indent:0;text-align:start;text-decoration:none;text-decoration-line:none;text-decoration-style:solid;text-decoration-color:#000000;letter-spacing:normal;word-spacing:normal;text-transform:none;writing-mode:lr-tb;direction:ltr;text-orientation:mixed;dominant-baseline:auto;baseline-shift:baseline;text-anchor:start;white-space:normal;shape-padding:0;shape-margin:0;inline-size:0;clip-rule:nonzero;display:inline;overflow:visible;visibility:visible;isolation:auto;mix-blend-mode:normal;color-interpolation:sRGB;color-interpolation-filters:linearRGB;solid-color:#000000;solid-opacity:1;vector-effect:none;fill:#ffffff;fill-opacity:1;fill-rule:nonzero;stroke:none;stroke-linecap:butt;stroke-linejoin:miter;stroke-miterlimit:4;stroke-dasharray:1.25563, 1.25563;stroke-dashoffset:0;stroke-opacity:1;color-rendering:auto;image-rendering:auto;shape-rendering:auto;text-rendering:auto;enable-background:accumulate;stop-color:#000000;stop-opacity:1"
         d="m 0.27539062,105.20508 v 0.008 c -0.40636865,-7.8e-4 -0.74478583,0.23673 -0.86328124,0.62891 l 0.85742187,0.25976 0.005859,-0.32617 v 0.32813 l 0.33789063,0.10156 c -0.0507202,0.16786 -0.16791269,0.24531 -0.33789063,0.24804 v 0.008 H 1.5292969 v -1.25586 H 0.28515625 Z m 2.50976558,0 v 1.25586 h 1.2558594 v -1.25586 z m 2.5117188,0 v 1.25586 h 1.2558594 v -1.25586 z m 2.5117188,0 v 1.25586 h 1.2558593 v -1.25586 z m 2.5117182,0 v 1.25586 h 1.253907 v -1.25586 z m 2.509766,0 v 1.25586 h 1.25586 v -1.25586 z m 2.511719,0 v 1.25586 h 1.255859 v -1.25586 z m 2.511719,0 v 1.25586 h 1.255859 v -1.25586 z m 2.511718,0 v 1.25586 h 1.25586 v -1.25586 z m 2.509766,0 v 1.25586 h 1.255859 v -1.25586 z m 2.511719,0 v 1.25586 h 1.255859 v -1.25586 z m 2.511719,0 v 1.25586 h 1.255859 v -1.25586 z m 2.511718,0 v 1.25586 h 1.25586 v -1.25586 z m 2.509766,0 v 1.25586 h 1.255859 v -1.25586 z m 2.511719,0 v 1.25586 H 36.6875 v -1.25586 z m 2.511718,0 v 1.25586 h 1.25586 v -1.25586 z m 2.511719,0 v 1.25586 h 1.25586 v -1.25586 z m 2.511719,0 v 1.25586 h 1.253906 v -1.25586 z m 2.509765,0 v 1.25586 h 1.25586 v -1.25586 z m 2.511719,0 v 1.25586 h 1.25586 v -1.25586 z m 2.511719,0 v 1.25586 h 1.255859 v -1.25586 z m 2.511719,0 v 1.25586 h 1.253906 v -1.25586 z m 2.509765,0 v 1.25586 h 1.25586 v -1.25586 z m 2.511719,0 v 1.25586 h 1.255859 v -1.25586 z m 2.511719,0 v 1.25586 h 1.255859 v -1.25586 z m 2.511719,0 v 1.25586 H 64.3125 v -1.25586 z m 2.509765,0 v 1.25586 h 1.25586 v -1.25586 z m 2.511719,0 v 1.25586 h 1.255859 v -1.25586 z m 2.511719,0 v 1.25586 h 1.255859 v -1.25586 z m 2.511718,0 v 1.25586 h 1.25586 v -1.25586 z m 2.509766,0 v 1.25586 h 1.25586 v -1.25586 z m 2.511719,0 v 1.25586 h 1.255859 v -1.25586 z m 2.511719,0 v 1.25586 h 1.255859 v -1.25586 z m 2.511718,0 v 1.25586 h 1.25586 v -1.25586 z m 2.511719,0 v 1.25586 h 1.253906 v -1.25586 z m 2.509766,0 v 1.25586 h 1.255859 v -1.25586 z m 2.511719,0 v 1.25586 h 1.255859 v -1.25586 z m 2.511718,0 v 1.25586 h 1.25586 v -1.25586 z m 2.511719,0 v 1.25586 h 1.253906 v -1.25586 z m 2.509766,0 v 1.25586 h 1.255859 v -1.25586 z m 2.511719,0 v 1.25586 h 1.25586 v -1.25586 z m 2.51172,0 v 1.25586 h 1.25586 v -1.25586 z m 2.51172,0 v 1.25586 h 1.25586 v -1.25586 z m 2.50976,0 v 1.25586 h 1.25586 v -1.25586 z m 2.51172,0 v 1.25586 h 1.25586 v -1.25586 z m 2.51172,0 v 1.25586 h 1.25586 v -1.25586 z m 2.51172,0 v 1.25586 h 1.25586 v -1.25586 z m 2.50976,0 v 1.25586 h 1.25586 v -1.25586 z m 2.51172,0 v 1.25586 h 1.25586 v -1.25586 z m 2.51172,0 v 1.25586 h 1.25586 v -1.25586 z m 2.51172,0 v 1.25586 h 1.25586 v -1.25586 z m 2.51172,0 v 1.25586 h 1.25391 v -1.25586 z m 2.50977,0 v 1.25586 h 1.25585 v -1.25586 z m 2.51171,0 v 1.25586 h 1.25586 v -1.25586 z m 2.51172,0 v 1.25586 h 1.25586 v -1.25586 z m 2.51172,0 v 1.25586 h 1.25391 v -1.25586 z m 2.50977,0 v 1.25586 h 1.25586 v -1.25586 z m 2.51172,0 v 1.25586 h 1.25586 v -1.25586 z m 2.51171,0 v 1.25586 h 1.25586 v -1.25586 z m 2.51172,0 v 1.25586 h 1.25586 v -1.25586 z m 2.50977,0 v 1.25586 h 1.25586 v -1.25586 z m 2.51172,0 v 1.25586 h 1.25586 v -1.25586 z m 2.51172,0 v 1.25586 h 1.25586 v -1.25586 z m 2.51172,0 v 1.25586 h 1.25585 v -1.25586 z m 2.50976,0 v 1.25586 H 162.25 v -1.25586 z m 2.51172,0 v 1.25586 h 1.25586 v -1.25586 z m 2.51172,0 v 1.25586 h 1.25586 v -1.25586 z m 2.51172,0 v 1.25586 h 1.25586 v -1.25586 z m 2.51172,0 v 1.25586 h 1.2539 v -1.25586 z m 2.50976,0 v 1.25586 h 1.25586 v -1.25586 z m 2.51172,0 v 1.25586 h 1.25586 v -1.25586 z m 2.51172,0 v 1.25586 h 1.25586 v -1.25586 z m 2.51172,0 v 1.25586 h 1.2539 v -1.25586 z m 2.50976,0 v 1.25586 h 1.25586 v -1.25586 z m 2.51172,0 v 1.25586 h 1.25586 v -1.25586 z m 2.51172,0 v 1.25586 h 1.25586 v -1.25586 z m 2.51172,0 v 1.25586 h 1.25586 v -1.25586 z m 2.50976,0 v 1.25586 h 1.25586 v -1.25586 z m 2.51172,0 v 1.25586 h 1.25586 v -1.25586 z m 2.51172,0 v 1.25586 h 1.25586 v -1.25586 z m 2.51172,0 v 1.25586 h 1.25586 v -1.25586 z m 2.94531,0.29492 -0.92187,0.85156 c -0.10257,-0.1112 -0.0924,-0.26234 -0.0977,-0.23437 -0.005,0.028 -0.0434,0.14101 -0.0937,0.2832 -0.0503,0.14219 -0.13325,0.31091 -0.10547,0.60938 0.0139,0.14923 0.0786,0.34175 0.20899,0.48828 0.13037,0.14652 0.30083,0.22987 0.45312,0.27148 l 0.33008,-1.21094 c 0.0146,0.004 0.088,0.0309 0.1543,0.10547 0.0663,0.0746 0.0987,0.17925 0.10351,0.23047 0.01,0.10245 7.2e-4,0.0322 0.0391,-0.0762 0.0383,-0.10837 0.10458,-0.25784 0.14453,-0.46875 0.0399,-0.21091 0.0362,-0.57743 -0.21485,-0.84961 z m -204.74804312,1.77734 v 1.25586 h 1.25390624 v -1.25586 z M 203.10156,108.41992 v 1.25586 h 1.25586 v -1.25586 z m -203.72851312,1.36914 v 1.25586 h 1.25390624 v -1.25586 z M 203.10156,110.93164 v 1.25586 h 1.25586 v -1.25586 z m -203.72851312,1.36914 v 1.25586 h 1.25390624 v -1.25586 z M 203.10156,113.44141 v 1.25586 h 1.25586 v -1.25586 z M -0.62695312,114.8125 v 1.25586 H 0.62695312 V 114.8125 Z M 203.10156,115.95312 v 1.25586 h 1.25586 v -1.25586 z m -203.72851312,1.36915 v 1.25585 h 1.25390624 v -1.25585 z M 203.10156,118.46484 v 1.25586 h 1.25586 v -1.25586 z m -203.72851312,1.36914 v 1.25586 h 1.25390624 v -1.25586 z M 203.10156,120.97656 v 1.25586 h 1.25586 v -1.25586 z M -0.62695312,122.3457 v 1.25586 H 0.62695312 V 122.3457 Z M 203.10156,123.48633 v 1.25586 h 1.25586 v -1.25586 z m -203.72851312,1.37109 v 1.25586 h 1.25390624 v -1.25586 z M 203.10156,125.99805 v 1.25586 h 1.25586 v -1.25586 z m -203.72851312,1.37109 v 1.25391 h 1.25390624 v -1.25391 z M 203.10156,128.50977 v 1.25585 h 1.25586 v -1.25585 z m -203.72851312,1.36914 v 1.25586 h 1.25390624 v -1.25586 z M 203.10156,131.02148 v 1.25586 h 1.25586 v -1.25586 z m -203.72851312,1.36914 v 1.25586 h 1.25390624 v -1.25586 z M 203.10156,133.5332 v 1.25391 h 1.25586 v -1.25391 z m -203.72851312,1.36914 v 1.25586 h 1.25390624 v -1.25586 z M 203.10156,136.04297 v 1.25586 h 1.25586 v -1.25586 z m -203.72851312,1.37109 v 1.25391 h 1.25390624 v -1.25391 z M 203.10156,138.55469 v 1.25586 h 1.25586 v -1.25586 z m -203.72851312,1.36914 v 1.25586 h 1.25390624 v -1.25586 z M 203.10156,141.06641 v 1.25586 h 1.25586 v -1.25586 z m -203.72851312,1.36914 v 1.25586 h 1.25390624 v -1.25586 z M 203.10156,143.57812 v 1.25391 h 1.25586 v -1.25391 z m -203.72851312,1.36915 v 1.25585 h 1.25390624 v -1.25585 z M 203.10156,146.08789 v 1.25586 h 1.25586 v -1.25586 z m -203.72851312,1.37109 v 1.25586 h 1.25390624 v -1.25586 z M 203.10156,148.59961 v 1.25586 h 1.25586 v -1.25586 z m -203.72851312,1.36914 v 1.25586 h 1.25390624 v -1.25586 z M 203.10156,151.11133 v 1.25586 h 1.25586 v -1.25586 z m -203.72851312,1.36914 v 1.25586 h 1.25390624 v -1.25586 z M 203.10156,153.62305 v 1.25586 h 1.25586 v -1.25586 z m -203.72851312,1.36914 v 1.25586 h 1.25390624 v -1.25586 z M 203.10156,156.13281 v 1.25586 h 1.25586 v -1.25586 z m -203.72851312,1.3711 v 1.25586 h 1.25390624 v -1.25586 z M 203.10156,158.64453 v 1.25586 h 1.25586 v -1.25586 z m -203.72851312,1.36914 v 1.25586 h 1.25390624 v -1.25586 z M 203.10156,161.15625 v 1.25586 h 1.25586 v -1.25586 z m -203.72851312,1.36914 v 1.25586 h 1.25390624 v -1.25586 z M 203.10156,163.66797 v 1.25586 h 1.25586 v -1.25586 z m -203.72851312,1.36914 v 1.25586 h 1.25390624 v -1.25586 z M 203.10156,166.17773 v 1.25586 h 1.25586 v -1.25586 z m -203.72851312,1.3711 v 1.25586 h 1.25390624 v -1.25586 z M 203.10156,168.68945 v 1.25586 h 1.25586 v -1.25586 z m -203.72851312,1.3711 v 1.2539 h 1.25390624 v -1.2539 z M 203.10156,171.20117 v 1.25586 h 1.25586 v -1.25586 z m -203.72851312,1.36914 v 1.25586 h 1.25390624 v -1.25586 z M 203.10156,173.71289 v 1.25586 h 1.25586 v -1.25586 z m -203.72851312,1.36914 v 1.25586 h 1.25390624 v -1.25586 z M 203.10156,176.22461 v 1.25391 h 1.25586 v -1.25391 z m -203.72851312,1.36914 v 1.25586 h 1.25390624 v -1.25586 z M 203.10156,178.73438 v 1.25585 h 1.25586 v -1.25585 z m -203.72851312,1.37109 v 1.25391 h 1.25390624 v -1.25391 z M 203.10156,181.24609 v 1.25586 h 1.25586 v -1.25586 z m -203.72851312,1.36914 v 1.25586 h 1.25390624 v -1.25586 z M 203.10156,183.75781 v 1.25586 h 1.25586 v -1.25586 z m -203.72851312,1.36914 v 1.25586 h 1.25390624 v -1.25586 z M 203.10156,186.26953 v 1.25391 h 1.25586 v -1.25391 z m -203.72851312,1.36914 v 1.25586 h 1.25390624 v -1.25586 z M 203.10156,188.7793 v 1.25586 h 1.25586 v -1.25586 z m -203.72851312,1.37109 v 1.25586 h 1.25390624 v -1.25586 z M 203.10156,191.29102 v 1.25586 h 1.25586 v -1.25586 z m -203.72851312,1.36914 v 1.25586 h 1.25390624 v -1.25586 z M 203.10156,193.80273 v 1.25586 h 1.25586 v -1.25586 z m -203.72851312,1.36915 v 1.25585 h 1.25390624 v -1.25585 z M 203.10156,196.31445 v 1.25586 h 1.25586 v -1.25586 z m -203.72851312,1.36914 v 1.25586 h 1.25390624 v -1.25586 z M 203.10156,198.82422 v 1.25586 h 1.25586 v -1.25586 z m -203.72851312,1.37109 v 1.25586 h 1.25390624 v -1.25586 z M 203.10156,201.33594 v 1.25586 h 1.25586 v -1.25586 z m -203.72851312,1.36914 v 1.25586 h 1.25390624 v -1.25586 z M 203.10156,203.84766 v 1.25586 h 1.25586 v -1.25586 z m -202.81445062,0.81054 -0.57421876,1.11719 c -0.21918111,-0.11291 -0.27843363,-0.31657 -0.2890625,-0.37695 -0.0106289,-0.0604 -0.003704,-0.0527 -0.005859,-0.0254 -0.004311,0.0547 -0.0281314,0.19103 -0.0449219,0.35156 -0.0167905,0.16053 -0.0377435,0.34851 0.0292969,0.59766 0.0670404,0.24914 0.34745875,0.58933 0.68359375,0.66015 l 0.25976562,-1.22851 c 0.0997284,0.021 0.25919501,0.20377 0.26953126,0.24218 0.0103362,0.0384 -0.002989,-0.0374 0.007813,-0.14062 0.0108016,-0.10327 0.0347041,-0.23042 0.046875,-0.38477 0.006085,-0.0772 0.0132883,-0.16004 -0.009766,-0.29101 -0.0230539,-0.13098 -0.10884882,-0.38539 -0.37304687,-0.52149 z M 202.50586,205.52344 c -0.31858,0.0431 -0.65429,0.38254 -0.73828,0.68164 l 1.20898,0.33984 c 0.002,-0.007 -0.17962,0.20599 -0.30273,0.22266 -0.12312,0.0167 -0.0715,-0.003 0.0273,0.0351 0.0989,0.0385 0.24122,0.10828 0.44336,0.16016 0.20214,0.0519 0.55458,0.0841 0.85156,-0.14062 l -0.75781,-1 c 0.12427,-0.094 0.25544,-0.0668 0.21875,-0.0762 -0.0367,-0.009 -0.15323,-0.0558 -0.30078,-0.11328 -0.14755,-0.0575 -0.33181,-0.15251 -0.65039,-0.10937 z M 1.4707031,205.74805 v 1.2539 h 1.2558594 v -1.2539 z m 2.5117188,0 v 1.2539 h 1.2558593 v -1.2539 z m 2.5117187,0 v 1.2539 H 7.75 v -1.2539 z m 2.5117188,0 v 1.2539 h 1.2539066 v -1.2539 z m 2.5097656,0 v 1.2539 h 1.255859 v -1.2539 z m 2.511719,0 v 1.2539 h 1.255859 v -1.2539 z m 2.511718,0 v 1.2539 h 1.25586 v -1.2539 z m 2.511719,0 v 1.2539 h 1.25586 v -1.2539 z m 2.509766,0 v 1.2539 h 1.255859 v -1.2539 z m 2.511719,0 v 1.2539 h 1.255859 v -1.2539 z m 2.511718,0 v 1.2539 h 1.25586 v -1.2539 z m 2.511719,0 v 1.2539 h 1.255859 v -1.2539 z m 2.509766,0 v 1.2539 h 1.255859 v -1.2539 z m 2.511719,0 v 1.2539 h 1.255859 v -1.2539 z m 2.511718,0 v 1.2539 h 1.25586 v -1.2539 z m 2.511719,0 v 1.2539 h 1.255859 v -1.2539 z m 2.511719,0 v 1.2539 h 1.253906 v -1.2539 z m 2.509765,0 v 1.2539 h 1.25586 v -1.2539 z m 2.511719,0 v 1.2539 h 1.25586 v -1.2539 z m 2.511719,0 v 1.2539 h 1.255859 v -1.2539 z m 2.511719,0 v 1.2539 h 1.253906 v -1.2539 z m 2.509765,0 v 1.2539 h 1.25586 v -1.2539 z m 2.511719,0 v 1.2539 h 1.255859 v -1.2539 z m 2.511719,0 v 1.2539 h 1.255859 v -1.2539 z m 2.511719,0 v 1.2539 h 1.255859 v -1.2539 z m 2.509765,0 v 1.2539 h 1.255859 v -1.2539 z m 2.511719,0 v 1.2539 h 1.255859 v -1.2539 z m 2.511719,0 v 1.2539 h 1.255859 v -1.2539 z m 2.511718,0 v 1.2539 h 1.25586 v -1.2539 z m 2.509766,0 v 1.2539 h 1.255859 v -1.2539 z m 2.511719,0 v 1.2539 h 1.255859 v -1.2539 z m 2.511718,0 v 1.2539 h 1.25586 v -1.2539 z m 2.511719,0 v 1.2539 h 1.25586 v -1.2539 z m 2.511719,0 v 1.2539 h 1.253906 v -1.2539 z m 2.509766,0 v 1.2539 h 1.255859 v -1.2539 z m 2.511718,0 v 1.2539 h 1.25586 v -1.2539 z m 2.511719,0 v 1.2539 h 1.255859 v -1.2539 z m 2.511719,0 v 1.2539 h 1.253906 v -1.2539 z m 2.509766,0 v 1.2539 h 1.255859 v -1.2539 z m 2.511718,0 v 1.2539 h 1.255864 v -1.2539 z m 2.511724,0 v 1.2539 h 1.25585 v -1.2539 z m 2.51171,0 v 1.2539 h 1.25586 v -1.2539 z m 2.50977,0 v 1.2539 h 1.25586 v -1.2539 z m 2.51172,0 v 1.2539 h 1.25586 v -1.2539 z m 2.51172,0 v 1.2539 h 1.25586 v -1.2539 z m 2.51172,0 v 1.2539 h 1.25586 v -1.2539 z m 2.50976,0 v 1.2539 h 1.25586 v -1.2539 z m 2.51172,0 v 1.2539 h 1.25586 v -1.2539 z m 2.51172,0 v 1.2539 h 1.25586 v -1.2539 z m 2.51172,0 v 1.2539 h 1.25586 v -1.2539 z m 2.51172,0 v 1.2539 h 1.2539 v -1.2539 z m 2.50976,0 v 1.2539 h 1.25586 v -1.2539 z m 2.51172,0 v 1.2539 h 1.25586 v -1.2539 z m 2.51172,0 v 1.2539 h 1.25586 v -1.2539 z m 2.51172,0 v 1.2539 h 1.2539 v -1.2539 z m 2.50976,0 v 1.2539 h 1.25586 v -1.2539 z m 2.51172,0 v 1.2539 h 1.25586 v -1.2539 z m 2.51172,0 v 1.2539 h 1.25586 v -1.2539 z m 2.51172,0 v 1.2539 h 1.25586 v -1.2539 z m 2.50977,0 v 1.2539 h 1.25585 v -1.2539 z m 2.51171,0 v 1.2539 h 1.25586 v -1.2539 z m 2.51172,0 v 1.2539 h 1.25586 v -1.2539 z m 2.51172,0 v 1.2539 h 1.25586 v -1.2539 z m 2.50977,0 v 1.2539 h 1.25586 v -1.2539 z m 2.51172,0 v 1.2539 h 1.25586 v -1.2539 z m 2.51171,0 v 1.2539 h 1.25586 v -1.2539 z m 2.51172,0 v 1.2539 h 1.25586 v -1.2539 z m 2.51172,0 v 1.2539 h 1.25391 v -1.2539 z m 2.50977,0 v 1.2539 h 1.25586 v -1.2539 z m 2.51172,0 v 1.2539 h 1.25586 v -1.2539 z m 2.51172,0 v 1.2539 h 1.25585 v -1.2539 z m 2.51171,0 v 1.2539 h 1.25391 v -1.2539 z m 2.50977,0 v 1.2539 h 1.25586 v -1.2539 z m 2.51172,0 v 1.2539 h 1.25586 v -1.2539 z m 2.51172,0 v 1.2539 h 1.25586 v -1.2539 z m 2.51172,0 v 1.2539 h 1.25586 v -1.2539 z m 2.50976,0 v 1.2539 h 1.25586 v -1.2539 z m 2.51172,0 v 1.2539 h 1.25586 v -1.2539 z m 2.51172,0 v 1.2539 h 1.25586 v -1.2539 z m 2.51172,0 v 1.2539 h 1.25586 v -1.2539 z"
         id="path6141" />
    </g>
    <path
       id="ticket"
       style="color:#000000;font-style:normal;font-variant:normal;font-weight:normal;font-stretch:normal;font-size:medium;line-height:normal;font-family:sans-serif;font-variant-ligatures:normal;font-variant-position:normal;font-variant-caps:normal;font-variant-numeric:normal;font-variant-alternates:normal;font-variant-east-asian:normal;font-feature-settings:normal;font-variation-settings:normal;text-indent:0;text-align:start;text-decoration:none;text-decoration-line:none;text-decoration-style:solid;text-decoration-color:#000000;letter-spacing:normal;word-spacing:normal;text-transform:none;writing-mode:lr-tb;direction:ltr;text-orientation:mixed;dominant-baseline:auto;baseline-shift:baseline;text-anchor:start;white-space:normal;shape-padding:0;shape-margin:0;inline-size:0;clip-rule:nonzero;display:inline;overflow:visible;visibility:visible;isolation:auto;mix-blend-mode:normal;color-interpolation:sRGB;color-interpolation-filters:linearRGB;solid-color:#000000;solid-opacity:1;vector-effect:none;fill:#ffffff;fill-opacity:1;fill-rule:nonzero;stroke:none;stroke-width:4.99999;stroke-linecap:butt;stroke-linejoin:miter;stroke-miterlimit:4;stroke-dasharray:none;stroke-dashoffset:0;stroke-opacity:1;color-rendering:auto;image-rendering:auto;shape-rendering:auto;text-rendering:auto;enable-background:accumulate;stop-color:#000000"
       d="m 29.232325,117.66878 c 0.34684,1.6911 0.278821,3.49142 -0.285771,5.2524 -1.595908,4.97768 -6.590921,7.91765 -11.598776,7.0807 v 2.3859 c 0.374094,-0.0104 0.755635,0.0374 1.132231,0.15813 1.789032,0.5736 2.774482,2.48874 2.200899,4.27778 -0.472986,1.47527 -1.858577,2.40179 -3.33313,2.36058 v 3.78685 c 0.374094,-0.0104 0.755634,0.0374 1.132231,0.15813 1.789037,0.5736 2.774489,2.48873 2.200899,4.27777 -0.472986,1.47527 -1.858577,2.40179 -3.33313,2.36058 v 3.78685 c 0.374094,-0.0104 0.755634,0.0374 1.132231,0.15813 1.789037,0.5736 2.774489,2.48873 2.200899,4.27778 -0.472989,1.47526 -1.858579,2.40179 -3.33313,2.36057 v 3.78685 c 0.374094,-0.0104 0.755635,0.0374 1.132231,0.15813 1.789032,0.5736 2.774482,2.48874 2.200899,4.27778 -0.472985,1.47527 -1.858577,2.40179 -3.33313,2.36058 v 3.78685 c 0.374094,-0.0104 0.755634,0.0374 1.132231,0.15813 1.789037,0.57359 2.774489,2.48873 2.200899,4.27777 -0.472985,1.47527 -1.858577,2.40179 -3.33313,2.36058 v 2.93729 c 1.95473,-0.59639 4.104059,-0.62626 6.197554,0.045 4.030027,1.29211 6.72222,4.81315 7.158219,8.76432 h 31.956706 v -0.50229 h 1.679485 v 0.50229 H 176.29415 c 0.0342,-0.92847 0.19125,-1.86751 0.48886,-2.79569 1.61604,-5.0402 6.71737,-7.98901 11.78791,-7.04505 v -3.26234 c -0.49228,0.0696 -1.00686,0.0359 -1.51206,-0.12609 -1.78903,-0.57364 -2.774,-2.48874 -2.20038,-4.27777 0.51345,-1.60137 2.10181,-2.55513 3.71244,-2.32699 v -3.85248 c -0.49228,0.0696 -1.00686,0.0359 -1.51206,-0.12609 -1.78903,-0.57364 -2.774,-2.48874 -2.20038,-4.27777 0.51345,-1.60137 2.10181,-2.55513 3.71244,-2.32699 v -3.85248 c -0.49228,0.0696 -1.00686,0.0359 -1.51206,-0.12609 -1.78903,-0.57364 -2.774,-2.48875 -2.20038,-4.27778 0.51345,-1.60136 2.10181,-2.55512 3.71244,-2.32699 v -3.85248 c -0.49228,0.0696 -1.00686,0.0359 -1.51206,-0.12609 -1.78903,-0.57364 -2.774,-2.48874 -2.20038,-4.27777 0.51345,-1.60137 2.10181,-2.55513 3.71244,-2.32699 v -3.85248 c -0.49228,0.0696 -1.00686,0.0359 -1.51206,-0.12609 -1.78903,-0.57364 -2.774,-2.48874 -2.20038,-4.27777 0.51345,-1.60137 2.10181,-2.55513 3.71244,-2.32699 v -3.37758 c -1.85192,0.48945 -3.85994,0.47573 -5.81929,-0.15244 -4.41222,-1.41474 -7.22281,-5.5004 -7.22178,-9.89811 z m 33.427932,1.13224 h 1.679485 v 1.67948 h -1.679485 z m 0,3.36103 h 1.679485 v 1.68155 h -1.679485 z m 0,3.36155 h 1.679485 v 1.68155 h -1.679485 z m 0,3.36311 h 1.679485 v 1.67948 h -1.679485 z m 0,3.36155 h 1.679485 v 1.67948 h -1.679485 z m 0,3.36103 h 1.679485 v 1.68155 h -1.679485 z m 0,3.36155 h 1.679485 v 1.68156 h -1.679485 z m 0,3.36311 h 1.679485 v 1.67948 h -1.679485 z m 0,3.36155 h 1.679485 v 1.68155 h -1.679485 z m 0,3.36103 h 1.679485 v 1.68155 h -1.679485 z m 0,3.36155 h 1.679485 v 1.68156 h -1.679485 z m 0,3.36311 h 1.679485 v 1.68 h -1.679485 z m 0,3.36155 h 1.679485 v 1.68155 h -1.679485 z m 0,3.36103 h 1.679485 v 1.68156 h -1.679485 z m 0,3.36362 h 1.679485 v 1.67949 h -1.679485 z m 0,3.36104 h 1.679485 v 1.68 h -1.679485 z m 0,3.36155 h 1.679485 v 1.68155 h -1.679485 z m 0,3.36104 h 1.679485 v 1.68155 h -1.679485 z m 0,3.36361 h 1.679485 v 1.67949 h -1.679485 z m 0,3.36104 h 1.679485 v 1.68155 h -1.679485 z m 0,3.36155 h 1.679485 v 1.68155 h -1.679485 z m 0,3.36104 h 1.679485 v 1.68206 h -1.679485 z" />
    <g
       id="barcode">
      <path
         id="rect6079"
         style="fill:#000000;fill-opacity:1;stroke:none;stroke-width:1.32292;stroke-miterlimit:4;stroke-dasharray:1.32292, 1.32292;stroke-dashoffset:0;stroke-opacity:1"
         d="m 31.75,137.58333 h 20.328826 c 0.232082,0 0.41892,0.18684 0.41892,0.41892 v 4.45382 c 0,0.23209 -0.186838,0.41892 -0.41892,0.41892 H 31.75 c -0.232082,0 -0.41892,-0.18683 -0.41892,-0.41892 v -4.45382 c 0,-0.23208 0.186838,-0.41892 0.41892,-0.41892 z" />
      <path
         id="rect6079-9"
         style="fill:#000000;fill-opacity:1;stroke:none;stroke-width:1.32292;stroke-miterlimit:4;stroke-dasharray:1.32292, 1.32292;stroke-dashoffset:0;stroke-opacity:1"
         d="M 31.750004,145.52083 H 52.07883 c 0.232082,0 0.41892,0.18684 0.41892,0.41892 v 4.45382 c 0,0.23209 -0.186838,0.41892 -0.41892,0.41892 H 31.750004 c -0.232082,0 -0.41892,-0.18683 -0.41892,-0.41892 v -4.45382 c 0,-0.23208 0.186838,-0.41892 0.41892,-0.41892 z" />
      <path
         id="rect6079-6"
         style="fill:#000000;fill-opacity:1;stroke:none;stroke-width:1.32292;stroke-miterlimit:4;stroke-dasharray:1.32292, 1.32292;stroke-dashoffset:0;stroke-opacity:1"
         d="m 31.75,153.45833 h 20.328826 c 0.232082,0 0.41892,0.18684 0.41892,0.41892 v 4.45382 c 0,0.23209 -0.186838,0.41892 -0.41892,0.41892 H 31.75 c -0.232082,0 -0.41892,-0.18683 -0.41892,-0.41892 v -4.45382 c 0,-0.23208 0.186838,-0.41892 0.41892,-0.41892 z" />
      <path
         id="rect6079-93"
         style="fill:#000000;fill-opacity:1;stroke:none;stroke-width:1.32292;stroke-miterlimit:4;stroke-dasharray:1.32292, 1.32292;stroke-dashoffset:0;stroke-opacity:1"
         d="m 31.75,161.39583 h 20.328826 c 0.232082,0 0.41892,0.18684 0.41892,0.41892 v 4.45382 c 0,0.23209 -0.186838,0.41892 -0.41892,0.41892 H 31.75 c -0.232082,0 -0.41892,-0.18683 -0.41892,-0.41892 v -4.45382 c 0,-0.23208 0.186838,-0.41892 0.41892,-0.41892 z" />
      <path
         id="rect6079-1"
         style="fill:#000000;fill-opacity:1;stroke:none;stroke-width:1.32292;stroke-miterlimit:4;stroke-dasharray:1.32292, 1.32292;stroke-dashoffset:0;stroke-opacity:1"
         d="m 31.75,169.33333 h 20.328826 c 0.232082,0 0.41892,0.18684 0.41892,0.41892 v 4.45382 c 0,0.23209 -0.186838,0.41892 -0.41892,0.41892 H 31.75 c -0.232082,0 -0.41892,-0.18683 -0.41892,-0.41892 v -4.45382 c 0,-0.23208 0.186838,-0.41892 0.41892,-0.41892 z" />
    </g>
    <text
       xml:space="preserve"
       style="font-style:normal;font-variant:normal;font-weight:300;font-stretch:normal;font-size:6.86243px;line-height:1.25;font-family:Roboto;-inkscape-font-specification:'Roboto, Light';font-variant-ligatures:normal;font-variant-caps:normal;font-variant-numeric:normal;font-variant-east-asian:normal;letter-spacing:0px;word-spacing:0px;fill:#ff0000;fill-opacity:1;stroke:none;stroke-width:0.171561"
       x="-173.54915"
       y="60.029045"
       id="tokenid"
       transform="rotate(-90)"><tspan
         sodipodi:role="line"
         id="tspan8264"
         x="-173.54915"
         y="60.029045"
         style="font-style:normal;font-variant:normal;font-weight:300;font-stretch:normal;font-size:6.86243px;font-family:Roboto;-inkscape-font-specification:'Roboto, Light';font-variant-ligatures:normal;font-variant-caps:normal;font-variant-numeric:normal;font-variant-east-asian:normal;fill:#ff0000;stroke-width:0.171561">123456789</tspan></text>
    <text
       xml:space="preserve"
       style="font-style:normal;font-variant:normal;font-weight:300;font-stretch:normal;font-size:3.175px;line-height:1.25;font-family:Roboto;-inkscape-font-specification:'Roboto, Light';font-variant-ligatures:normal;font-variant-caps:normal;font-variant-numeric:normal;font-variant-east-asian:normal;letter-spacing:0px;word-spacing:0px;fill:#000080;fill-opacity:1;stroke:none;stroke-width:0.171561"
       x="71.092758"
       y="188.26721"
       id="numbers"><tspan
         sodipodi:role="line"
         id="tspan8264-0"
         x="71.092758"
         y="188.26721"
         style="font-style:normal;font-variant:normal;font-weight:300;font-stretch:normal;font-size:3.175px;font-family:Roboto;-inkscape-font-specification:'Roboto, Light';font-variant-ligatures:normal;font-variant-caps:normal;font-variant-numeric:normal;font-variant-east-asian:normal;fill:#000080;stroke-width:0.171561">10-20-30-40-50-60</tspan></text>
    <path
       id="path851"
       style="fill:#000000;stroke-width:0.0264583"
       d="m 116.41587,174.62476 a 23.8125,23.8125 0 0 1 -15.40477,-29.94584 23.8125,23.8125 0 0 1 29.94571,-15.40503 23.8125,23.8125 0 0 1 15.40529,29.94557 23.8125,23.8125 0 0 1 -29.94543,15.40555" />
    <g
       aria-label="?"
       transform="matrix(3.2077421,0,0,3.2077421,-234.06257,-315.47833)"
       id="text853"
       style="font-style:normal;font-weight:normal;font-size:10.5833px;line-height:1.25;font-family:sans-serif;letter-spacing:0px;word-spacing:0px;white-space:pre;shape-inside:url(#rect855);fill:#00ff00;fill-opacity:1;stroke:none">
      <path
         d="m 110.49906,148.27968 h 1.04903 v 1.31258 h -1.04903 z m 1.01802,-0.75964 h -0.98702 v -0.79582 q 0,-0.52193 0.1447,-0.85782 0.14469,-0.3359 0.60978,-0.78032 l 0.46508,-0.45991 q 0.29456,-0.27389 0.42375,-0.51677 0.13436,-0.24288 0.13436,-0.49609 0,-0.45992 -0.34107,-0.74414 -0.33589,-0.28422 -0.894,-0.28422 -0.40824,0 -0.87332,0.18087 -0.45992,0.18087 -0.96118,0.5271 v -0.97152 q 0.48575,-0.29455 0.98185,-0.43924 0.50126,-0.1447 1.03352,-0.1447 0.95084,0 1.52445,0.50126 0.57878,0.50126 0.57878,1.32291 0,0.39274 -0.18604,0.74931 -0.18603,0.3514 -0.65112,0.79582 l -0.45475,0.44441 q -0.24288,0.24288 -0.34623,0.38241 -0.0982,0.13435 -0.13953,0.26354 -0.031,0.10852 -0.0465,0.26355 -0.0155,0.15503 -0.0155,0.42375 z"
         style="fill:#00ff00"
         id="path891" />
    </g>
  </g>
</svg>
