<?xml version="1.0" encoding="UTF-8" standalone="no"?>
<svg
   xmlns:dc="http://purl.org/dc/elements/1.1/"
   xmlns:cc="http://creativecommons.org/ns#"
   xmlns:rdf="http://www.w3.org/1999/02/22-rdf-syntax-ns#"
   xmlns:svg="http://www.w3.org/2000/svg"
   xmlns="http://www.w3.org/2000/svg"
   xmlns:sodipodi="http://sodipodi.sourceforge.net/DTD/sodipodi-0.dtd"
   xmlns:inkscape="http://www.inkscape.org/namespaces/inkscape"
   width="205.00124mm"
   height="101.79687mm"
   viewBox="0 0 205.00124 101.79687"
   version="1.1"
   id="svg5218"
   inkscape:version="1.0.2-2 (e86c870879, 2021-01-15)"
   sodipodi:docname="15-ticket-template.svg">
  <defs
     id="defs5212">
    <rect
       x="84.666664"
       y="142.875"
       width="63.5"
       height="21.166668"
       id="rect7541" />
  </defs>
  <sodipodi:namedview
     id="base"
     pagecolor="#ffffff"
     bordercolor="#666666"
     borderopacity="1.0"
     inkscape:pageopacity="0.0"
     inkscape:pageshadow="2"
     inkscape:zoom="0.93069899"
     inkscape:cx="272.05408"
     inkscape:cy="232.25211"
     inkscape:document-units="mm"
     inkscape:current-layer="layer1"
     inkscape:document-rotation="0"
     showgrid="true"
     inkscape:window-width="1920"
     inkscape:window-height="1017"
     inkscape:window-x="1912"
     inkscape:window-y="-8"
     inkscape:window-maximized="1"
     fit-margin-top="0"
     fit-margin-left="0"
     fit-margin-right="0"
     fit-margin-bottom="0">
    <inkscape:grid
       type="xygrid"
       id="grid5877"
       originx="0.64381929"
       originy="-105.20507" />
  </sodipodi:namedview>
  <metadata
     id="metadata5215">
    <rdf:RDF>
      <cc:Work
         rdf:about="">
        <dc:format>image/svg+xml</dc:format>
        <dc:type
           rdf:resource="http://purl.org/dc/dcmitype/StillImage" />
        <dc:title></dc:title>
      </cc:Work>
    </rdf:RDF>
  </metadata>
  <g
     inkscape:label="Layer 1"
     inkscape:groupmode="layer"
     id="layer1"
     transform="translate(0.64382026,-105.20508)">
    <g
       id="rect6062"
       style="opacity:1">
      <path
         style="color:#000000;font-style:normal;font-variant:normal;font-weight:normal;font-stretch:normal;font-size:medium;line-height:normal;font-family:sans-serif;font-variant-ligatures:normal;font-variant-position:normal;font-variant-caps:normal;font-variant-numeric:normal;font-variant-alternates:normal;font-variant-east-asian:normal;font-feature-settings:normal;font-variation-settings:normal;text-indent:0;text-align:start;text-decoration:none;text-decoration-line:none;text-decoration-style:solid;text-decoration-color:#000000;letter-spacing:normal;word-spacing:normal;text-transform:none;writing-mode:lr-tb;direction:ltr;text-orientation:mixed;dominant-baseline:auto;baseline-shift:baseline;text-anchor:start;white-space:normal;shape-padding:0;shape-margin:0;inline-size:0;clip-rule:nonzero;display:inline;overflow:visible;visibility:visible;isolation:auto;mix-blend-mode:normal;color-interpolation:sRGB;color-interpolation-filters:linearRGB;solid-color:#000000;solid-opacity:1;vector-effect:none;fill:#000000;fill-opacity:1;fill-rule:nonzero;stroke:none;stroke-width:1.25563;stroke-linecap:butt;stroke-linejoin:miter;stroke-miterlimit:4;stroke-dasharray:1.25563, 1.25563;stroke-dashoffset:0;stroke-opacity:1;color-rendering:auto;image-rendering:auto;shape-rendering:auto;text-rendering:auto;enable-background:accumulate;stop-color:#000000;stop-opacity:1"
         d="M 0.27446485,105.83334 H 203.45472 c 0.15206,0 0.27447,0.12241 0.27447,0.27447 v 99.99273 c 0,0.15205 -0.12241,0.27446 -0.27447,0.27446 H 0.27446485 C 0.12241132,206.375 0,206.25259 0,206.10054 v -99.99273 c 0,-0.15206 0.12241132,-0.27447 0.27446485,-0.27447 z"
         id="path6139" />
      <path
         style="color:#000000;font-style:normal;font-variant:normal;font-weight:normal;font-stretch:normal;font-size:medium;line-height:normal;font-family:sans-serif;font-variant-ligatures:normal;font-variant-position:normal;font-variant-caps:normal;font-variant-numeric:normal;font-variant-alternates:normal;font-variant-east-asian:normal;font-feature-settings:normal;font-variation-settings:normal;text-indent:0;text-align:start;text-decoration:none;text-decoration-line:none;text-decoration-style:solid;text-decoration-color:#000000;letter-spacing:normal;word-spacing:normal;text-transform:none;writing-mode:lr-tb;direction:ltr;text-orientation:mixed;dominant-baseline:auto;baseline-shift:baseline;text-anchor:start;white-space:normal;shape-padding:0;shape-margin:0;inline-size:0;clip-rule:nonzero;display:inline;overflow:visible;visibility:visible;isolation:auto;mix-blend-mode:normal;color-interpolation:sRGB;color-interpolation-filters:linearRGB;solid-color:#000000;solid-opacity:1;vector-effect:none;fill:#ffffff;fill-opacity:1;fill-rule:nonzero;stroke:none;stroke-linecap:butt;stroke-linejoin:miter;stroke-miterlimit:4;stroke-dasharray:1.25563, 1.25563;stroke-dashoffset:0;stroke-opacity:1;color-rendering:auto;image-rendering:auto;shape-rendering:auto;text-rendering:auto;enable-background:accumulate;stop-color:#000000;stop-opacity:1"
         d="m 0.27539062,105.20508 v 0.008 c -0.40636865,-7.8e-4 -0.74478583,0.23673 -0.86328124,0.62891 l 0.85742187,0.25976 0.005859,-0.32617 v 0.32813 l 0.33789063,0.10156 c -0.0507202,0.16786 -0.16791269,0.24531 -0.33789063,0.24804 v 0.008 H 1.5292969 v -1.25586 H 0.28515625 Z m 2.50976558,0 v 1.25586 h 1.2558594 v -1.25586 z m 2.5117188,0 v 1.25586 h 1.2558594 v -1.25586 z m 2.5117188,0 v 1.25586 h 1.2558593 v -1.25586 z m 2.5117182,0 v 1.25586 h 1.253907 v -1.25586 z m 2.509766,0 v 1.25586 h 1.25586 v -1.25586 z m 2.511719,0 v 1.25586 h 1.255859 v -1.25586 z m 2.511719,0 v 1.25586 h 1.255859 v -1.25586 z m 2.511718,0 v 1.25586 h 1.25586 v -1.25586 z m 2.509766,0 v 1.25586 h 1.255859 v -1.25586 z m 2.511719,0 v 1.25586 h 1.255859 v -1.25586 z m 2.511719,0 v 1.25586 h 1.255859 v -1.25586 z m 2.511718,0 v 1.25586 h 1.25586 v -1.25586 z m 2.509766,0 v 1.25586 h 1.255859 v -1.25586 z m 2.511719,0 v 1.25586 H 36.6875 v -1.25586 z m 2.511718,0 v 1.25586 h 1.25586 v -1.25586 z m 2.511719,0 v 1.25586 h 1.25586 v -1.25586 z m 2.511719,0 v 1.25586 h 1.253906 v -1.25586 z m 2.509765,0 v 1.25586 h 1.25586 v -1.25586 z m 2.511719,0 v 1.25586 h 1.25586 v -1.25586 z m 2.511719,0 v 1.25586 h 1.255859 v -1.25586 z m 2.511719,0 v 1.25586 h 1.253906 v -1.25586 z m 2.509765,0 v 1.25586 h 1.25586 v -1.25586 z m 2.511719,0 v 1.25586 h 1.255859 v -1.25586 z m 2.511719,0 v 1.25586 h 1.255859 v -1.25586 z m 2.511719,0 v 1.25586 H 64.3125 v -1.25586 z m 2.509765,0 v 1.25586 h 1.25586 v -1.25586 z m 2.511719,0 v 1.25586 h 1.255859 v -1.25586 z m 2.511719,0 v 1.25586 h 1.255859 v -1.25586 z m 2.511718,0 v 1.25586 h 1.25586 v -1.25586 z m 2.509766,0 v 1.25586 h 1.25586 v -1.25586 z m 2.511719,0 v 1.25586 h 1.255859 v -1.25586 z m 2.511719,0 v 1.25586 h 1.255859 v -1.25586 z m 2.511718,0 v 1.25586 h 1.25586 v -1.25586 z m 2.511719,0 v 1.25586 h 1.253906 v -1.25586 z m 2.509766,0 v 1.25586 h 1.255859 v -1.25586 z m 2.511719,0 v 1.25586 h 1.255859 v -1.25586 z m 2.511718,0 v 1.25586 h 1.25586 v -1.25586 z m 2.511719,0 v 1.25586 h 1.253906 v -1.25586 z m 2.509766,0 v 1.25586 h 1.255859 v -1.25586 z m 2.511719,0 v 1.25586 h 1.25586 v -1.25586 z m 2.51172,0 v 1.25586 h 1.25586 v -1.25586 z m 2.51172,0 v 1.25586 h 1.25586 v -1.25586 z m 2.50976,0 v 1.25586 h 1.25586 v -1.25586 z m 2.51172,0 v 1.25586 h 1.25586 v -1.25586 z m 2.51172,0 v 1.25586 h 1.25586 v -1.25586 z m 2.51172,0 v 1.25586 h 1.25586 v -1.25586 z m 2.50976,0 v 1.25586 h 1.25586 v -1.25586 z m 2.51172,0 v 1.25586 h 1.25586 v -1.25586 z m 2.51172,0 v 1.25586 h 1.25586 v -1.25586 z m 2.51172,0 v 1.25586 h 1.25586 v -1.25586 z m 2.51172,0 v 1.25586 h 1.25391 v -1.25586 z m 2.50977,0 v 1.25586 h 1.25585 v -1.25586 z m 2.51171,0 v 1.25586 h 1.25586 v -1.25586 z m 2.51172,0 v 1.25586 h 1.25586 v -1.25586 z m 2.51172,0 v 1.25586 h 1.25391 v -1.25586 z m 2.50977,0 v 1.25586 h 1.25586 v -1.25586 z m 2.51172,0 v 1.25586 h 1.25586 v -1.25586 z m 2.51171,0 v 1.25586 h 1.25586 v -1.25586 z m 2.51172,0 v 1.25586 h 1.25586 v -1.25586 z m 2.50977,0 v 1.25586 h 1.25586 v -1.25586 z m 2.51172,0 v 1.25586 h 1.25586 v -1.25586 z m 2.51172,0 v 1.25586 h 1.25586 v -1.25586 z m 2.51172,0 v 1.25586 h 1.25585 v -1.25586 z m 2.50976,0 v 1.25586 H 162.25 v -1.25586 z m 2.51172,0 v 1.25586 h 1.25586 v -1.25586 z m 2.51172,0 v 1.25586 h 1.25586 v -1.25586 z m 2.51172,0 v 1.25586 h 1.25586 v -1.25586 z m 2.51172,0 v 1.25586 h 1.2539 v -1.25586 z m 2.50976,0 v 1.25586 h 1.25586 v -1.25586 z m 2.51172,0 v 1.25586 h 1.25586 v -1.25586 z m 2.51172,0 v 1.25586 h 1.25586 v -1.25586 z m 2.51172,0 v 1.25586 h 1.2539 v -1.25586 z m 2.50976,0 v 1.25586 h 1.25586 v -1.25586 z m 2.51172,0 v 1.25586 h 1.25586 v -1.25586 z m 2.51172,0 v 1.25586 h 1.25586 v -1.25586 z m 2.51172,0 v 1.25586 h 1.25586 v -1.25586 z m 2.50976,0 v 1.25586 h 1.25586 v -1.25586 z m 2.51172,0 v 1.25586 h 1.25586 v -1.25586 z m 2.51172,0 v 1.25586 h 1.25586 v -1.25586 z m 2.51172,0 v 1.25586 h 1.25586 v -1.25586 z m 2.94531,0.29492 -0.92187,0.85156 c -0.10257,-0.1112 -0.0924,-0.26234 -0.0977,-0.23437 -0.005,0.028 -0.0434,0.14101 -0.0937,0.2832 -0.0503,0.14219 -0.13325,0.31091 -0.10547,0.60938 0.0139,0.14923 0.0786,0.34175 0.20899,0.48828 0.13037,0.14652 0.30083,0.22987 0.45312,0.27148 l 0.33008,-1.21094 c 0.0146,0.004 0.088,0.0309 0.1543,0.10547 0.0663,0.0746 0.0987,0.17925 0.10351,0.23047 0.01,0.10245 7.2e-4,0.0322 0.0391,-0.0762 0.0383,-0.10837 0.10458,-0.25784 0.14453,-0.46875 0.0399,-0.21091 0.0362,-0.57743 -0.21485,-0.84961 z m -204.74804312,1.77734 v 1.25586 h 1.25390624 v -1.25586 z M 203.10156,108.41992 v 1.25586 h 1.25586 v -1.25586 z m -203.72851312,1.36914 v 1.25586 h 1.25390624 v -1.25586 z M 203.10156,110.93164 v 1.25586 h 1.25586 v -1.25586 z m -203.72851312,1.36914 v 1.25586 h 1.25390624 v -1.25586 z M 203.10156,113.44141 v 1.25586 h 1.25586 v -1.25586 z M -0.62695312,114.8125 v 1.25586 H 0.62695312 V 114.8125 Z M 203.10156,115.95312 v 1.25586 h 1.25586 v -1.25586 z m -203.72851312,1.36915 v 1.25585 h 1.25390624 v -1.25585 z M 203.10156,118.46484 v 1.25586 h 1.25586 v -1.25586 z m -203.72851312,1.36914 v 1.25586 h 1.25390624 v -1.25586 z M 203.10156,120.97656 v 1.25586 h 1.25586 v -1.25586 z M -0.62695312,122.3457 v 1.25586 H 0.62695312 V 122.3457 Z M 203.10156,123.48633 v 1.25586 h 1.25586 v -1.25586 z m -203.72851312,1.37109 v 1.25586 h 1.25390624 v -1.25586 z M 203.10156,125.99805 v 1.25586 h 1.25586 v -1.25586 z m -203.72851312,1.37109 v 1.25391 h 1.25390624 v -1.25391 z M 203.10156,128.50977 v 1.25585 h 1.25586 v -1.25585 z m -203.72851312,1.36914 v 1.25586 h 1.25390624 v -1.25586 z M 203.10156,131.02148 v 1.25586 h 1.25586 v -1.25586 z m -203.72851312,1.36914 v 1.25586 h 1.25390624 v -1.25586 z M 203.10156,133.5332 v 1.25391 h 1.25586 v -1.25391 z m -203.72851312,1.36914 v 1.25586 h 1.25390624 v -1.25586 z M 203.10156,136.04297 v 1.25586 h 1.25586 v -1.25586 z m -203.72851312,1.37109 v 1.25391 h 1.25390624 v -1.25391 z M 203.10156,138.55469 v 1.25586 h 1.25586 v -1.25586 z m -203.72851312,1.36914 v 1.25586 h 1.25390624 v -1.25586 z M 203.10156,141.06641 v 1.25586 h 1.25586 v -1.25586 z m -203.72851312,1.36914 v 1.25586 h 1.25390624 v -1.25586 z M 203.10156,143.57812 v 1.25391 h 1.25586 v -1.25391 z m -203.72851312,1.36915 v 1.25585 h 1.25390624 v -1.25585 z M 203.10156,146.08789 v 1.25586 h 1.25586 v -1.25586 z m -203.72851312,1.37109 v 1.25586 h 1.25390624 v -1.25586 z M 203.10156,148.59961 v 1.25586 h 1.25586 v -1.25586 z m -203.72851312,1.36914 v 1.25586 h 1.25390624 v -1.25586 z M 203.10156,151.11133 v 1.25586 h 1.25586 v -1.25586 z m -203.72851312,1.36914 v 1.25586 h 1.25390624 v -1.25586 z M 203.10156,153.62305 v 1.25586 h 1.25586 v -1.25586 z m -203.72851312,1.36914 v 1.25586 h 1.25390624 v -1.25586 z M 203.10156,156.13281 v 1.25586 h 1.25586 v -1.25586 z m -203.72851312,1.3711 v 1.25586 h 1.25390624 v -1.25586 z M 203.10156,158.64453 v 1.25586 h 1.25586 v -1.25586 z m -203.72851312,1.36914 v 1.25586 h 1.25390624 v -1.25586 z M 203.10156,161.15625 v 1.25586 h 1.25586 v -1.25586 z m -203.72851312,1.36914 v 1.25586 h 1.25390624 v -1.25586 z M 203.10156,163.66797 v 1.25586 h 1.25586 v -1.25586 z m -203.72851312,1.36914 v 1.25586 h 1.25390624 v -1.25586 z M 203.10156,166.17773 v 1.25586 h 1.25586 v -1.25586 z m -203.72851312,1.3711 v 1.25586 h 1.25390624 v -1.25586 z M 203.10156,168.68945 v 1.25586 h 1.25586 v -1.25586 z m -203.72851312,1.3711 v 1.2539 h 1.25390624 v -1.2539 z M 203.10156,171.20117 v 1.25586 h 1.25586 v -1.25586 z m -203.72851312,1.36914 v 1.25586 h 1.25390624 v -1.25586 z M 203.10156,173.71289 v 1.25586 h 1.25586 v -1.25586 z m -203.72851312,1.36914 v 1.25586 h 1.25390624 v -1.25586 z M 203.10156,176.22461 v 1.25391 h 1.25586 v -1.25391 z m -203.72851312,1.36914 v 1.25586 h 1.25390624 v -1.25586 z M 203.10156,178.73438 v 1.25585 h 1.25586 v -1.25585 z m -203.72851312,1.37109 v 1.25391 h 1.25390624 v -1.25391 z M 203.10156,181.24609 v 1.25586 h 1.25586 v -1.25586 z m -203.72851312,1.36914 v 1.25586 h 1.25390624 v -1.25586 z M 203.10156,183.75781 v 1.25586 h 1.25586 v -1.25586 z m -203.72851312,1.36914 v 1.25586 h 1.25390624 v -1.25586 z M 203.10156,186.26953 v 1.25391 h 1.25586 v -1.25391 z m -203.72851312,1.36914 v 1.25586 h 1.25390624 v -1.25586 z M 203.10156,188.7793 v 1.25586 h 1.25586 v -1.25586 z m -203.72851312,1.37109 v 1.25586 h 1.25390624 v -1.25586 z M 203.10156,191.29102 v 1.25586 h 1.25586 v -1.25586 z m -203.72851312,1.36914 v 1.25586 h 1.25390624 v -1.25586 z M 203.10156,193.80273 v 1.25586 h 1.25586 v -1.25586 z m -203.72851312,1.36915 v 1.25585 h 1.25390624 v -1.25585 z M 203.10156,196.31445 v 1.25586 h 1.25586 v -1.25586 z m -203.72851312,1.36914 v 1.25586 h 1.25390624 v -1.25586 z M 203.10156,198.82422 v 1.25586 h 1.25586 v -1.25586 z m -203.72851312,1.37109 v 1.25586 h 1.25390624 v -1.25586 z M 203.10156,201.33594 v 1.25586 h 1.25586 v -1.25586 z m -203.72851312,1.36914 v 1.25586 h 1.25390624 v -1.25586 z M 203.10156,203.84766 v 1.25586 h 1.25586 v -1.25586 z m -202.81445062,0.81054 -0.57421876,1.11719 c -0.21918111,-0.11291 -0.27843363,-0.31657 -0.2890625,-0.37695 -0.0106289,-0.0604 -0.003704,-0.0527 -0.005859,-0.0254 -0.004311,0.0547 -0.0281314,0.19103 -0.0449219,0.35156 -0.0167905,0.16053 -0.0377435,0.34851 0.0292969,0.59766 0.0670404,0.24914 0.34745875,0.58933 0.68359375,0.66015 l 0.25976562,-1.22851 c 0.0997284,0.021 0.25919501,0.20377 0.26953126,0.24218 0.0103362,0.0384 -0.002989,-0.0374 0.007813,-0.14062 0.0108016,-0.10327 0.0347041,-0.23042 0.046875,-0.38477 0.006085,-0.0772 0.0132883,-0.16004 -0.009766,-0.29101 -0.0230539,-0.13098 -0.10884882,-0.38539 -0.37304687,-0.52149 z M 202.50586,205.52344 c -0.31858,0.0431 -0.65429,0.38254 -0.73828,0.68164 l 1.20898,0.33984 c 0.002,-0.007 -0.17962,0.20599 -0.30273,0.22266 -0.12312,0.0167 -0.0715,-0.003 0.0273,0.0351 0.0989,0.0385 0.24122,0.10828 0.44336,0.16016 0.20214,0.0519 0.55458,0.0841 0.85156,-0.14062 l -0.75781,-1 c 0.12427,-0.094 0.25544,-0.0668 0.21875,-0.0762 -0.0367,-0.009 -0.15323,-0.0558 -0.30078,-0.11328 -0.14755,-0.0575 -0.33181,-0.15251 -0.65039,-0.10937 z M 1.4707031,205.74805 v 1.2539 h 1.2558594 v -1.2539 z m 2.5117188,0 v 1.2539 h 1.2558593 v -1.2539 z m 2.5117187,0 v 1.2539 H 7.75 v -1.2539 z m 2.5117188,0 v 1.2539 h 1.2539066 v -1.2539 z m 2.5097656,0 v 1.2539 h 1.255859 v -1.2539 z m 2.511719,0 v 1.2539 h 1.255859 v -1.2539 z m 2.511718,0 v 1.2539 h 1.25586 v -1.2539 z m 2.511719,0 v 1.2539 h 1.25586 v -1.2539 z m 2.509766,0 v 1.2539 h 1.255859 v -1.2539 z m 2.511719,0 v 1.2539 h 1.255859 v -1.2539 z m 2.511718,0 v 1.2539 h 1.25586 v -1.2539 z m 2.511719,0 v 1.2539 h 1.255859 v -1.2539 z m 2.509766,0 v 1.2539 h 1.255859 v -1.2539 z m 2.511719,0 v 1.2539 h 1.255859 v -1.2539 z m 2.511718,0 v 1.2539 h 1.25586 v -1.2539 z m 2.511719,0 v 1.2539 h 1.255859 v -1.2539 z m 2.511719,0 v 1.2539 h 1.253906 v -1.2539 z m 2.509765,0 v 1.2539 h 1.25586 v -1.2539 z m 2.511719,0 v 1.2539 h 1.25586 v -1.2539 z m 2.511719,0 v 1.2539 h 1.255859 v -1.2539 z m 2.511719,0 v 1.2539 h 1.253906 v -1.2539 z m 2.509765,0 v 1.2539 h 1.25586 v -1.2539 z m 2.511719,0 v 1.2539 h 1.255859 v -1.2539 z m 2.511719,0 v 1.2539 h 1.255859 v -1.2539 z m 2.511719,0 v 1.2539 h 1.255859 v -1.2539 z m 2.509765,0 v 1.2539 h 1.255859 v -1.2539 z m 2.511719,0 v 1.2539 h 1.255859 v -1.2539 z m 2.511719,0 v 1.2539 h 1.255859 v -1.2539 z m 2.511718,0 v 1.2539 h 1.25586 v -1.2539 z m 2.509766,0 v 1.2539 h 1.255859 v -1.2539 z m 2.511719,0 v 1.2539 h 1.255859 v -1.2539 z m 2.511718,0 v 1.2539 h 1.25586 v -1.2539 z m 2.511719,0 v 1.2539 h 1.25586 v -1.2539 z m 2.511719,0 v 1.2539 h 1.253906 v -1.2539 z m 2.509766,0 v 1.2539 h 1.255859 v -1.2539 z m 2.511718,0 v 1.2539 h 1.25586 v -1.2539 z m 2.511719,0 v 1.2539 h 1.255859 v -1.2539 z m 2.511719,0 v 1.2539 h 1.253906 v -1.2539 z m 2.509766,0 v 1.2539 h 1.255859 v -1.2539 z m 2.511718,0 v 1.2539 h 1.255864 v -1.2539 z m 2.511724,0 v 1.2539 h 1.25585 v -1.2539 z m 2.51171,0 v 1.2539 h 1.25586 v -1.2539 z m 2.50977,0 v 1.2539 h 1.25586 v -1.2539 z m 2.51172,0 v 1.2539 h 1.25586 v -1.2539 z m 2.51172,0 v 1.2539 h 1.25586 v -1.2539 z m 2.51172,0 v 1.2539 h 1.25586 v -1.2539 z m 2.50976,0 v 1.2539 h 1.25586 v -1.2539 z m 2.51172,0 v 1.2539 h 1.25586 v -1.2539 z m 2.51172,0 v 1.2539 h 1.25586 v -1.2539 z m 2.51172,0 v 1.2539 h 1.25586 v -1.2539 z m 2.51172,0 v 1.2539 h 1.2539 v -1.2539 z m 2.50976,0 v 1.2539 h 1.25586 v -1.2539 z m 2.51172,0 v 1.2539 h 1.25586 v -1.2539 z m 2.51172,0 v 1.2539 h 1.25586 v -1.2539 z m 2.51172,0 v 1.2539 h 1.2539 v -1.2539 z m 2.50976,0 v 1.2539 h 1.25586 v -1.2539 z m 2.51172,0 v 1.2539 h 1.25586 v -1.2539 z m 2.51172,0 v 1.2539 h 1.25586 v -1.2539 z m 2.51172,0 v 1.2539 h 1.25586 v -1.2539 z m 2.50977,0 v 1.2539 h 1.25585 v -1.2539 z m 2.51171,0 v 1.2539 h 1.25586 v -1.2539 z m 2.51172,0 v 1.2539 h 1.25586 v -1.2539 z m 2.51172,0 v 1.2539 h 1.25586 v -1.2539 z m 2.50977,0 v 1.2539 h 1.25586 v -1.2539 z m 2.51172,0 v 1.2539 h 1.25586 v -1.2539 z m 2.51171,0 v 1.2539 h 1.25586 v -1.2539 z m 2.51172,0 v 1.2539 h 1.25586 v -1.2539 z m 2.51172,0 v 1.2539 h 1.25391 v -1.2539 z m 2.50977,0 v 1.2539 h 1.25586 v -1.2539 z m 2.51172,0 v 1.2539 h 1.25586 v -1.2539 z m 2.51172,0 v 1.2539 h 1.25585 v -1.2539 z m 2.51171,0 v 1.2539 h 1.25391 v -1.2539 z m 2.50977,0 v 1.2539 h 1.25586 v -1.2539 z m 2.51172,0 v 1.2539 h 1.25586 v -1.2539 z m 2.51172,0 v 1.2539 h 1.25586 v -1.2539 z m 2.51172,0 v 1.2539 h 1.25586 v -1.2539 z m 2.50976,0 v 1.2539 h 1.25586 v -1.2539 z m 2.51172,0 v 1.2539 h 1.25586 v -1.2539 z m 2.51172,0 v 1.2539 h 1.25586 v -1.2539 z m 2.51172,0 v 1.2539 h 1.25586 v -1.2539 z"
         id="path6141" />
    </g>
    <path
       id="ticket"
       style="color:#000000;font-style:normal;font-variant:normal;font-weight:normal;font-stretch:normal;font-size:medium;line-height:normal;font-family:sans-serif;font-variant-ligatures:normal;font-variant-position:normal;font-variant-caps:normal;font-variant-numeric:normal;font-variant-alternates:normal;font-variant-east-asian:normal;font-feature-settings:normal;font-variation-settings:normal;text-indent:0;text-align:start;text-decoration:none;text-decoration-line:none;text-decoration-style:solid;text-decoration-color:#000000;letter-spacing:normal;word-spacing:normal;text-transform:none;writing-mode:lr-tb;direction:ltr;text-orientation:mixed;dominant-baseline:auto;baseline-shift:baseline;text-anchor:start;white-space:normal;shape-padding:0;shape-margin:0;inline-size:0;clip-rule:nonzero;display:inline;overflow:visible;visibility:visible;opacity:1;isolation:auto;mix-blend-mode:normal;color-interpolation:sRGB;color-interpolation-filters:linearRGB;solid-color:#000000;solid-opacity:1;vector-effect:none;fill:#ffffff;fill-opacity:1;fill-rule:nonzero;stroke:none;stroke-width:18.8976;stroke-linecap:butt;stroke-linejoin:miter;stroke-miterlimit:4;stroke-dasharray:none;stroke-dashoffset:0;stroke-opacity:1;color-rendering:auto;image-rendering:auto;shape-rendering:auto;text-rendering:auto;enable-background:accumulate;stop-color:#000000;stop-opacity:1"
       d="m 110.48438,444.73242 c 1.31089,6.39155 1.05381,13.1959 -1.08008,19.85156 -6.03178,18.81331 -24.910569,29.925 -43.837894,26.76172 v 9.01758 c 1.413897,-0.0392 2.855942,0.1413 4.279297,0.59766 6.761696,2.16793 10.486232,9.40624 8.318359,16.16797 -1.787663,5.57581 -7.024544,9.07764 -12.597656,8.92187 v 14.3125 c 1.413899,-0.0392 2.85594,0.1413 4.279297,0.59766 6.761715,2.16793 10.486259,9.40624 8.318359,16.16797 -1.787662,5.57581 -7.024544,9.07764 -12.597656,8.92187 v 14.3125 c 1.413899,-0.0392 2.85594,0.1413 4.279297,0.59766 6.761715,2.16793 10.486259,9.40624 8.318359,16.16797 -1.787673,5.57581 -7.02455,9.07765 -12.597656,8.92187 v 14.3125 c 1.413897,-0.0392 2.855942,0.1413 4.279297,0.59766 6.761696,2.16793 10.486232,9.40624 8.318359,16.16797 -1.78766,5.57581 -7.024544,9.07764 -12.597656,8.92187 v 14.3125 c 1.413899,-0.0392 2.85594,0.1413 4.279297,0.59766 6.761715,2.16793 10.486259,9.40624 8.318359,16.16797 -1.787659,5.57581 -7.024544,9.07764 -12.597656,8.92187 v 11.10156 c 7.387956,-2.25407 15.511403,-2.36697 23.423828,0.16993 15.231596,4.88358 25.406816,18.19144 27.054686,33.125 h 120.78125 v -1.89844 h 6.34766 v 1.89844 h 423.13476 c 0.12943,-3.5092 0.72285,-7.05831 1.84766,-10.56641 6.10789,-19.04956 25.3885,-30.19468 44.55273,-26.62695 v -12.33008 c -1.86057,0.26321 -3.80543,0.13559 -5.71484,-0.47656 -6.76169,-2.16809 -10.48442,-9.40628 -8.31641,-16.16797 1.9406,-6.05241 7.94384,-9.65717 14.03125,-8.79492 v -14.56055 c -1.86057,0.26322 -3.80543,0.13559 -5.71484,-0.47656 -6.76169,-2.16809 -10.48442,-9.40628 -8.31641,-16.16797 1.9406,-6.05241 7.94384,-9.65717 14.03125,-8.79492 v -14.56055 c -1.86057,0.26322 -3.80543,0.13559 -5.71484,-0.47656 -6.76169,-2.16809 -10.48442,-9.40628 -8.31641,-16.16797 1.9406,-6.05241 7.94384,-9.65717 14.03125,-8.79492 v -14.56055 c -1.86057,0.26321 -3.80543,0.13559 -5.71484,-0.47656 -6.76169,-2.16809 -10.48442,-9.40628 -8.31641,-16.16797 1.9406,-6.05241 7.94384,-9.65717 14.03125,-8.79492 v -14.56055 c -1.86057,0.26322 -3.80543,0.13559 -5.71484,-0.47656 -6.76169,-2.16809 -10.48442,-9.40628 -8.31641,-16.16797 1.9406,-6.05241 7.94384,-9.65717 14.03125,-8.79492 v -12.76563 c -6.99937,1.84988 -14.58875,1.79802 -21.99414,-0.57617 -16.67613,-5.34704 -27.29883,-20.7889 -27.29492,-37.41016 z m 126.34179,4.2793 h 6.34766 v 6.34766 h -6.34766 z m 0,12.70312 h 6.34766 v 6.35547 h -6.34766 z m 0,12.70508 h 6.34766 v 6.35547 h -6.34766 z m 0,12.71094 h 6.34766 v 6.34766 h -6.34766 z m 0,12.70508 h 6.34766 v 6.34765 h -6.34766 z m 0,12.70312 h 6.34766 v 6.35547 h -6.34766 z m 0,12.70508 h 6.34766 v 6.35547 h -6.34766 z m 0,12.71094 h 6.34766 v 6.34765 h -6.34766 z m 0,12.70508 h 6.34766 v 6.35546 h -6.34766 z m 0,12.70312 h 6.34766 v 6.35547 h -6.34766 z m 0,12.70508 h 6.34766 v 6.35547 h -6.34766 z m 0,12.71094 h 6.34766 v 6.34961 h -6.34766 z m 0,12.70508 h 6.34766 v 6.35546 h -6.34766 z m 0,12.70312 h 6.34766 v 6.35547 h -6.34766 z m 0,12.71289 h 6.34766 v 6.34766 h -6.34766 z m 0,12.70313 h 6.34766 v 6.3496 h -6.34766 z m 0,12.70507 h 6.34766 v 6.35547 h -6.34766 z m 0,12.70313 h 6.34766 v 6.35547 h -6.34766 z m 0,12.71289 h 6.34766 v 6.34766 h -6.34766 z m 0,12.70312 h 6.34766 v 6.35547 h -6.34766 z m 0,12.70508 h 6.34766 v 6.35547 h -6.34766 z m 0,12.70313 h 6.34766 v 6.35742 h -6.34766 z"
       transform="scale(0.26458333)" />
    <g
       id="barcode">
      <path
         id="rect6079"
         style="fill:#000000;fill-opacity:1;stroke:none;stroke-width:1.32292;stroke-miterlimit:4;stroke-dasharray:1.32292, 1.32292;stroke-dashoffset:0;stroke-opacity:1"
         d="m 31.75,137.58333 h 20.328826 c 0.232082,0 0.41892,0.18684 0.41892,0.41892 v 4.45382 c 0,0.23209 -0.186838,0.41892 -0.41892,0.41892 H 31.75 c -0.232082,0 -0.41892,-0.18683 -0.41892,-0.41892 v -4.45382 c 0,-0.23208 0.186838,-0.41892 0.41892,-0.41892 z" />
      <path
         id="rect6079-9"
         style="fill:#000000;fill-opacity:1;stroke:none;stroke-width:1.32292;stroke-miterlimit:4;stroke-dasharray:1.32292, 1.32292;stroke-dashoffset:0;stroke-opacity:1"
         d="M 31.750004,145.52083 H 52.07883 c 0.232082,0 0.41892,0.18684 0.41892,0.41892 v 4.45382 c 0,0.23209 -0.186838,0.41892 -0.41892,0.41892 H 31.750004 c -0.232082,0 -0.41892,-0.18683 -0.41892,-0.41892 v -4.45382 c 0,-0.23208 0.186838,-0.41892 0.41892,-0.41892 z" />
      <path
         id="rect6079-6"
         style="fill:#000000;fill-opacity:1;stroke:none;stroke-width:1.32292;stroke-miterlimit:4;stroke-dasharray:1.32292, 1.32292;stroke-dashoffset:0;stroke-opacity:1"
         d="m 31.75,153.45833 h 20.328826 c 0.232082,0 0.41892,0.18684 0.41892,0.41892 v 4.45382 c 0,0.23209 -0.186838,0.41892 -0.41892,0.41892 H 31.75 c -0.232082,0 -0.41892,-0.18683 -0.41892,-0.41892 v -4.45382 c 0,-0.23208 0.186838,-0.41892 0.41892,-0.41892 z" />
      <path
         id="rect6079-93"
         style="fill:#000000;fill-opacity:1;stroke:none;stroke-width:1.32292;stroke-miterlimit:4;stroke-dasharray:1.32292, 1.32292;stroke-dashoffset:0;stroke-opacity:1"
         d="m 31.75,161.39583 h 20.328826 c 0.232082,0 0.41892,0.18684 0.41892,0.41892 v 4.45382 c 0,0.23209 -0.186838,0.41892 -0.41892,0.41892 H 31.75 c -0.232082,0 -0.41892,-0.18683 -0.41892,-0.41892 v -4.45382 c 0,-0.23208 0.186838,-0.41892 0.41892,-0.41892 z" />
      <path
         id="rect6079-1"
         style="fill:#000000;fill-opacity:1;stroke:none;stroke-width:1.32292;stroke-miterlimit:4;stroke-dasharray:1.32292, 1.32292;stroke-dashoffset:0;stroke-opacity:1"
         d="m 31.75,169.33333 h 20.328826 c 0.232082,0 0.41892,0.18684 0.41892,0.41892 v 4.45382 c 0,0.23209 -0.186838,0.41892 -0.41892,0.41892 H 31.75 c -0.232082,0 -0.41892,-0.18683 -0.41892,-0.41892 v -4.45382 c 0,-0.23208 0.186838,-0.41892 0.41892,-0.41892 z" />
    </g>
    <text
       xml:space="preserve"
       style="font-style:normal;font-variant:normal;font-weight:300;font-stretch:normal;font-size:6.86243px;line-height:1.25;font-family:Roboto;-inkscape-font-specification:'Roboto, Light';font-variant-ligatures:normal;font-variant-caps:normal;font-variant-numeric:normal;font-variant-east-asian:normal;letter-spacing:0px;word-spacing:0px;fill:#ff0000;fill-opacity:1;stroke:none;stroke-width:0.171561"
       x="-173.54915"
       y="60.029045"
       id="tokenid"
       transform="rotate(-90)"><tspan
         sodipodi:role="line"
         id="tspan8264"
         x="-173.54915"
         y="60.029045"
         style="font-style:normal;font-variant:normal;font-weight:300;font-stretch:normal;font-size:6.86243px;font-family:Roboto;-inkscape-font-specification:'Roboto, Light';font-variant-ligatures:normal;font-variant-caps:normal;font-variant-numeric:normal;font-variant-east-asian:normal;fill:#ff0000;stroke-width:0.171561">123456789</tspan></text>
    <text
       xml:space="preserve"
       style="font-style:normal;font-variant:normal;font-weight:300;font-stretch:normal;font-size:3.175px;line-height:1.25;font-family:Roboto;-inkscape-font-specification:'Roboto, Light';font-variant-ligatures:normal;font-variant-caps:normal;font-variant-numeric:normal;font-variant-east-asian:normal;letter-spacing:0px;word-spacing:0px;fill:#000080;fill-opacity:1;stroke:none;stroke-width:0.171561"
       x="71.092758"
       y="188.26721"
       id="numbers"><tspan
         sodipodi:role="line"
         id="tspan8264-0"
         x="71.092758"
         y="188.26721"
         style="font-style:normal;font-variant:normal;font-weight:300;font-stretch:normal;font-size:3.175px;font-family:Roboto;-inkscape-font-specification:'Roboto, Light';font-variant-ligatures:normal;font-variant-caps:normal;font-variant-numeric:normal;font-variant-east-asian:normal;fill:#000080;stroke-width:0.171561">10-20-30-40-50-60</tspan></text>
    <g
       id="g859"
       style="opacity:0.995"
       transform="matrix(0.27839419,0,0,0.27839419,90.651172,113.01348)">
      <path
         style="color:#000000;font-style:normal;font-variant:normal;font-weight:normal;font-stretch:normal;font-size:medium;line-height:normal;font-family:sans-serif;font-variant-ligatures:normal;font-variant-position:normal;font-variant-caps:normal;font-variant-numeric:normal;font-variant-alternates:normal;font-variant-east-asian:normal;font-feature-settings:normal;font-variation-settings:normal;text-indent:0;text-align:start;text-decoration:none;text-decoration-line:none;text-decoration-style:solid;text-decoration-color:#000000;letter-spacing:normal;word-spacing:normal;text-transform:none;writing-mode:lr-tb;direction:ltr;text-orientation:mixed;dominant-baseline:auto;baseline-shift:baseline;text-anchor:start;white-space:normal;shape-padding:0;shape-margin:0;inline-size:0;clip-rule:nonzero;display:inline;overflow:visible;visibility:visible;opacity:1;isolation:auto;mix-blend-mode:normal;color-interpolation:sRGB;color-interpolation-filters:linearRGB;solid-color:#000000;solid-opacity:1;vector-effect:none;fill:#aa8800;fill-opacity:1;fill-rule:nonzero;stroke:none;stroke-width:4;stroke-linecap:butt;stroke-linejoin:miter;stroke-miterlimit:4;stroke-dasharray:none;stroke-dashoffset:0;stroke-opacity:1;color-rendering:auto;image-rendering:auto;shape-rendering:auto;text-rendering:auto;enable-background:accumulate;stop-color:#000000;stop-opacity:1"
         d="m 101.71807,235.05407 c -11.28835,-0.65696 -20.311196,-30.27231 -29.898378,-29.321 -9.587182,0.9513 -19.738699,32.46925 -26.869929,32.20398 -7.131231,-0.26528 -12.845792,-1.84505 -16.766295,-6.15175 -3.920503,-4.30669 -6.046948,-11.34031 -6.001946,-22.51326 0.0062,-1.54332 -0.21309,-62.16175 -0.122356,-63.72101 2.718172,-46.712714 42.522344,-93.335518 89.235084,-90.617751 46.71273,2.717773 82.64509,53.746961 79.92773,100.459711 -0.15063,2.58935 0.38578,50.04603 0.0108,52.56284 -1.59729,10.72181 -5.23271,17.93676 -10.47678,22.68807 -5.24408,4.75131 -12.09682,7.03898 -20.12876,7.90622 -8.03194,0.86725 -12.23763,-29.81133 -25.60032,-31.08504 -14.35118,-1.36792 -22.27507,28.23075 -33.30594,27.58916"
         id="path833" />
      <path
         style="fill:#ececec;stroke:none;stroke-width:4.99999;stroke-miterlimit:4;stroke-dasharray:none;stroke-opacity:1"
         id="path2752"
         d="m 50.4314,104.66832 c 1.714834,2.35193 3.592891,4.58051 5.525874,6.7561 1.367125,1.43831 2.834486,2.78207 4.348757,4.06367 1.77682,1.4141 3.671591,2.66992 5.512734,3.99925 2.214364,1.58072 4.591915,2.92051 7.087889,3.99906 3.496032,1.29031 7.270072,1.59809 10.958856,1.88265 5.512829,0.29241 11.038072,0.28735 16.5575,0.34653 3.83066,0.0658 7.66521,-0.0484 11.49406,0.0974 3.19611,0.14196 6.36831,0.5702 9.5605,0.78082 3.20518,0.18463 6.41275,0.29052 9.61886,0.10656 1.28314,-0.11054 2.77173,-0.18482 4.02342,-0.51653 1.53817,-0.40764 2.82732,-1.0476 4.19461,-1.84857 8.2694,-4.84436 5.97114,-3.18439 10.08648,-6.3355 2.35031,-1.58748 4.08379,-3.84441 6.03455,-5.85358 1.52823,-1.80052 3.24908,-3.40684 4.97529,-5.01178 1.53489,-1.44032 3.13891,-2.8307 4.44787,-4.48453 1.14272,-1.58651 1.60214,-3.510845 1.94713,-5.403262 0,0 -7.06436,3.431582 -7.06436,3.431582 v 0 c -0.36837,1.807 -0.89787,3.59902 -2.10927,5.03673 -1.39201,1.54526 -2.90149,2.97321 -4.43455,4.37746 -1.73136,1.61654 -3.41118,3.28067 -4.97119,5.06559 -1.84548,2.02292 -3.6716,4.08755 -5.93098,5.66955 -3.31746,2.46096 -1.63541,1.09291 2.9399,-1.26818 0.68304,-0.35248 -1.30834,0.81094 -1.99505,1.15621 -1.8942,0.95239 -3.84239,1.36773 -5.95619,1.42856 -3.16884,0.22421 -6.3476,0.0676 -9.51974,-0.057 -3.19402,-0.19705 -6.36755,-0.58988 -9.55923,-0.80369 -3.87982,-0.1682 -7.76787,0.0403 -11.65026,-0.0194 -5.49947,0.0166 -11.003982,0.0132 -16.495438,-0.32203 -3.589568,-0.28232 -7.248454,-0.57645 -10.665251,-1.78978 -2.48276,-0.98761 -4.832824,-2.28997 -7.020147,-3.82408 -1.808277,-1.32792 -3.623353,-2.64418 -5.401781,-4.01135 -1.518709,-1.23096 -2.947604,-2.57861 -4.369359,-3.91894 -1.938676,-2.10753 -3.843649,-4.28577 -5.359196,-6.72138 0,0 -6.812288,3.99179 -6.812288,3.99179 z" />
      <path
         style="fill:#ececec;stroke:none;stroke-width:4.99999;stroke-miterlimit:4;stroke-dasharray:none;stroke-opacity:1"
         id="path2754"
         d="m 87.814768,116.7537 c -0.868352,-2.58334 -1.109295,-5.30508 -1.312833,-8.00519 -0.05705,-2.99246 0.784836,-5.83569 1.918533,-8.56884 0.991904,-2.024279 1.990561,-4.042349 2.74891,-6.167627 0.839671,-1.697744 1.25391,-3.519705 1.498978,-5.38447 0.148175,-1.573072 0.123428,-3.154841 0.12805,-4.732917 -0.01915,-1.813374 -0.02759,-3.626926 -0.02492,-5.440402 0,0 -7.000529,3.568536 -7.000529,3.568536 v 0 c 0.0092,1.816563 0.01257,3.633245 0.0028,5.449803 0.0036,1.546458 0.0048,3.09834 -0.175844,4.636516 -0.260276,1.804045 -0.764374,3.53001 -1.508742,5.197734 -0.814348,2.0911 -1.847641,4.083067 -2.735429,6.143317 -1.078711,2.84161 -1.831096,5.79429 -1.714294,8.86156 0.21599,2.75496 0.495398,5.50861 1.204336,8.18807 0,0 6.970959,-3.74609 6.970959,-3.74609 z" />
      <path
         style="fill:#ececec;stroke:none;stroke-width:4.99999;stroke-miterlimit:4;stroke-dasharray:none;stroke-opacity:1"
         id="path2756"
         d="m 87.220929,116.33449 c -2.654302,0.18075 -5.253466,0.85159 -7.82466,1.50238 -4.36226,1.14663 -8.78749,2.00166 -13.232373,2.752 -3.744302,0.65647 -7.481086,1.34909 -11.144488,2.37245 -4.865267,1.79261 -9.299549,4.64006 -13.571868,7.5613 -1.876402,1.37571 -3.478993,3.03114 -5.089195,4.69323 -1.080151,1.26193 -2.346137,2.35415 -3.43295,3.60818 -1.339403,1.2176 -1.515359,1.91333 -0.893342,3.61213 0.82758,1.51532 1.994834,2.80535 2.943696,4.2397 0,0 6.795193,-3.97732 6.795193,-3.97732 v 0 c -0.907568,-1.37953 -2.055905,-2.6016 -2.822339,-4.07302 -0.430191,-1.45838 0.327017,-1.84729 1.249855,-2.85488 1.133321,-1.18751 2.288301,-2.35333 3.392339,-3.56876 1.569643,-1.65714 3.249162,-3.20391 5.117198,-4.5244 2.278845,-1.51469 6.939809,-4.08455 -3.521181,1.86285 -0.383305,0.21792 0.753869,-0.45787 1.138409,-0.6736 1.361342,-0.76372 1.071018,-0.59001 2.552991,-1.16527 3.659185,-1.16307 7.435432,-1.83509 11.204713,-2.5369 4.420012,-0.7491 8.826291,-1.5564 13.18066,-2.63217 2.478315,-0.64522 4.980861,-1.27885 7.534661,-1.53155 0,0 6.422681,-4.66635 6.422681,-4.66635 z" />
      <path
         style="fill:#ececec;stroke:none;stroke-width:4.99999;stroke-miterlimit:4;stroke-dasharray:none;stroke-opacity:1"
         id="path2758"
         d="m 131.89243,118.9419 c 0.43752,-4.21026 1.70083,-8.27102 3.00357,-12.27909 0.82184,-2.98328 2.27518,-5.75812 3.06449,-8.750042 0.1875,-0.710729 0.31826,-1.435227 0.47739,-2.152843 0.92802,-4.509688 0.99954,-9.136592 0.78246,-13.718672 -0.11737,-1.94051 -0.31387,-3.874857 -0.41468,-5.816373 -0.13291,-1.296019 0.36776,-2.478436 0.88349,-3.631673 0,0 -7.18836,3.306884 -7.18836,3.306884 v 0 c -0.50565,1.261277 -0.86155,2.578971 -0.70992,3.950933 0.1251,1.916594 0.42311,3.815821 0.58509,5.729346 0.32838,4.512072 0.21518,9.055036 -0.81554,13.481825 -0.18324,0.706691 -0.34267,1.419985 -0.54973,2.120075 -0.87265,2.95049 -2.23862,5.74188 -3.00544,8.72862 -1.27945,4.12321 -2.48144,8.28428 -3.19106,12.54914 0,0 7.07824,-3.51813 7.07824,-3.51813 z" />
      <path
         style="fill:#ececec;stroke:none;stroke-width:4.99999;stroke-miterlimit:4;stroke-dasharray:none;stroke-opacity:1"
         id="path2760"
         d="m 122.53714,125.36852 c 1.63786,1.96627 3.51691,3.72684 5.4364,5.41434 2.96996,2.20571 5.9127,4.45116 9.00893,6.47853 2.94922,1.88747 6.23851,3.13984 9.52678,4.29457 2.26566,0.92244 4.65867,1.47699 6.9622,2.28369 1.26236,0.44208 1.78195,0.71351 2.99179,1.26749 2.46672,1.13028 4.8652,2.40086 7.07948,3.97174 1.56913,1.15502 2.72081,2.70675 3.8741,4.24739 0.32603,0.53933 0.72603,1.00941 1.16486,1.45677 0,0 6.74674,-4.15832 6.74674,-4.15832 v 0 c -0.44672,-0.38934 -0.82586,-0.82123 -1.142,-1.32769 -1.24402,-1.56858 -2.42746,-3.19919 -4.05207,-4.41136 -2.26033,-1.60647 -4.70273,-2.8987 -7.2263,-4.04664 -0.95088,-0.44536 -2.06353,-0.99151 -3.05036,-1.35152 -2.3033,-0.8403 -4.75696,-1.24368 -7.0216,-2.20746 -3.22108,-1.14742 -6.41007,-2.44708 -9.35728,-4.19671 -3.11026,-1.93164 -6.02385,-4.14925 -8.91273,-6.39443 -1.86302,-1.67061 -3.79444,-3.33491 -5.23047,-5.40218 0,0 -6.79847,4.08179 -6.79847,4.08179 z" />
      <path
         id="path2764"
         style="fill:#ececec;stroke:none;stroke-width:4.6938;stroke-miterlimit:4;stroke-dasharray:none;stroke-opacity:1"
         d="m 97.182381,165.22086 a 16.009899,15.90556 0 0 1 -10.357118,-20.00232 16.009899,15.90556 0 0 1 20.133447,-10.2898 16.009899,15.90556 0 0 1 10.35747,20.00215 16.009899,15.90556 0 0 1 -20.133267,10.29014" />
      <path
         id="path2766"
         style="fill:#ececec;stroke:none;stroke-width:4.21772;stroke-miterlimit:4;stroke-dasharray:none;stroke-opacity:1"
         d="m 86.027414,175.53284 a 13.802708,12.58338 0 0 1 -8.929243,-15.82446 13.802708,12.58338 0 0 1 17.357767,-8.14057 13.802708,12.58338 0 0 1 8.929542,15.82431 13.802708,12.58338 0 0 1 -17.357607,8.14085" />
      <path
         id="path2766-9"
         style="opacity:0.995;fill:#ececec;stroke:none;stroke-width:4.24685;stroke-miterlimit:4;stroke-dasharray:none;stroke-opacity:1"
         d="m 107.74245,175.1648 a 13.898016,12.670268 0 0 1 -8.990895,-15.93373 13.898016,12.670268 0 0 1 17.477625,-8.19678 13.898016,12.670268 0 0 1 8.9912,15.93358 13.898016,12.670268 0 0 1 -17.47746,8.19706" />
    </g>
  </g>
</svg>
