<?xml version="1.0" encoding="UTF-8" standalone="no"?>
<svg
   xmlns:dc="http://purl.org/dc/elements/1.1/"
   xmlns:cc="http://creativecommons.org/ns#"
   xmlns:rdf="http://www.w3.org/1999/02/22-rdf-syntax-ns#"
   xmlns:svg="http://www.w3.org/2000/svg"
   xmlns="http://www.w3.org/2000/svg"
   xmlns:sodipodi="http://sodipodi.sourceforge.net/DTD/sodipodi-0.dtd"
   xmlns:inkscape="http://www.inkscape.org/namespaces/inkscape"
   version="1.1"
   x="0px"
   y="0px"
   viewBox="0 0 1000 1000"
   enable-background="new 0 0 1000 1000"
   xml:space="preserve"
   id="svg20"
   sodipodi:docname="1d2ab2ad6cf75a73c37729eb3adb901c.svg"
   inkscape:version="1.0.2-2 (e86c870879, 2021-01-15)"><defs
   id="defs24" /><sodipodi:namedview
   pagecolor="#ffffff"
   bordercolor="#666666"
   borderopacity="1"
   objecttolerance="10"
   gridtolerance="10"
   guidetolerance="10"
   inkscape:pageopacity="0"
   inkscape:pageshadow="2"
   inkscape:window-width="1920"
   inkscape:window-height="1017"
   id="namedview22"
   showgrid="false"
   inkscape:zoom="0.85"
   inkscape:cx="537.40585"
   inkscape:cy="473.63203"
   inkscape:window-x="1912"
   inkscape:window-y="-8"
   inkscape:window-maximized="1"
   inkscape:current-layer="svg20" />
<metadata
   id="metadata2"> Svg Vector Icons : http://www.onlinewebfonts.com/icon <rdf:RDF><cc:Work
     rdf:about=""><dc:format>image/svg+xml</dc:format><dc:type
       rdf:resource="http://purl.org/dc/dcmitype/StillImage" /></cc:Work></rdf:RDF></metadata>
<path
   d="M 273.66745,233.41661 C 217.67745,242.00661 109.33,56.63 93.12,111.15 c -2.95,9.82 -4.42,22.1 -4.17,37.82 0.25,26.77 5.65,46.66 19.4,69 8.84,14.73 36.59,42.48 44.94,45.18 2.95,0.74 5.16,2.46 5.16,3.68 0,1.47 -4.66,9.82 -10.31,18.91 -25.04,41.01 -45.18,94.05 -54.02,143.16 -7.12,39.54 -7.12,102.89 0,142.67 16.21,90.12 64.58,177.05 130.64,235 l 18.42,15.96 1.23,83.74 1.23,83.73 h 97 97 l 0.74,-41.25 0.49,-41.25 11.79,1.72 c 14.98,2.46 79.32,2.46 94.3,0 l 11.79,-1.72 0.49,41.25 0.74,41.25 h 97 97 l 1.23,-83.98 1.23,-83.98 18.17,-15.72 c 63.6,-55.25 111.73,-139.23 129.16,-225.67 19.64,-98.96 0.24,-209.95 -51.81,-293.2 -5.89,-9.82 -10.81,-18.66 -10.81,-19.89 0,-0.98 3.93,-4.17 8.84,-6.88 13.5,-7.37 38.06,-35.11 46.66,-52.8 C 922.93,153.86 912.86,92.47 870.87,50.48 828.64,8.25 767.98,-1.58 713.71,24.45 c -23.33,11.3 -48.87,37.08 -60.16,60.65 -4.91,10.07 -8.84,19.64 -8.84,21.36 0,5.89 -5.16,5.65 -25.05,-0.25 -78.58,-23.57 -161.09,-23.57 -239.66,0 -19.89,5.89 -25.05,6.14 -25.05,0.25 0,-1.72 -3.93,-11.3 -8.59,-21.12 C 330.65,52.68 294.3,22.97 259.19,14.37 245.62,11.2 283.73745,231.93661 273.66745,233.41661 Z M 264.77,56.14 c 19.16,8.84 39.29,28.73 48.62,47.39 6.63,13.51 10.8,36.1 12.03,63.11 0,0.74 9.82,-2.7 21.61,-7.86 26.03,-11.3 53.29,-19.89 81.53,-26.03 29.96,-6.63 112.47,-6.63 142.42,0 28.24,6.14 55.5,14.73 81.53,26.03 13.01,5.65 21.61,8.35 21.61,6.63 0.49,-21.86 5.65,-48.62 12.03,-61.88 9.33,-18.66 29.47,-38.31 48.62,-47.39 12.77,-5.89 17.19,-6.63 40.03,-6.63 22.84,0 27.26,0.74 40.03,6.63 19.4,9.08 39.29,28.73 48.87,48.13 6.38,12.77 8.1,19.4 8.84,35.85 2.7,49.36 -24.8,87.17 -73.91,102.64 -9.82,2.95 -18.17,5.65 -18.66,6.14 -0.49,0.24 7.12,11.29 16.94,24.56 40.76,55.25 62.37,106.33 72.44,171.4 5.65,35.85 3.93,99.94 -3.44,132.6 -20.38,88.16 -64.09,159.61 -130.15,212.41 l -19.89,15.96 v 72.93 73.18 h -58.93 -58.93 v -44.2 c 0,-36.34 -0.74,-44.2 -3.44,-44.2 -1.97,0 -16.45,2.21 -32.17,4.91 -38.55,6.63 -86.68,6.63 -125.23,0 -15.71,-2.7 -30.2,-4.91 -32.17,-4.91 -2.7,0 -3.44,7.86 -3.44,44.2 v 44.2 H 342.63 283.7 V 878.76 805.83 L 263.81,789.87 C 189.89,730.69 141.77,644.01 128.75,547.26 c -4.42,-33.64 -1.47,-96.51 6.14,-128.18 14,-59.18 32.17,-97.98 69.49,-148.07 8.84,-11.79 15.72,-21.86 15.23,-22.1 -0.49,-0.49 -8.84,-3.19 -18.17,-6.14 -31.68,-9.82 -52.3,-26.77 -65.81,-54.27 -7.37,-14.98 -7.86,-17.68 -7.86,-41.99 0,-22.84 0.74,-27.5 6.63,-39.78 11.54,-24.8 36.1,-46.66 61.63,-55.01 17.17,-5.65 51.55,-3.44 68.74,4.42 z"
   id="path4"
   style="stroke-width:0.1"
   sodipodi:nodetypes="cccccscccccccccccccccccccccccsccsccsccscccccccccccccsccccccccccccccssccssccccccccccccsccc" /><path
   d="m 365.94,267.81 c -24.8,10.8 -30.69,43.71 -11.29,63.11 27.5,27.75 72.68,2.95 65.57,-35.85 -4.43,-23.08 -32.18,-37.08 -54.28,-27.26 z"
   id="path6"
   style="stroke-width:20;stroke:#000000;stroke-opacity:1;fill:none;stroke-miterlimit:4;stroke-dasharray:none" /><path
   d="m 601.68,267.81 c -24.8,10.8 -30.7,43.71 -11.29,63.11 27.5,27.75 72.68,2.95 65.56,-35.85 -4.42,-23.08 -32.17,-37.08 -54.27,-27.26 z"
   id="path8"
   style="stroke-width:20;stroke-miterlimit:4;stroke-dasharray:none;stroke:#000000;stroke-opacity:1;fill:none" /><path
   d="m 473.99,404.59 c -42.24,6.38 -85.21,30.94 -110.5,63.11 -14,17.43 -29.47,48.13 -34.87,69.25 -5.4,21.36 -5.4,62.37 0.25,83.49 13.26,50.83 46.9,92.58 93.56,115.41 27.26,13.5 46.41,17.92 77.35,17.92 97.73,0.25 175.33,-77.35 175.08,-175.08 0,-30.94 -4.42,-50.09 -17.92,-77.35 -22.6,-45.92 -64.84,-80.54 -113.71,-93.07 -18.66,-4.91 -51.07,-6.63 -69.24,-3.68 z m 60.16,40.27 c 48.38,12.77 86.93,51.81 99.45,100.68 18.42,72.44 -27.01,148.07 -100.68,166.98 -71.95,18.42 -147.58,-26.76 -166.98,-99.45 -4.42,-15.96 -4.66,-46.17 -0.98,-64.34 10.07,-48.13 52.8,-92.33 101.17,-104.12 17.43,-4.17 51.81,-4.17 68.02,0.25 z"
   id="path10"
   style="stroke-width:0.1;stroke-miterlimit:4;stroke-dasharray:none" /><path
   d="m 439.09471,546.03349 c -12.28,37.63638 -3.68,103.71122 13.51,103.71122 4.67,0 9.82,-6.91408 13.51,-19.20926 3.93,-11.51304 6.14,-27.65632 6.14,-42.26662 0,-14.57901 -2.21,-30.7223 -6.14,-42.26662 -3.68,-12.29518 -8.84,-19.20926 -13.51,-19.20926 -4.67,0.0313 -9.83,6.94537 -13.51,19.24054 z"
   id="path12"
   style="stroke-width:0.176877" />
<path
   d="m 534.54457,544.82348 c -12.28,37.63638 -3.68,103.71122 13.51,103.71122 4.67,0 9.82,-6.91408 13.51,-19.20926 3.93,-11.51304 6.14,-27.65632 6.14,-42.26662 0,-14.57901 -2.21,-30.7223 -6.14,-42.26662 -3.68,-12.29518 -8.84,-19.20926 -13.51,-19.20926 -4.67,0.0313 -9.83,6.94537 -13.51,19.24054 z"
   id="path12-6"
   style="stroke-width:0.176877" /></svg>
