<?xml version="1.0" encoding="UTF-8" standalone="no"?>
<svg
   xmlns:dc="http://purl.org/dc/elements/1.1/"
   xmlns:cc="http://creativecommons.org/ns#"
   xmlns:rdf="http://www.w3.org/1999/02/22-rdf-syntax-ns#"
   xmlns:svg="http://www.w3.org/2000/svg"
   xmlns="http://www.w3.org/2000/svg"
   xmlns:sodipodi="http://sodipodi.sourceforge.net/DTD/sodipodi-0.dtd"
   xmlns:inkscape="http://www.inkscape.org/namespaces/inkscape"
   width="210mm"
   height="297mm"
   viewBox="0 0 210 297"
   version="1.1"
   id="svg8"
   inkscape:version="1.0.2-2 (e86c870879, 2021-01-15)"
   sodipodi:docname="lider.svg">
  <defs
     id="defs2" />
  <sodipodi:namedview
     id="base"
     pagecolor="#ffffff"
     bordercolor="#666666"
     borderopacity="1.0"
     inkscape:pageopacity="0.0"
     inkscape:pageshadow="2"
     inkscape:zoom="0.49497475"
     inkscape:cx="171.54297"
     inkscape:cy="535.81118"
     inkscape:document-units="mm"
     inkscape:current-layer="layer1"
     inkscape:document-rotation="0"
     showgrid="false"
     inkscape:window-width="1920"
     inkscape:window-height="1017"
     inkscape:window-x="-8"
     inkscape:window-y="-8"
     inkscape:window-maximized="1" />
  <metadata
     id="metadata5">
    <rdf:RDF>
      <cc:Work
         rdf:about="">
        <dc:format>image/svg+xml</dc:format>
        <dc:type
           rdf:resource="http://purl.org/dc/dcmitype/StillImage" />
        <dc:title />
      </cc:Work>
    </rdf:RDF>
  </metadata>
  <g
     inkscape:label="Layer 1"
     inkscape:groupmode="layer"
     id="layer1"
     style="opacity:0.995">
    <g
       id="g840">
      <path
         id="path833"
         style="fill:#000000;stroke-width:4"
         d="m 105.45985,236.65768 c -11.288356,-0.65696 -20.311202,-30.27231 -29.898384,-29.321 -9.587182,0.9513 -19.738699,32.46925 -26.869929,32.20398 -7.131231,-0.26528 -12.845792,-1.84505 -16.766295,-6.15175 -3.920503,-4.30669 -6.046948,-11.34031 -6.001946,-22.51326 0.0062,-1.54332 -0.21309,-62.16175 -0.122356,-63.72101 2.718172,-46.71271 42.522344,-93.335511 89.23508,-90.617744 46.71273,2.717773 82.64509,53.746954 79.92773,100.459704 -0.15063,2.58935 0.38578,50.04603 0.0108,52.56284 -1.59729,10.72181 -5.23271,17.93676 -10.47678,22.68807 -5.24408,4.75131 -12.09682,7.03898 -20.12876,7.90622 -8.03194,0.86725 -12.23763,-29.81133 -25.60032,-31.08504 -14.35118,-1.36792 -22.27507,28.23075 -33.30593,27.58916"
         sodipodi:nodetypes="cssssssssssac" />
      <rect
         style="fill:none;stroke:#575757;stroke-width:5;stroke-miterlimit:4;stroke-dasharray:none;stroke-opacity:1"
         id="rect2092"
         width="31.372025"
         height="17.3869"
         x="59.342262"
         y="113.39285"
         ry="0.41892007" />
      <rect
         style="opacity:0.995;fill:none;stroke:#575757;stroke-width:5;stroke-miterlimit:4;stroke-dasharray:none;stroke-opacity:1"
         id="rect2092-4"
         width="31.372025"
         height="17.3869"
         x="131.7247"
         y="113.39286"
         ry="0.41892007" />
      <rect
         style="fill:none;stroke:#5e5e5e;stroke-width:4.78741;stroke-miterlimit:4;stroke-dasharray:none;stroke-opacity:1"
         id="rect2116"
         width="26.139643"
         height="69.706467"
         x="98.116104"
         y="100.76193"
         ry="0.42020151" />
      <rect
         style="fill:none;stroke:#5e5e5e;stroke-width:4.99999;stroke-miterlimit:4;stroke-dasharray:none;stroke-opacity:1"
         id="rect2122"
         width="71.093689"
         height="16.570711"
         x="75.904541"
         y="178.00151"
         ry="0.41892007" />
    </g>
  </g>
</svg>
