<?xml version="1.0" encoding="iso-8859-1"?>
<!-- Generator: Adobe Illustrator 18.1.1, SVG Export Plug-In . SVG Version: 6.00 Build 0)  -->
<svg version="1.1" id="Capa_1" xmlns="http://www.w3.org/2000/svg" xmlns:xlink="http://www.w3.org/1999/xlink" x="0px" y="0px"
	 viewBox="0 0 31.999 31.999" style="enable-background:new 0 0 31.999 31.999;" xml:space="preserve">
<g>
	<path id="cloud" style="fill:#010002;" d="M25.913,12.642C25.476,8.08,21.677,4.5,16.999,4.5c-3.619,0-6.717,2.148-8.146,5.23
		C8.423,9.594,7.975,9.5,7.5,9.5C5.015,9.5,3,11.516,3,14c0,0.494,0.099,0.961,0.246,1.404C1.313,16.531,0,18.599,0,20.998
		c0,3.59,2.91,6.5,6.5,6.5V27.5h17.999v-0.002c4.143,0,7.5-3.357,7.5-7.5C31.999,16.341,29.378,13.305,25.913,12.642z
		 M24.499,25.497V25.5H6.5C4.019,25.497,2,23.479,2,20.998c0-1.6,0.843-3.045,2.254-3.867c1.371-0.787,1.465-0.943,0.89-2.357
		C5.047,14.483,5,14.23,5,14.001c0-1.379,1.121-2.5,2.5-2.5c0,0,0.656-0.047,1.353,0.23c1.147,0.457,1.272,0.02,1.814-1.159
		C11.814,8.099,14.299,6.5,16.999,6.5c3.6,0,6.576,2.723,6.924,6.334c0.123,1.432,0.123,1.432,1.615,1.773
		c2.586,0.494,4.461,2.762,4.461,5.391C29.999,23.031,27.532,25.497,24.499,25.497z"/>
</g>
<g>
</g>
<g>
</g>
<g>
</g>
<g>
</g>
<g>
</g>
<g>
</g>
<g>
</g>
<g>
</g>
<g>
</g>
<g>
</g>
<g>
</g>
<g>
</g>
<g>
</g>
<g>
</g>
<g>
</g>
</svg>
