<?xml version="1.0" encoding="UTF-8" standalone="no"?>
<svg
   xmlns:dc="http://purl.org/dc/elements/1.1/"
   xmlns:cc="http://creativecommons.org/ns#"
   xmlns:rdf="http://www.w3.org/1999/02/22-rdf-syntax-ns#"
   xmlns:svg="http://www.w3.org/2000/svg"
   xmlns="http://www.w3.org/2000/svg"
   xmlns:sodipodi="http://sodipodi.sourceforge.net/DTD/sodipodi-0.dtd"
   xmlns:inkscape="http://www.inkscape.org/namespaces/inkscape"
   version="1.1"
   id="Capa_1"
   x="0px"
   y="0px"
   viewBox="0 0 31.999 31.999"
   style="enable-background:new 0 0 31.999 31.999;"
   xml:space="preserve"
   sodipodi:docname="Linecons_small-cloud-blue.svg"
   inkscape:version="1.0.2-2 (e86c870879, 2021-01-15)"><metadata
   id="metadata40"><rdf:RDF><cc:Work
       rdf:about=""><dc:format>image/svg+xml</dc:format><dc:type
         rdf:resource="http://purl.org/dc/dcmitype/StillImage" /><dc:title /></cc:Work></rdf:RDF></metadata><defs
   id="defs38" /><sodipodi:namedview
   pagecolor="#ffffff"
   bordercolor="#666666"
   borderopacity="1"
   objecttolerance="10"
   gridtolerance="10"
   guidetolerance="10"
   inkscape:pageopacity="0"
   inkscape:pageshadow="2"
   inkscape:window-width="1920"
   inkscape:window-height="1017"
   id="namedview36"
   showgrid="false"
   inkscape:zoom="18.783111"
   inkscape:cx="22.485221"
   inkscape:cy="18.910554"
   inkscape:window-x="1912"
   inkscape:window-y="-8"
   inkscape:window-maximized="1"
   inkscape:current-layer="Capa_1"
   inkscape:document-rotation="0" />

<g
   id="g5">
</g>
<g
   id="g7">
</g>
<g
   id="g9">
</g>
<g
   id="g11">
</g>
<g
   id="g13">
</g>
<g
   id="g15">
</g>
<g
   id="g17">
</g>
<g
   id="g19">
</g>
<g
   id="g21">
</g>
<g
   id="g23">
</g>
<g
   id="g25">
</g>
<g
   id="g27">
</g>
<g
   id="g29">
</g>
<g
   id="g31">
</g>
<g
   id="g33">
</g>
<path
   style="fill:#000080;stroke-width:0.425934;opacity:0.13407821;fill-opacity:1"
   d="M 8.7495532,24.286095 C 7.6639204,24.161352 6.6415444,23.667297 5.8643662,22.891852 4.0957801,21.12721 3.9606974,18.311887 5.552876,16.399939 c 0.317998,-0.381865 0.8150958,-0.813747 1.1884924,-1.032572 0.101558,-0.05952 0.121828,-0.08442 0.107987,-0.13267 -0.132404,-0.461539 -0.14241,-0.53618 -0.140155,-1.045482 0.002,-0.454189 0.01,-0.535933 0.07617,-0.783061 0.4148,-1.548312 1.8094538,-2.590582 3.3703466,-2.51877 0.305555,0.01406 0.673624,0.07732 0.852455,0.14652 0.03737,0.01446 0.07754,-0.04132 0.196402,-0.272725 0.862391,-1.67891 2.456743,-2.9493768 4.288561,-3.4173575 0.616766,-0.1575675 0.937672,-0.1956208 1.652202,-0.1959192 0.712586,-2.976e-4 1.025231,0.036397 1.644216,0.1929815 0.927579,0.2346485 1.881958,0.7188102 2.603048,1.32054 0.520046,0.4339651 1.132699,1.1426609 1.45774,1.6862652 0.498814,0.834223 0.840649,1.818283 0.930663,2.679149 l 0.01986,0.189965 0.116479,0.02797 c 1.123961,0.269879 1.960335,0.718125 2.732903,1.464671 1.050356,1.014978 1.635845,2.321211 1.698941,3.790359 0.126446,2.944219 -2.099618,5.497572 -5.045733,5.787588 -0.376288,0.03704 -14.2309908,0.03581 -14.5539028,-0.0013 z m 14.7207958,-1.49719 c 0.402175,-0.08329 0.726108,-0.189613 1.048894,-0.344264 1.221586,-0.585276 2.04779,-1.664556 2.308105,-3.015105 0.06645,-0.344743 0.06638,-1.05719 -1.41e-4,-1.422775 -0.196124,-1.077863 -0.792258,-2.014123 -1.694672,-2.661576 -0.467998,-0.335773 -0.92576,-0.520438 -1.81443,-0.731955 -0.439523,-0.104613 -0.611174,-0.170206 -0.73086,-0.279283 -0.136624,-0.124514 -0.176818,-0.275197 -0.242437,-0.908874 -0.07773,-0.750587 -0.24413,-1.34287 -0.547078,-1.947213 -0.621733,-1.240272 -1.685278,-2.1668695 -2.982814,-2.5987283 -1.90177,-0.6329659 -3.958018,-0.1424144 -5.375574,1.2824313 -0.465658,0.468051 -0.758432,0.903764 -1.144529,1.703315 -0.263089,0.544818 -0.35987,0.677495 -0.54607,0.748606 -0.159949,0.06109 -0.294206,0.04361 -0.669992,-0.0872 -0.715163,-0.248947 -1.3297768,-0.242249 -1.8784168,0.02047 -0.3367,0.161228 -0.673778,0.497514 -0.841487,0.839509 -0.132753,0.27071 -0.1997358,0.54562 -0.2004538,0.822696 -6.53e-4,0.252293 0.03867,0.422634 0.1905638,0.82547 0.10103,0.267942 0.130113,0.384847 0.140179,0.563475 0.0123,0.218359 0.0098,0.229784 -0.08179,0.366259 -0.09446,0.140834 -0.2309148,0.240704 -0.9319398,0.682106 -0.784466,0.493938 -1.297817,1.235214 -1.5053212,2.173673 -0.064671,0.292484 -0.064125,1.005658 9.954e-4,1.299852 0.3238227,1.462912 1.4572268,2.516707 2.9052516,2.701191 0.111895,0.01426 3.2626898,0.02285 7.2829188,0.01986 6.474259,-0.0048 7.105153,-0.0093 7.311094,-0.05195 z"
   id="path865" /></svg>
