<?xml version="1.0" encoding="UTF-8" standalone="no"?>
<svg
   xmlns:dc="http://purl.org/dc/elements/1.1/"
   xmlns:cc="http://creativecommons.org/ns#"
   xmlns:rdf="http://www.w3.org/1999/02/22-rdf-syntax-ns#"
   xmlns:svg="http://www.w3.org/2000/svg"
   xmlns="http://www.w3.org/2000/svg"
   xmlns:sodipodi="http://sodipodi.sourceforge.net/DTD/sodipodi-0.dtd"
   xmlns:inkscape="http://www.inkscape.org/namespaces/inkscape"
   version="1.1"
   id="Capa_1"
   x="0px"
   y="0px"
   viewBox="0 0 31.999 31.999"
   style="enable-background:new 0 0 31.999 31.999;"
   xml:space="preserve"
   sodipodi:docname="Linecons_small-cloud-blue-v2.svg"
   inkscape:version="1.0.2-2 (e86c870879, 2021-01-15)"><metadata
   id="metadata40"><rdf:RDF><cc:Work
       rdf:about=""><dc:format>image/svg+xml</dc:format><dc:type
         rdf:resource="http://purl.org/dc/dcmitype/StillImage" /><dc:title></dc:title></cc:Work></rdf:RDF></metadata><defs
   id="defs38" /><sodipodi:namedview
   pagecolor="#ffffff"
   bordercolor="#666666"
   borderopacity="1"
   objecttolerance="10"
   gridtolerance="10"
   guidetolerance="10"
   inkscape:pageopacity="0"
   inkscape:pageshadow="2"
   inkscape:window-width="1920"
   inkscape:window-height="1017"
   id="namedview36"
   showgrid="false"
   inkscape:zoom="18.783111"
   inkscape:cx="22.485221"
   inkscape:cy="18.910554"
   inkscape:window-x="1912"
   inkscape:window-y="-8"
   inkscape:window-maximized="1"
   inkscape:current-layer="Capa_1"
   inkscape:document-rotation="0" />

<g
   id="g5">
</g>
<g
   id="g7">
</g>
<g
   id="g9">
</g>
<g
   id="g11">
</g>
<g
   id="g13">
</g>
<g
   id="g15">
</g>
<g
   id="g17">
</g>
<g
   id="g19">
</g>
<g
   id="g21">
</g>
<g
   id="g23">
</g>
<g
   id="g25">
</g>
<g
   id="g27">
</g>
<g
   id="g29">
</g>
<g
   id="g31">
</g>
<g
   id="g33">
</g>
<path
   style="opacity:0.06801008;fill:#000080;fill-opacity:1;stroke-width:0.151862"
   d="M 4.0084512,8.8394587 C 3.6213816,8.7949837 3.2568655,8.6188337 2.9797717,8.3423577 2.3492031,7.7131957 2.301041,6.7094257 2.8687135,6.0277427 c 0.1133785,-0.136149 0.2906129,-0.290132 0.423743,-0.368151 0.036209,-0.02122 0.043436,-0.0301 0.038501,-0.0473 C 3.2837505,5.4477331 3.2801835,5.4211208 3.2809875,5.2395351 3.2817006,5.0775994 3.2845575,5.0484545 3.3081455,4.9603439 3.4560376,4.4083115 3.953285,4.0367024 4.509803,4.0623061 c 0.108942,0.00501 0.2401727,0.027567 0.3039328,0.05224 0.013324,0.00516 0.027646,-0.014732 0.070025,-0.097237 0.3074746,-0.5985955 0.8759221,-1.0515655 1.5290353,-1.2184186 0.2199006,-0.056179 0.3343159,-0.069746 0.5890732,-0.069853 0.2540641,-1.061e-4 0.365534,0.012977 0.5862259,0.068805 0.3307173,0.083661 0.6709901,0.2562834 0.9280861,0.470823 0.185416,0.1547252 0.403851,0.4074024 0.51974,0.6012181 0.177846,0.2974324 0.299724,0.6482874 0.331817,0.9552191 l 0.0071,0.06773 0.04153,0.00997 c 0.400735,0.096222 0.6989347,0.2560391 0.9743847,0.5222113 0.374492,0.3618784 0.583241,0.8276004 0.605737,1.3514084 0.04508,1.049727 -0.748594,1.960095 -1.7989967,2.063496 -0.134161,0.01321 -5.0738923,0.01277 -5.1890228,-4.63e-4 z m 5.2485271,-0.533805 c 0.14339,-0.0297 0.258885,-0.0676 0.37397,-0.122743 0.4355427,-0.208674 0.7301157,-0.593478 0.8229277,-1.075001 0.02369,-0.122914 0.02367,-0.376928 -5e-5,-0.507273 -0.06993,-0.3843 -0.28247,-0.718112 -0.6042147,-0.948954 -0.16686,-0.119716 -0.330069,-0.1855561 -0.646914,-0.26097 -0.156707,-0.037299 -0.217907,-0.060685 -0.26058,-0.099575 C 8.8934063,5.2467436 8.8790753,5.1930194 8.8556793,4.9670893 8.8279663,4.6994763 8.7686383,4.4883048 8.6606253,4.2728334 8.4389533,3.830629 8.0597593,3.5002615 7.597138,3.3462873 6.9190843,3.1206108 6.1859532,3.2955112 5.6805403,3.8035231 5.5145154,3.9704012 5.4101303,4.1257496 5.2724719,4.4108201 5.1786706,4.6050685 5.1441645,4.652373 5.0777771,4.6777268 5.0207492,4.6995077 4.9728814,4.6932754 4.8388993,4.6466366 4.5839164,4.5578775 4.364783,4.5602656 4.1691719,4.653935 4.0491255,4.7114189 3.9289443,4.8313177 3.8691496,4.953252 c -0.047332,0.096518 -0.071213,0.1945344 -0.07147,0.2933226 -2.328e-4,0.089952 0.013787,0.1506852 0.067943,0.2943116 0.036021,0.095533 0.04639,0.1372125 0.049979,0.2009005 0.00439,0.07785 0.00349,0.08193 -0.029161,0.130585 -0.033679,0.05021 -0.08233,0.08582 -0.3322721,0.243197 -0.2796922,0.176108 -0.4627214,0.440401 -0.5367046,0.774998 -0.023058,0.104281 -0.022863,0.358555 3.549e-4,0.463447 0.1154552,0.521584 0.5195571,0.897302 1.0358333,0.963078 0.039895,0.0051 1.1632737,0.0081 2.5966391,0.0071 2.3083211,-0.0017 2.5332581,-0.0033 2.6066841,-0.01852 z"
   id="path865" /><path
   style="opacity:0.06801008;fill:#000080;fill-opacity:1;stroke-width:0.151862"
   d="m 17.557011,18.170103 c -0.387069,-0.04448 -0.751586,-0.220625 -1.028679,-0.497101 -0.630569,-0.629162 -0.678731,-1.632932 -0.111059,-2.314615 0.113379,-0.136149 0.290613,-0.290132 0.423744,-0.368151 0.03621,-0.02122 0.04344,-0.0301 0.0385,-0.0473 -0.04721,-0.164558 -0.05077,-0.191171 -0.04997,-0.372756 7.14e-4,-0.161936 0.0036,-0.191081 0.02716,-0.279192 0.147893,-0.552032 0.64514,-0.923641 1.201658,-0.898037 0.108942,0.005 0.240173,0.02757 0.303933,0.05224 0.01332,0.0052 0.02765,-0.01473 0.07003,-0.09724 0.307474,-0.598596 0.875922,-1.051566 1.529035,-1.218419 0.219901,-0.05618 0.334316,-0.06975 0.589073,-0.06985 0.254064,-1.06e-4 0.365534,0.01298 0.586226,0.0688 0.330717,0.08366 0.67099,0.256284 0.928086,0.470823 0.185416,0.154725 0.403851,0.407403 0.51974,0.601218 0.177846,0.297433 0.299724,0.648288 0.331817,0.955219 l 0.0071,0.06773 0.04153,0.01 c 0.400735,0.09622 0.698935,0.256039 0.974385,0.522212 0.374492,0.361878 0.583241,0.8276 0.605737,1.351408 0.04508,1.049727 -0.748594,1.960095 -1.798997,2.063496 -0.134161,0.01321 -5.073892,0.01277 -5.189023,-4.63e-4 z m 5.248527,-0.533805 c 0.14339,-0.0297 0.258885,-0.0676 0.37397,-0.122743 0.435543,-0.208674 0.730116,-0.593478 0.822928,-1.075001 0.02369,-0.122914 0.02367,-0.376928 -5e-5,-0.507273 -0.06993,-0.3843 -0.28247,-0.718112 -0.604215,-0.948954 -0.16686,-0.119716 -0.330069,-0.185556 -0.646914,-0.26097 -0.156707,-0.0373 -0.217907,-0.06068 -0.26058,-0.09957 -0.04871,-0.04439 -0.06304,-0.09812 -0.08644,-0.324048 -0.02771,-0.267613 -0.08704,-0.478785 -0.195054,-0.694256 -0.221672,-0.442204 -0.600866,-0.772572 -1.063487,-0.926546 -0.678054,-0.225677 -1.411185,-0.05078 -1.916598,0.457236 -0.166025,0.166878 -0.27041,0.322226 -0.408068,0.607297 -0.0938,0.194248 -0.128308,0.241553 -0.194695,0.266906 -0.05703,0.02178 -0.104896,0.01555 -0.238878,-0.03109 -0.254983,-0.08876 -0.474116,-0.08637 -0.669727,0.0073 -0.120047,0.05748 -0.240228,0.177382 -0.300022,0.299317 -0.04733,0.09652 -0.07121,0.194534 -0.07147,0.293322 -2.33e-4,0.08995 0.01379,0.150685 0.06794,0.294312 0.03602,0.09553 0.04639,0.137212 0.04998,0.2009 0.0044,0.07785 0.0035,0.08193 -0.02916,0.130585 -0.03368,0.05021 -0.08233,0.08582 -0.332272,0.243197 -0.279693,0.176108 -0.462722,0.440401 -0.536705,0.774998 -0.02306,0.104281 -0.02286,0.358555 3.55e-4,0.463447 0.115455,0.521584 0.519557,0.897302 1.035833,0.963078 0.03989,0.0051 1.163274,0.0081 2.596639,0.0071 2.308321,-0.0017 2.533258,-0.0033 2.606684,-0.01852 z"
   id="path865-7" /><path
   style="opacity:0.06801008;fill:#000080;fill-opacity:1;stroke-width:0.151862"
   d="M 6.9091483,25.091215 C 6.5220787,25.04674 6.1575626,24.87059 5.8804688,24.594114 5.2499002,23.964952 5.2017381,22.961182 5.7694106,22.279499 c 0.1133785,-0.136149 0.2906129,-0.290132 0.423743,-0.368151 0.036209,-0.02122 0.043436,-0.0301 0.038501,-0.0473 -0.047207,-0.164559 -0.050774,-0.191171 -0.04997,-0.372757 7.131e-4,-0.161936 0.00357,-0.191081 0.027158,-0.279191 0.1478921,-0.552033 0.6451395,-0.923642 1.2016575,-0.898038 0.108942,0.005 0.2401727,0.02757 0.3039328,0.05224 0.013324,0.0052 0.027646,-0.01473 0.070025,-0.09724 C 8.0919325,19.67047 8.66038,19.2175 9.3134932,19.050646 c 0.2199006,-0.05618 0.3343159,-0.06975 0.5890732,-0.06985 0.2540646,-1.06e-4 0.3655336,0.01298 0.5862256,0.06881 0.330718,0.08366 0.67099,0.256283 0.928086,0.470822 0.185416,0.154726 0.403851,0.407403 0.51974,0.601219 0.177846,0.297432 0.299724,0.648287 0.331817,0.955219 l 0.0071,0.06773 0.04153,0.01 c 0.400735,0.09622 0.698935,0.256039 0.974385,0.522211 0.374492,0.361878 0.583241,0.8276 0.605737,1.351408 0.04508,1.049727 -0.748594,1.960095 -1.798997,2.063496 -0.134161,0.01321 -5.0738919,0.01277 -5.1890224,-4.63e-4 z M 12.157675,24.55741 c 0.14339,-0.0297 0.258885,-0.0676 0.37397,-0.122743 0.435543,-0.208674 0.730116,-0.593478 0.822928,-1.075001 0.02369,-0.122914 0.02367,-0.376928 -5e-5,-0.507273 -0.06993,-0.3843 -0.28247,-0.718112 -0.604215,-0.948954 -0.16686,-0.119716 -0.330069,-0.185556 -0.646914,-0.26097 -0.156707,-0.0373 -0.217907,-0.06068 -0.26058,-0.09957 -0.04871,-0.04439 -0.06304,-0.09812 -0.08644,-0.324049 -0.02771,-0.267613 -0.08704,-0.478784 -0.195054,-0.694256 -0.221672,-0.442204 -0.600866,-0.772572 -1.063487,-0.926546 -0.6780536,-0.225676 -1.4111847,-0.05078 -1.9165976,0.457236 -0.1660249,0.166878 -0.27041,0.322227 -0.4080684,0.607297 -0.093801,0.194249 -0.1283074,0.241553 -0.1946948,0.266907 -0.057028,0.02178 -0.1048957,0.01555 -0.2388778,-0.03109 -0.2549829,-0.08876 -0.4741163,-0.08637 -0.6697274,0.0073 -0.1200464,0.05748 -0.2402276,0.177383 -0.3000223,0.299317 -0.047332,0.09652 -0.071213,0.194534 -0.07147,0.293323 -2.328e-4,0.08995 0.013787,0.150685 0.067943,0.294311 0.036021,0.09553 0.04639,0.137213 0.049979,0.200901 0.00439,0.07785 0.00349,0.08193 -0.029161,0.130585 -0.033679,0.05021 -0.08233,0.08582 -0.3322721,0.243197 -0.2796922,0.176108 -0.4627214,0.440401 -0.5367046,0.774998 -0.023058,0.104281 -0.022863,0.358555 3.549e-4,0.463447 0.1154552,0.521584 0.5195571,0.897302 1.0358333,0.963078 0.039895,0.0051 1.1632737,0.0081 2.5966391,0.0071 2.3083207,-0.0017 2.5332577,-0.0033 2.6066837,-0.01852 z"
   id="path865-2" /><path
   style="opacity:0.06801008;fill:#000080;fill-opacity:1;stroke-width:0.151862"
   d="m 23.89249,30.628104 c -0.387069,-0.04448 -0.751585,-0.220625 -1.028679,-0.497101 -0.630569,-0.629162 -0.678731,-1.632932 -0.111058,-2.314615 0.113378,-0.136149 0.290613,-0.290132 0.423743,-0.368151 0.03621,-0.02122 0.04344,-0.0301 0.0385,-0.0473 -0.04721,-0.164559 -0.05077,-0.191171 -0.04997,-0.372757 7.13e-4,-0.161936 0.0036,-0.191081 0.02716,-0.279191 0.147892,-0.552033 0.645139,-0.923642 1.201657,-0.898038 0.108942,0.005 0.240173,0.02757 0.303933,0.05224 0.01332,0.0052 0.02765,-0.01473 0.07003,-0.09724 0.307475,-0.598595 0.875922,-1.051565 1.529035,-1.218419 0.219901,-0.05618 0.334316,-0.06975 0.589073,-0.06985 0.254064,-1.06e-4 0.365534,0.01298 0.586226,0.06881 0.330717,0.08366 0.67099,0.256284 0.928086,0.470823 0.185416,0.154726 0.403851,0.407403 0.51974,0.601219 0.177846,0.297432 0.299724,0.648287 0.331817,0.955219 l 0.0071,0.06773 0.04153,0.01 c 0.400735,0.09622 0.698935,0.256039 0.974385,0.522211 0.374492,0.361878 0.583241,0.8276 0.605737,1.351408 0.04508,1.049727 -0.748594,1.960095 -1.798997,2.063496 -0.134161,0.01321 -5.073892,0.01277 -5.189022,-4.63e-4 z m 5.248527,-0.533805 c 0.14339,-0.0297 0.258885,-0.0676 0.37397,-0.122743 0.435543,-0.208674 0.730116,-0.593478 0.822928,-1.075001 0.02369,-0.122914 0.02367,-0.376928 -5e-5,-0.507273 -0.06993,-0.3843 -0.28247,-0.718112 -0.604215,-0.948954 -0.16686,-0.119716 -0.330069,-0.185556 -0.646914,-0.26097 -0.156707,-0.0373 -0.217907,-0.06068 -0.26058,-0.09958 -0.04871,-0.04439 -0.06304,-0.09812 -0.08644,-0.324049 -0.02771,-0.267613 -0.08704,-0.478784 -0.195054,-0.694256 -0.221672,-0.442204 -0.600866,-0.772572 -1.063487,-0.926546 -0.678054,-0.225676 -1.411185,-0.05078 -1.916598,0.457236 -0.166024,0.166878 -0.27041,0.322227 -0.408068,0.607297 -0.0938,0.194248 -0.128307,0.241553 -0.194695,0.266907 -0.05703,0.02178 -0.104895,0.01555 -0.238878,-0.03109 -0.254982,-0.08876 -0.474116,-0.08637 -0.669727,0.0073 -0.120046,0.05748 -0.240228,0.177383 -0.300022,0.299317 -0.04733,0.09652 -0.07121,0.194534 -0.07147,0.293323 -2.33e-4,0.08995 0.01379,0.150685 0.06794,0.294311 0.03602,0.09553 0.04639,0.137213 0.04998,0.200901 0.0044,0.07785 0.0035,0.08193 -0.02916,0.130585 -0.03368,0.05021 -0.08233,0.08582 -0.332272,0.243197 -0.279693,0.176108 -0.462722,0.440401 -0.536705,0.774998 -0.02306,0.104281 -0.02286,0.358555 3.55e-4,0.463447 0.115455,0.521584 0.519557,0.897302 1.035833,0.963078 0.0399,0.0051 1.163274,0.0081 2.596639,0.0071 2.308321,-0.0017 2.533258,-0.0033 2.606684,-0.01852 z"
   id="path865-1" /></svg>
