<?xml version="1.0" encoding="UTF-8" standalone="no"?>
<svg
   xmlns:dc="http://purl.org/dc/elements/1.1/"
   xmlns:cc="http://creativecommons.org/ns#"
   xmlns:rdf="http://www.w3.org/1999/02/22-rdf-syntax-ns#"
   xmlns:svg="http://www.w3.org/2000/svg"
   xmlns="http://www.w3.org/2000/svg"
   xmlns:sodipodi="http://sodipodi.sourceforge.net/DTD/sodipodi-0.dtd"
   xmlns:inkscape="http://www.inkscape.org/namespaces/inkscape"
   width="210mm"
   height="297mm"
   viewBox="0 0 210 297"
   version="1.1"
   id="svg2824"
   inkscape:version="1.0.2-2 (e86c870879, 2021-01-15)"
   sodipodi:docname="player.svg">
  <defs
     id="defs2818" />
  <sodipodi:namedview
     id="base"
     pagecolor="#ffffff"
     bordercolor="#666666"
     borderopacity="1.0"
     inkscape:pageopacity="0.0"
     inkscape:pageshadow="2"
     inkscape:zoom="0.7"
     inkscape:cx="411.24892"
     inkscape:cy="525.56947"
     inkscape:document-units="mm"
     inkscape:current-layer="layer1"
     inkscape:document-rotation="0"
     showgrid="false"
     inkscape:window-width="1346"
     inkscape:window-height="1040"
     inkscape:window-x="2235"
     inkscape:window-y="86"
     inkscape:window-maximized="0" />
  <metadata
     id="metadata2821">
    <rdf:RDF>
      <cc:Work
         rdf:about="">
        <dc:format>image/svg+xml</dc:format>
        <dc:type
           rdf:resource="http://purl.org/dc/dcmitype/StillImage" />
        <dc:title />
      </cc:Work>
    </rdf:RDF>
  </metadata>
  <g
     inkscape:label="Layer 1"
     inkscape:groupmode="layer"
     id="layer1">
    <g
       id="g838">
      <path
         style="color:#000000;font-style:normal;font-variant:normal;font-weight:normal;font-stretch:normal;font-size:medium;line-height:normal;font-family:sans-serif;font-variant-ligatures:normal;font-variant-position:normal;font-variant-caps:normal;font-variant-numeric:normal;font-variant-alternates:normal;font-variant-east-asian:normal;font-feature-settings:normal;font-variation-settings:normal;text-indent:0;text-align:start;text-decoration:none;text-decoration-line:none;text-decoration-style:solid;text-decoration-color:#000000;letter-spacing:normal;word-spacing:normal;text-transform:none;writing-mode:lr-tb;direction:ltr;text-orientation:mixed;dominant-baseline:auto;baseline-shift:baseline;text-anchor:start;white-space:normal;shape-padding:0;shape-margin:0;inline-size:0;clip-rule:nonzero;display:inline;overflow:visible;visibility:visible;isolation:auto;mix-blend-mode:normal;color-interpolation:sRGB;color-interpolation-filters:linearRGB;solid-color:#000000;solid-opacity:1;vector-effect:none;fill:#008000;fill-opacity:1;fill-rule:nonzero;stroke-width:4.99999;stroke-linecap:butt;stroke-linejoin:miter;stroke-miterlimit:4;stroke-dasharray:none;stroke-dashoffset:0;stroke-opacity:1;color-rendering:auto;image-rendering:auto;shape-rendering:auto;text-rendering:auto;enable-background:accumulate;stop-color:#000000;stop-opacity:1;stroke:none;opacity:1"
         d="M 113.86902,55.940771 C 81.278454,56.061939 52.473528,77.15776 42.522986,108.19236 c -12.683238,39.55742 9.102293,81.90689 48.65956,94.59061 l 0.0026,0.001 c 29.897094,9.58501 62.602804,-0.40784 82.037414,-25.06559 -28.52044,-16.33766 -80.256937,-46.65856 -80.227203,-47.26536 0.02962,-0.60439 54.086103,-26.38169 84.164883,-40.370148 -9.44106,-14.483469 -23.58335,-25.27245 -40.04665,-30.551107 -7.51194,-2.40851 -15.35601,-3.62032 -23.24457,-3.590994 z"
         id="path3387" />
      <path
         style="color:#000000;font-style:normal;font-variant:normal;font-weight:normal;font-stretch:normal;font-size:medium;line-height:normal;font-family:sans-serif;font-variant-ligatures:normal;font-variant-position:normal;font-variant-caps:normal;font-variant-numeric:normal;font-variant-alternates:normal;font-variant-east-asian:normal;font-feature-settings:normal;font-variation-settings:normal;text-indent:0;text-align:start;text-decoration:none;text-decoration-line:none;text-decoration-style:solid;text-decoration-color:#000000;letter-spacing:normal;word-spacing:normal;text-transform:none;writing-mode:lr-tb;direction:ltr;text-orientation:mixed;dominant-baseline:auto;baseline-shift:baseline;text-anchor:start;white-space:normal;shape-padding:0;shape-margin:0;inline-size:0;clip-rule:nonzero;display:inline;overflow:visible;visibility:visible;isolation:auto;mix-blend-mode:normal;color-interpolation:sRGB;color-interpolation-filters:linearRGB;solid-color:#000000;solid-opacity:1;vector-effect:none;fill:#ffffff;fill-opacity:1;fill-rule:nonzero;stroke-width:4.99999;stroke-linecap:butt;stroke-linejoin:miter;stroke-miterlimit:4;stroke-dasharray:none;stroke-dashoffset:0;stroke-opacity:1;color-rendering:auto;image-rendering:auto;shape-rendering:auto;text-rendering:auto;enable-background:accumulate;stop-color:#000000;stop-opacity:1;stroke:none;opacity:1"
         d="m 90.832767,103.6897 c -6.957326,-2.23081 -10.788953,-9.679233 -8.558207,-16.636578 2.230746,-6.957344 9.679138,-10.789037 16.636502,-8.558352 6.957368,2.230685 10.789118,9.679044 8.558498,16.636428 -2.23062,6.957382 -9.67895,10.789202 -16.636353,8.558642"
         id="path3394" />
      <path
         style="color:#000000;font-style:normal;font-variant:normal;font-weight:normal;font-stretch:normal;font-size:medium;line-height:normal;font-family:sans-serif;font-variant-ligatures:normal;font-variant-position:normal;font-variant-caps:normal;font-variant-numeric:normal;font-variant-alternates:normal;font-variant-east-asian:normal;font-feature-settings:normal;font-variation-settings:normal;text-indent:0;text-align:start;text-decoration:none;text-decoration-line:none;text-decoration-style:solid;text-decoration-color:#000000;letter-spacing:normal;word-spacing:normal;text-transform:none;writing-mode:lr-tb;direction:ltr;text-orientation:mixed;dominant-baseline:auto;baseline-shift:baseline;text-anchor:start;white-space:normal;shape-padding:0;shape-margin:0;inline-size:0;clip-rule:nonzero;display:inline;overflow:visible;visibility:visible;isolation:auto;mix-blend-mode:normal;color-interpolation:sRGB;color-interpolation-filters:linearRGB;solid-color:#000000;solid-opacity:1;vector-effect:none;fill:#ffffff;fill-opacity:1;fill-rule:nonzero;stroke-width:4.99999;stroke-linecap:butt;stroke-linejoin:miter;stroke-miterlimit:4;stroke-dasharray:none;stroke-dashoffset:0;stroke-opacity:1;color-rendering:auto;image-rendering:auto;shape-rendering:auto;text-rendering:auto;enable-background:accumulate;stop-color:#000000;stop-opacity:1;stroke:none;opacity:1"
         d="m 53.68447,147.9832 c 2.306119,2.80438 4.905219,5.32756 7.678031,7.66238 2.668596,2.34998 5.810621,4.00104 8.911177,5.69333 3.690218,1.83438 7.335748,3.74557 10.837516,5.91948 2.718284,1.73156 5.299485,3.65846 7.830754,5.64942 2.026108,1.60511 4.014351,3.25853 5.904169,5.02273 1.548802,1.4324 3.041938,2.92521 4.504285,4.44554 1.018578,1.13255 2.265208,1.99255 3.549538,2.79235 2.55556,1.40208 5.1152,2.79505 7.65074,4.23325 2.17338,1.21481 4.1865,2.70792 6.36616,3.90838 1.46471,0.76055 3.09739,1.07512 4.67321,1.51823 1.36611,0.37515 2.74358,0.72149 4.07468,1.21105 0.64463,0.20791 1.16713,0.58872 1.6302,1.07121 0.24827,0.33578 0.11786,0.16459 0.39217,0.51283 l 4.81662,-2.87914 v 0 c -0.27715,-0.33991 -0.13822,-0.15824 -0.41372,-0.54736 -0.49771,-0.55343 -1.06726,-1.03693 -1.78608,-1.27469 -1.3472,-0.53792 -2.79395,-0.79261 -4.18351,-1.19578 -1.53384,-0.44887 -3.11105,-0.79693 -4.57365,-1.45398 -2.25861,-1.08919 -4.33279,-2.54583 -6.50558,-3.7899 -2.49779,-1.43647 -5.00997,-2.84892 -7.48928,-4.31667 -1.25706,-0.76373 -2.47343,-1.59687 -3.49938,-2.66037 -1.48173,-1.52449 -3.00867,-3.0099 -4.589657,-4.43075 -1.922698,-1.74204 -3.85727,-3.48405 -5.89734,-5.08658 -2.615705,-1.92864 -5.251278,-3.83071 -7.963479,-5.62245 -3.495786,-2.22125 -7.230129,-4.01162 -10.905239,-5.91301 -3.056509,-1.68473 -6.074661,-3.44191 -8.791551,-5.64969 -2.76911,-2.25711 -5.402109,-4.69477 -7.47005,-7.63223 z"
         id="path3398" />
      <path
         style="color:#000000;font-style:normal;font-variant:normal;font-weight:normal;font-stretch:normal;font-size:medium;line-height:normal;font-family:sans-serif;font-variant-ligatures:normal;font-variant-position:normal;font-variant-caps:normal;font-variant-numeric:normal;font-variant-alternates:normal;font-variant-east-asian:normal;font-feature-settings:normal;font-variation-settings:normal;text-indent:0;text-align:start;text-decoration:none;text-decoration-line:none;text-decoration-style:solid;text-decoration-color:#000000;letter-spacing:normal;word-spacing:normal;text-transform:none;writing-mode:lr-tb;direction:ltr;text-orientation:mixed;dominant-baseline:auto;baseline-shift:baseline;text-anchor:start;white-space:normal;shape-padding:0;shape-margin:0;inline-size:0;clip-rule:nonzero;display:inline;overflow:visible;visibility:visible;isolation:auto;mix-blend-mode:normal;color-interpolation:sRGB;color-interpolation-filters:linearRGB;solid-color:#000000;solid-opacity:1;vector-effect:none;fill:#ffffff;fill-opacity:1;fill-rule:nonzero;stroke-width:4.99999;stroke-linecap:butt;stroke-linejoin:miter;stroke-miterlimit:4;stroke-dasharray:none;stroke-dashoffset:0;stroke-opacity:1;color-rendering:auto;image-rendering:auto;shape-rendering:auto;text-rendering:auto;enable-background:accumulate;stop-color:#000000;stop-opacity:1;stroke:none;opacity:1"
         d="m 62.834346,138.91976 c 1.561549,1.63521 3.501506,2.85647 5.33949,4.15397 2.382194,1.79877 4.791392,3.56055 7.184898,5.3442 1.465773,1.04662 2.867149,2.2051 4.528375,2.93007 0.935337,0.34076 1.931543,0.31006 2.885051,0.56817 1.51148,0.56653 2.891232,1.42144 4.295114,2.20668 0.878879,0.46796 1.720313,0.99789 2.567445,1.51976 1.472814,0.79131 2.831663,1.73136 4.136043,2.77228 1.466345,1.25454 2.796223,2.65988 4.054613,4.12027 0.859345,1.04185 1.74735,2.06142 2.570385,3.13238 0.8334,1.10636 1.86163,2.03001 2.89377,2.9435 1.25343,1.25971 2.58051,2.42182 3.99354,3.49635 1.65851,1.18127 3.2645,2.43623 4.96655,3.55452 1.14681,0.7601 2.31168,1.49369 3.44708,2.27076 0.79932,0.625 1.78642,0.85801 2.71726,1.21017 1.3597,0.56013 2.69241,1.18299 4.04288,1.76555 1.13099,0.42788 2.2727,0.80702 3.44182,1.11496 1.04687,0.31214 2.13113,0.45168 3.19483,0.68735 0.85317,0.23405 1.56808,0.78227 2.37043,1.14761 0.77743,0.29633 1.52282,0.68708 2.18764,1.18825 0.59631,0.52111 1.12054,1.12026 1.75101,1.6011 0.10738,0.0625 0.21477,0.12494 0.32215,0.18741 l 4.68867,-3.07998 v 0 c -0.0935,-0.0398 -0.18695,-0.0797 -0.28042,-0.11951 -0.66213,-0.4221 -1.16199,-1.04604 -1.74127,-1.56949 -0.67119,-0.5548 -1.45538,-0.99803 -2.27227,-1.29753 -0.39798,-0.1779 -0.79317,-0.34474 -1.1679,-0.56936 -0.0623,-0.0374 -0.78424,-0.50062 -0.8316,-0.52366 -0.13756,-0.0669 -0.289,-0.10031 -0.4335,-0.15046 -1.06773,-0.23887 -2.15343,-0.36554 -3.213,-0.64577 -1.14633,-0.31283 -2.27017,-0.6606 -3.3884,-1.06286 -1.37003,-0.54663 -2.71725,-1.14392 -4.05868,-1.75698 -0.87423,-0.38902 -1.82369,-0.60061 -2.62792,-1.13023 -1.14927,-0.78142 -2.35767,-1.47434 -3.51913,-2.23784 -1.69625,-1.10112 -3.32394,-2.29833 -4.9278,-3.53012 -1.39262,-1.0745 -2.77185,-2.16389 -3.97623,-3.45475 -0.98791,-0.90952 -1.96294,-1.83527 -2.81528,-2.87657 -0.83912,-1.0735 -1.69483,-2.13639 -2.59361,-3.16047 -1.31785,-1.45148 -2.693464,-2.8504 -4.138867,-4.17576 -1.296079,-1.06494 -2.647272,-2.02867 -4.094792,-2.87954 -0.856988,-0.54045 -1.721728,-1.06222 -2.624992,-1.52263 -1.449292,-0.76095 -2.853661,-1.60803 -4.333314,-2.31021 -0.116308,-0.0413 -0.836528,-0.30628 -1.001143,-0.3342 -0.608084,-0.10313 -1.264886,0.0287 -1.85913,-0.20383 -1.700064,-0.58797 -3.113418,-1.71771 -4.582342,-2.72514 -2.424748,-1.74485 -4.815176,-3.52789 -7.163684,-5.37338 -1.798965,-1.23264 -3.71989,-2.41897 -5.126529,-4.11131 z"
         id="path3400" />
    </g>
  </g>
</svg>
