<?xml version="1.0" encoding="UTF-8" standalone="no"?>
<svg
   xmlns:dc="http://purl.org/dc/elements/1.1/"
   xmlns:cc="http://creativecommons.org/ns#"
   xmlns:rdf="http://www.w3.org/1999/02/22-rdf-syntax-ns#"
   xmlns:svg="http://www.w3.org/2000/svg"
   xmlns="http://www.w3.org/2000/svg"
   xmlns:sodipodi="http://sodipodi.sourceforge.net/DTD/sodipodi-0.dtd"
   xmlns:inkscape="http://www.inkscape.org/namespaces/inkscape"
   width="205.00124mm"
   height="101.79687mm"
   viewBox="0 0 205.00124 101.79687"
   version="1.1"
   id="svg5218"
   inkscape:version="1.0.2-2 (e86c870879, 2021-01-15)"
   sodipodi:docname="ticket-player-example.svg">
  <defs
     id="defs5212">
    <rect
       x="52.916668"
       y="232.83333"
       width="111.125"
       height="26.458332"
       id="rect6240" />
    <rect
       x="47.625"
       y="238.125"
       width="127"
       height="37.041668"
       id="rect6230" />
  </defs>
  <sodipodi:namedview
     id="base"
     pagecolor="#ffffff"
     bordercolor="#666666"
     borderopacity="1.0"
     inkscape:pageopacity="0.0"
     inkscape:pageshadow="2"
     inkscape:zoom="0.65810357"
     inkscape:cx="354.68555"
     inkscape:cy="222.51189"
     inkscape:document-units="mm"
     inkscape:current-layer="layer1"
     inkscape:document-rotation="0"
     showgrid="true"
     inkscape:window-width="1920"
     inkscape:window-height="1017"
     inkscape:window-x="1912"
     inkscape:window-y="-8"
     inkscape:window-maximized="1"
     showguides="false"
     fit-margin-top="0"
     fit-margin-left="0"
     fit-margin-right="0"
     fit-margin-bottom="0">
    <inkscape:grid
       type="xygrid"
       id="grid5877"
       originx="0.64382029"
       originy="-105.20508" />
  </sodipodi:namedview>
  <metadata
     id="metadata5215">
    <rdf:RDF>
      <cc:Work
         rdf:about="">
        <dc:format>image/svg+xml</dc:format>
        <dc:type
           rdf:resource="http://purl.org/dc/dcmitype/StillImage" />
        <dc:title></dc:title>
      </cc:Work>
    </rdf:RDF>
  </metadata>
  <g
     inkscape:label="Layer 1"
     inkscape:groupmode="layer"
     id="layer1"
     transform="translate(0.64382026,-105.20508)">
    <g
       id="rect6062"
       style="opacity:1">
      <path
         style="color:#000000;font-style:normal;font-variant:normal;font-weight:normal;font-stretch:normal;font-size:medium;line-height:normal;font-family:sans-serif;font-variant-ligatures:normal;font-variant-position:normal;font-variant-caps:normal;font-variant-numeric:normal;font-variant-alternates:normal;font-variant-east-asian:normal;font-feature-settings:normal;font-variation-settings:normal;text-indent:0;text-align:start;text-decoration:none;text-decoration-line:none;text-decoration-style:solid;text-decoration-color:#000000;letter-spacing:normal;word-spacing:normal;text-transform:none;writing-mode:lr-tb;direction:ltr;text-orientation:mixed;dominant-baseline:auto;baseline-shift:baseline;text-anchor:start;white-space:normal;shape-padding:0;shape-margin:0;inline-size:0;clip-rule:nonzero;display:inline;overflow:visible;visibility:visible;isolation:auto;mix-blend-mode:normal;color-interpolation:sRGB;color-interpolation-filters:linearRGB;solid-color:#000000;solid-opacity:1;vector-effect:none;fill:#000000;fill-opacity:1;fill-rule:nonzero;stroke:none;stroke-width:1.25563;stroke-linecap:butt;stroke-linejoin:miter;stroke-miterlimit:4;stroke-dasharray:1.25563, 1.25563;stroke-dashoffset:0;stroke-opacity:1;color-rendering:auto;image-rendering:auto;shape-rendering:auto;text-rendering:auto;enable-background:accumulate;stop-color:#000000;stop-opacity:1"
         d="M 0.27446485,105.83334 H 203.45472 c 0.15206,0 0.27447,0.12241 0.27447,0.27447 v 99.99273 c 0,0.15205 -0.12241,0.27446 -0.27447,0.27446 H 0.27446485 C 0.12241132,206.375 0,206.25259 0,206.10054 v -99.99273 c 0,-0.15206 0.12241132,-0.27447 0.27446485,-0.27447 z"
         id="path6139" />
      <path
         style="color:#000000;font-style:normal;font-variant:normal;font-weight:normal;font-stretch:normal;font-size:medium;line-height:normal;font-family:sans-serif;font-variant-ligatures:normal;font-variant-position:normal;font-variant-caps:normal;font-variant-numeric:normal;font-variant-alternates:normal;font-variant-east-asian:normal;font-feature-settings:normal;font-variation-settings:normal;text-indent:0;text-align:start;text-decoration:none;text-decoration-line:none;text-decoration-style:solid;text-decoration-color:#000000;letter-spacing:normal;word-spacing:normal;text-transform:none;writing-mode:lr-tb;direction:ltr;text-orientation:mixed;dominant-baseline:auto;baseline-shift:baseline;text-anchor:start;white-space:normal;shape-padding:0;shape-margin:0;inline-size:0;clip-rule:nonzero;display:inline;overflow:visible;visibility:visible;isolation:auto;mix-blend-mode:normal;color-interpolation:sRGB;color-interpolation-filters:linearRGB;solid-color:#000000;solid-opacity:1;vector-effect:none;fill:#ffffff;fill-opacity:1;fill-rule:nonzero;stroke:none;stroke-linecap:butt;stroke-linejoin:miter;stroke-miterlimit:4;stroke-dasharray:1.25563, 1.25563;stroke-dashoffset:0;stroke-opacity:1;color-rendering:auto;image-rendering:auto;shape-rendering:auto;text-rendering:auto;enable-background:accumulate;stop-color:#000000;stop-opacity:1"
         d="m 0.27539062,105.20508 v 0.008 c -0.40636865,-7.8e-4 -0.74478583,0.23673 -0.86328124,0.62891 l 0.85742187,0.25976 0.005859,-0.32617 v 0.32813 l 0.33789063,0.10156 c -0.0507202,0.16786 -0.16791269,0.24531 -0.33789063,0.24804 v 0.008 H 1.5292969 v -1.25586 H 0.28515625 Z m 2.50976558,0 v 1.25586 h 1.2558594 v -1.25586 z m 2.5117188,0 v 1.25586 h 1.2558594 v -1.25586 z m 2.5117188,0 v 1.25586 h 1.2558593 v -1.25586 z m 2.5117182,0 v 1.25586 h 1.253907 v -1.25586 z m 2.509766,0 v 1.25586 h 1.25586 v -1.25586 z m 2.511719,0 v 1.25586 h 1.255859 v -1.25586 z m 2.511719,0 v 1.25586 h 1.255859 v -1.25586 z m 2.511718,0 v 1.25586 h 1.25586 v -1.25586 z m 2.509766,0 v 1.25586 h 1.255859 v -1.25586 z m 2.511719,0 v 1.25586 h 1.255859 v -1.25586 z m 2.511719,0 v 1.25586 h 1.255859 v -1.25586 z m 2.511718,0 v 1.25586 h 1.25586 v -1.25586 z m 2.509766,0 v 1.25586 h 1.255859 v -1.25586 z m 2.511719,0 v 1.25586 H 36.6875 v -1.25586 z m 2.511718,0 v 1.25586 h 1.25586 v -1.25586 z m 2.511719,0 v 1.25586 h 1.25586 v -1.25586 z m 2.511719,0 v 1.25586 h 1.253906 v -1.25586 z m 2.509765,0 v 1.25586 h 1.25586 v -1.25586 z m 2.511719,0 v 1.25586 h 1.25586 v -1.25586 z m 2.511719,0 v 1.25586 h 1.255859 v -1.25586 z m 2.511719,0 v 1.25586 h 1.253906 v -1.25586 z m 2.509765,0 v 1.25586 h 1.25586 v -1.25586 z m 2.511719,0 v 1.25586 h 1.255859 v -1.25586 z m 2.511719,0 v 1.25586 h 1.255859 v -1.25586 z m 2.511719,0 v 1.25586 H 64.3125 v -1.25586 z m 2.509765,0 v 1.25586 h 1.25586 v -1.25586 z m 2.511719,0 v 1.25586 h 1.255859 v -1.25586 z m 2.511719,0 v 1.25586 h 1.255859 v -1.25586 z m 2.511718,0 v 1.25586 h 1.25586 v -1.25586 z m 2.509766,0 v 1.25586 h 1.25586 v -1.25586 z m 2.511719,0 v 1.25586 h 1.255859 v -1.25586 z m 2.511719,0 v 1.25586 h 1.255859 v -1.25586 z m 2.511718,0 v 1.25586 h 1.25586 v -1.25586 z m 2.511719,0 v 1.25586 h 1.253906 v -1.25586 z m 2.509766,0 v 1.25586 h 1.255859 v -1.25586 z m 2.511719,0 v 1.25586 h 1.255859 v -1.25586 z m 2.511718,0 v 1.25586 h 1.25586 v -1.25586 z m 2.511719,0 v 1.25586 h 1.253906 v -1.25586 z m 2.509766,0 v 1.25586 h 1.255859 v -1.25586 z m 2.511719,0 v 1.25586 h 1.25586 v -1.25586 z m 2.51172,0 v 1.25586 h 1.25586 v -1.25586 z m 2.51172,0 v 1.25586 h 1.25586 v -1.25586 z m 2.50976,0 v 1.25586 h 1.25586 v -1.25586 z m 2.51172,0 v 1.25586 h 1.25586 v -1.25586 z m 2.51172,0 v 1.25586 h 1.25586 v -1.25586 z m 2.51172,0 v 1.25586 h 1.25586 v -1.25586 z m 2.50976,0 v 1.25586 h 1.25586 v -1.25586 z m 2.51172,0 v 1.25586 h 1.25586 v -1.25586 z m 2.51172,0 v 1.25586 h 1.25586 v -1.25586 z m 2.51172,0 v 1.25586 h 1.25586 v -1.25586 z m 2.51172,0 v 1.25586 h 1.25391 v -1.25586 z m 2.50977,0 v 1.25586 h 1.25585 v -1.25586 z m 2.51171,0 v 1.25586 h 1.25586 v -1.25586 z m 2.51172,0 v 1.25586 h 1.25586 v -1.25586 z m 2.51172,0 v 1.25586 h 1.25391 v -1.25586 z m 2.50977,0 v 1.25586 h 1.25586 v -1.25586 z m 2.51172,0 v 1.25586 h 1.25586 v -1.25586 z m 2.51171,0 v 1.25586 h 1.25586 v -1.25586 z m 2.51172,0 v 1.25586 h 1.25586 v -1.25586 z m 2.50977,0 v 1.25586 h 1.25586 v -1.25586 z m 2.51172,0 v 1.25586 h 1.25586 v -1.25586 z m 2.51172,0 v 1.25586 h 1.25586 v -1.25586 z m 2.51172,0 v 1.25586 h 1.25585 v -1.25586 z m 2.50976,0 v 1.25586 H 162.25 v -1.25586 z m 2.51172,0 v 1.25586 h 1.25586 v -1.25586 z m 2.51172,0 v 1.25586 h 1.25586 v -1.25586 z m 2.51172,0 v 1.25586 h 1.25586 v -1.25586 z m 2.51172,0 v 1.25586 h 1.2539 v -1.25586 z m 2.50976,0 v 1.25586 h 1.25586 v -1.25586 z m 2.51172,0 v 1.25586 h 1.25586 v -1.25586 z m 2.51172,0 v 1.25586 h 1.25586 v -1.25586 z m 2.51172,0 v 1.25586 h 1.2539 v -1.25586 z m 2.50976,0 v 1.25586 h 1.25586 v -1.25586 z m 2.51172,0 v 1.25586 h 1.25586 v -1.25586 z m 2.51172,0 v 1.25586 h 1.25586 v -1.25586 z m 2.51172,0 v 1.25586 h 1.25586 v -1.25586 z m 2.50976,0 v 1.25586 h 1.25586 v -1.25586 z m 2.51172,0 v 1.25586 h 1.25586 v -1.25586 z m 2.51172,0 v 1.25586 h 1.25586 v -1.25586 z m 2.51172,0 v 1.25586 h 1.25586 v -1.25586 z m 2.94531,0.29492 -0.92187,0.85156 c -0.10257,-0.1112 -0.0924,-0.26234 -0.0977,-0.23437 -0.005,0.028 -0.0434,0.14101 -0.0937,0.2832 -0.0503,0.14219 -0.13325,0.31091 -0.10547,0.60938 0.0139,0.14923 0.0786,0.34175 0.20899,0.48828 0.13037,0.14652 0.30083,0.22987 0.45312,0.27148 l 0.33008,-1.21094 c 0.0146,0.004 0.088,0.0309 0.1543,0.10547 0.0663,0.0746 0.0987,0.17925 0.10351,0.23047 0.01,0.10245 7.2e-4,0.0322 0.0391,-0.0762 0.0383,-0.10837 0.10458,-0.25784 0.14453,-0.46875 0.0399,-0.21091 0.0362,-0.57743 -0.21485,-0.84961 z m -204.74804312,1.77734 v 1.25586 h 1.25390624 v -1.25586 z M 203.10156,108.41992 v 1.25586 h 1.25586 v -1.25586 z m -203.72851312,1.36914 v 1.25586 h 1.25390624 v -1.25586 z M 203.10156,110.93164 v 1.25586 h 1.25586 v -1.25586 z m -203.72851312,1.36914 v 1.25586 h 1.25390624 v -1.25586 z M 203.10156,113.44141 v 1.25586 h 1.25586 v -1.25586 z M -0.62695312,114.8125 v 1.25586 H 0.62695312 V 114.8125 Z M 203.10156,115.95312 v 1.25586 h 1.25586 v -1.25586 z m -203.72851312,1.36915 v 1.25585 h 1.25390624 v -1.25585 z M 203.10156,118.46484 v 1.25586 h 1.25586 v -1.25586 z m -203.72851312,1.36914 v 1.25586 h 1.25390624 v -1.25586 z M 203.10156,120.97656 v 1.25586 h 1.25586 v -1.25586 z M -0.62695312,122.3457 v 1.25586 H 0.62695312 V 122.3457 Z M 203.10156,123.48633 v 1.25586 h 1.25586 v -1.25586 z m -203.72851312,1.37109 v 1.25586 h 1.25390624 v -1.25586 z M 203.10156,125.99805 v 1.25586 h 1.25586 v -1.25586 z m -203.72851312,1.37109 v 1.25391 h 1.25390624 v -1.25391 z M 203.10156,128.50977 v 1.25585 h 1.25586 v -1.25585 z m -203.72851312,1.36914 v 1.25586 h 1.25390624 v -1.25586 z M 203.10156,131.02148 v 1.25586 h 1.25586 v -1.25586 z m -203.72851312,1.36914 v 1.25586 h 1.25390624 v -1.25586 z M 203.10156,133.5332 v 1.25391 h 1.25586 v -1.25391 z m -203.72851312,1.36914 v 1.25586 h 1.25390624 v -1.25586 z M 203.10156,136.04297 v 1.25586 h 1.25586 v -1.25586 z m -203.72851312,1.37109 v 1.25391 h 1.25390624 v -1.25391 z M 203.10156,138.55469 v 1.25586 h 1.25586 v -1.25586 z m -203.72851312,1.36914 v 1.25586 h 1.25390624 v -1.25586 z M 203.10156,141.06641 v 1.25586 h 1.25586 v -1.25586 z m -203.72851312,1.36914 v 1.25586 h 1.25390624 v -1.25586 z M 203.10156,143.57812 v 1.25391 h 1.25586 v -1.25391 z m -203.72851312,1.36915 v 1.25585 h 1.25390624 v -1.25585 z M 203.10156,146.08789 v 1.25586 h 1.25586 v -1.25586 z m -203.72851312,1.37109 v 1.25586 h 1.25390624 v -1.25586 z M 203.10156,148.59961 v 1.25586 h 1.25586 v -1.25586 z m -203.72851312,1.36914 v 1.25586 h 1.25390624 v -1.25586 z M 203.10156,151.11133 v 1.25586 h 1.25586 v -1.25586 z m -203.72851312,1.36914 v 1.25586 h 1.25390624 v -1.25586 z M 203.10156,153.62305 v 1.25586 h 1.25586 v -1.25586 z m -203.72851312,1.36914 v 1.25586 h 1.25390624 v -1.25586 z M 203.10156,156.13281 v 1.25586 h 1.25586 v -1.25586 z m -203.72851312,1.3711 v 1.25586 h 1.25390624 v -1.25586 z M 203.10156,158.64453 v 1.25586 h 1.25586 v -1.25586 z m -203.72851312,1.36914 v 1.25586 h 1.25390624 v -1.25586 z M 203.10156,161.15625 v 1.25586 h 1.25586 v -1.25586 z m -203.72851312,1.36914 v 1.25586 h 1.25390624 v -1.25586 z M 203.10156,163.66797 v 1.25586 h 1.25586 v -1.25586 z m -203.72851312,1.36914 v 1.25586 h 1.25390624 v -1.25586 z M 203.10156,166.17773 v 1.25586 h 1.25586 v -1.25586 z m -203.72851312,1.3711 v 1.25586 h 1.25390624 v -1.25586 z M 203.10156,168.68945 v 1.25586 h 1.25586 v -1.25586 z m -203.72851312,1.3711 v 1.2539 h 1.25390624 v -1.2539 z M 203.10156,171.20117 v 1.25586 h 1.25586 v -1.25586 z m -203.72851312,1.36914 v 1.25586 h 1.25390624 v -1.25586 z M 203.10156,173.71289 v 1.25586 h 1.25586 v -1.25586 z m -203.72851312,1.36914 v 1.25586 h 1.25390624 v -1.25586 z M 203.10156,176.22461 v 1.25391 h 1.25586 v -1.25391 z m -203.72851312,1.36914 v 1.25586 h 1.25390624 v -1.25586 z M 203.10156,178.73438 v 1.25585 h 1.25586 v -1.25585 z m -203.72851312,1.37109 v 1.25391 h 1.25390624 v -1.25391 z M 203.10156,181.24609 v 1.25586 h 1.25586 v -1.25586 z m -203.72851312,1.36914 v 1.25586 h 1.25390624 v -1.25586 z M 203.10156,183.75781 v 1.25586 h 1.25586 v -1.25586 z m -203.72851312,1.36914 v 1.25586 h 1.25390624 v -1.25586 z M 203.10156,186.26953 v 1.25391 h 1.25586 v -1.25391 z m -203.72851312,1.36914 v 1.25586 h 1.25390624 v -1.25586 z M 203.10156,188.7793 v 1.25586 h 1.25586 v -1.25586 z m -203.72851312,1.37109 v 1.25586 h 1.25390624 v -1.25586 z M 203.10156,191.29102 v 1.25586 h 1.25586 v -1.25586 z m -203.72851312,1.36914 v 1.25586 h 1.25390624 v -1.25586 z M 203.10156,193.80273 v 1.25586 h 1.25586 v -1.25586 z m -203.72851312,1.36915 v 1.25585 h 1.25390624 v -1.25585 z M 203.10156,196.31445 v 1.25586 h 1.25586 v -1.25586 z m -203.72851312,1.36914 v 1.25586 h 1.25390624 v -1.25586 z M 203.10156,198.82422 v 1.25586 h 1.25586 v -1.25586 z m -203.72851312,1.37109 v 1.25586 h 1.25390624 v -1.25586 z M 203.10156,201.33594 v 1.25586 h 1.25586 v -1.25586 z m -203.72851312,1.36914 v 1.25586 h 1.25390624 v -1.25586 z M 203.10156,203.84766 v 1.25586 h 1.25586 v -1.25586 z m -202.81445062,0.81054 -0.57421876,1.11719 c -0.21918111,-0.11291 -0.27843363,-0.31657 -0.2890625,-0.37695 -0.0106289,-0.0604 -0.003704,-0.0527 -0.005859,-0.0254 -0.004311,0.0547 -0.0281314,0.19103 -0.0449219,0.35156 -0.0167905,0.16053 -0.0377435,0.34851 0.0292969,0.59766 0.0670404,0.24914 0.34745875,0.58933 0.68359375,0.66015 l 0.25976562,-1.22851 c 0.0997284,0.021 0.25919501,0.20377 0.26953126,0.24218 0.0103362,0.0384 -0.002989,-0.0374 0.007813,-0.14062 0.0108016,-0.10327 0.0347041,-0.23042 0.046875,-0.38477 0.006085,-0.0772 0.0132883,-0.16004 -0.009766,-0.29101 -0.0230539,-0.13098 -0.10884882,-0.38539 -0.37304687,-0.52149 z M 202.50586,205.52344 c -0.31858,0.0431 -0.65429,0.38254 -0.73828,0.68164 l 1.20898,0.33984 c 0.002,-0.007 -0.17962,0.20599 -0.30273,0.22266 -0.12312,0.0167 -0.0715,-0.003 0.0273,0.0351 0.0989,0.0385 0.24122,0.10828 0.44336,0.16016 0.20214,0.0519 0.55458,0.0841 0.85156,-0.14062 l -0.75781,-1 c 0.12427,-0.094 0.25544,-0.0668 0.21875,-0.0762 -0.0367,-0.009 -0.15323,-0.0558 -0.30078,-0.11328 -0.14755,-0.0575 -0.33181,-0.15251 -0.65039,-0.10937 z M 1.4707031,205.74805 v 1.2539 h 1.2558594 v -1.2539 z m 2.5117188,0 v 1.2539 h 1.2558593 v -1.2539 z m 2.5117187,0 v 1.2539 H 7.75 v -1.2539 z m 2.5117188,0 v 1.2539 h 1.2539066 v -1.2539 z m 2.5097656,0 v 1.2539 h 1.255859 v -1.2539 z m 2.511719,0 v 1.2539 h 1.255859 v -1.2539 z m 2.511718,0 v 1.2539 h 1.25586 v -1.2539 z m 2.511719,0 v 1.2539 h 1.25586 v -1.2539 z m 2.509766,0 v 1.2539 h 1.255859 v -1.2539 z m 2.511719,0 v 1.2539 h 1.255859 v -1.2539 z m 2.511718,0 v 1.2539 h 1.25586 v -1.2539 z m 2.511719,0 v 1.2539 h 1.255859 v -1.2539 z m 2.509766,0 v 1.2539 h 1.255859 v -1.2539 z m 2.511719,0 v 1.2539 h 1.255859 v -1.2539 z m 2.511718,0 v 1.2539 h 1.25586 v -1.2539 z m 2.511719,0 v 1.2539 h 1.255859 v -1.2539 z m 2.511719,0 v 1.2539 h 1.253906 v -1.2539 z m 2.509765,0 v 1.2539 h 1.25586 v -1.2539 z m 2.511719,0 v 1.2539 h 1.25586 v -1.2539 z m 2.511719,0 v 1.2539 h 1.255859 v -1.2539 z m 2.511719,0 v 1.2539 h 1.253906 v -1.2539 z m 2.509765,0 v 1.2539 h 1.25586 v -1.2539 z m 2.511719,0 v 1.2539 h 1.255859 v -1.2539 z m 2.511719,0 v 1.2539 h 1.255859 v -1.2539 z m 2.511719,0 v 1.2539 h 1.255859 v -1.2539 z m 2.509765,0 v 1.2539 h 1.255859 v -1.2539 z m 2.511719,0 v 1.2539 h 1.255859 v -1.2539 z m 2.511719,0 v 1.2539 h 1.255859 v -1.2539 z m 2.511718,0 v 1.2539 h 1.25586 v -1.2539 z m 2.509766,0 v 1.2539 h 1.255859 v -1.2539 z m 2.511719,0 v 1.2539 h 1.255859 v -1.2539 z m 2.511718,0 v 1.2539 h 1.25586 v -1.2539 z m 2.511719,0 v 1.2539 h 1.25586 v -1.2539 z m 2.511719,0 v 1.2539 h 1.253906 v -1.2539 z m 2.509766,0 v 1.2539 h 1.255859 v -1.2539 z m 2.511718,0 v 1.2539 h 1.25586 v -1.2539 z m 2.511719,0 v 1.2539 h 1.255859 v -1.2539 z m 2.511719,0 v 1.2539 h 1.253906 v -1.2539 z m 2.509766,0 v 1.2539 h 1.255859 v -1.2539 z m 2.511718,0 v 1.2539 h 1.255864 v -1.2539 z m 2.511724,0 v 1.2539 h 1.25585 v -1.2539 z m 2.51171,0 v 1.2539 h 1.25586 v -1.2539 z m 2.50977,0 v 1.2539 h 1.25586 v -1.2539 z m 2.51172,0 v 1.2539 h 1.25586 v -1.2539 z m 2.51172,0 v 1.2539 h 1.25586 v -1.2539 z m 2.51172,0 v 1.2539 h 1.25586 v -1.2539 z m 2.50976,0 v 1.2539 h 1.25586 v -1.2539 z m 2.51172,0 v 1.2539 h 1.25586 v -1.2539 z m 2.51172,0 v 1.2539 h 1.25586 v -1.2539 z m 2.51172,0 v 1.2539 h 1.25586 v -1.2539 z m 2.51172,0 v 1.2539 h 1.2539 v -1.2539 z m 2.50976,0 v 1.2539 h 1.25586 v -1.2539 z m 2.51172,0 v 1.2539 h 1.25586 v -1.2539 z m 2.51172,0 v 1.2539 h 1.25586 v -1.2539 z m 2.51172,0 v 1.2539 h 1.2539 v -1.2539 z m 2.50976,0 v 1.2539 h 1.25586 v -1.2539 z m 2.51172,0 v 1.2539 h 1.25586 v -1.2539 z m 2.51172,0 v 1.2539 h 1.25586 v -1.2539 z m 2.51172,0 v 1.2539 h 1.25586 v -1.2539 z m 2.50977,0 v 1.2539 h 1.25585 v -1.2539 z m 2.51171,0 v 1.2539 h 1.25586 v -1.2539 z m 2.51172,0 v 1.2539 h 1.25586 v -1.2539 z m 2.51172,0 v 1.2539 h 1.25586 v -1.2539 z m 2.50977,0 v 1.2539 h 1.25586 v -1.2539 z m 2.51172,0 v 1.2539 h 1.25586 v -1.2539 z m 2.51171,0 v 1.2539 h 1.25586 v -1.2539 z m 2.51172,0 v 1.2539 h 1.25586 v -1.2539 z m 2.51172,0 v 1.2539 h 1.25391 v -1.2539 z m 2.50977,0 v 1.2539 h 1.25586 v -1.2539 z m 2.51172,0 v 1.2539 h 1.25586 v -1.2539 z m 2.51172,0 v 1.2539 h 1.25585 v -1.2539 z m 2.51171,0 v 1.2539 h 1.25391 v -1.2539 z m 2.50977,0 v 1.2539 h 1.25586 v -1.2539 z m 2.51172,0 v 1.2539 h 1.25586 v -1.2539 z m 2.51172,0 v 1.2539 h 1.25586 v -1.2539 z m 2.51172,0 v 1.2539 h 1.25586 v -1.2539 z m 2.50976,0 v 1.2539 h 1.25586 v -1.2539 z m 2.51172,0 v 1.2539 h 1.25586 v -1.2539 z m 2.51172,0 v 1.2539 h 1.25586 v -1.2539 z m 2.51172,0 v 1.2539 h 1.25586 v -1.2539 z"
         id="path6141" />
    </g>
    <path
       style="color:#000000;font-style:normal;font-variant:normal;font-weight:normal;font-stretch:normal;font-size:medium;line-height:normal;font-family:sans-serif;font-variant-ligatures:normal;font-variant-position:normal;font-variant-caps:normal;font-variant-numeric:normal;font-variant-alternates:normal;font-variant-east-asian:normal;font-feature-settings:normal;font-variation-settings:normal;text-indent:0;text-align:start;text-decoration:none;text-decoration-line:none;text-decoration-style:solid;text-decoration-color:#000000;letter-spacing:normal;word-spacing:normal;text-transform:none;writing-mode:lr-tb;direction:ltr;text-orientation:mixed;dominant-baseline:auto;baseline-shift:baseline;text-anchor:start;white-space:normal;shape-padding:0;shape-margin:0;inline-size:0;clip-rule:nonzero;display:inline;overflow:visible;visibility:visible;opacity:1;isolation:auto;mix-blend-mode:normal;color-interpolation:sRGB;color-interpolation-filters:linearRGB;solid-color:#000000;solid-opacity:1;vector-effect:none;fill:#ffffff;fill-opacity:1;fill-rule:nonzero;stroke:none;stroke-width:4.99999;stroke-linecap:butt;stroke-linejoin:miter;stroke-miterlimit:4;stroke-dasharray:none;stroke-dashoffset:0;stroke-opacity:1;color-rendering:auto;image-rendering:auto;shape-rendering:auto;text-rendering:auto;enable-background:accumulate;stop-color:#000000;stop-opacity:1"
       d="M 17.766732,117.66897 H 188.15211 c 0.23208,0 0.41892,0.18684 0.41892,0.41892 v 74.7574 c 0,0.23208 -0.18684,0.41892 -0.41892,0.41892 H 17.766732 c -0.232082,0 -0.41892,-0.18684 -0.41892,-0.41892 v -74.7574 c 0,-0.23208 0.186838,-0.41892 0.41892,-0.41892 z"
       id="rect5785" />
    <path
       style="color:#000000;font-style:normal;font-variant:normal;font-weight:normal;font-stretch:normal;font-size:medium;line-height:normal;font-family:sans-serif;font-variant-ligatures:normal;font-variant-position:normal;font-variant-caps:normal;font-variant-numeric:normal;font-variant-alternates:normal;font-variant-east-asian:normal;font-feature-settings:normal;font-variation-settings:normal;text-indent:0;text-align:start;text-decoration:none;text-decoration-line:none;text-decoration-style:solid;text-decoration-color:#000000;letter-spacing:normal;word-spacing:normal;text-transform:none;writing-mode:lr-tb;direction:ltr;text-orientation:mixed;dominant-baseline:auto;baseline-shift:baseline;text-anchor:start;white-space:normal;shape-padding:0;shape-margin:0;inline-size:0;clip-rule:nonzero;display:inline;overflow:visible;visibility:visible;opacity:1;isolation:auto;mix-blend-mode:normal;color-interpolation:sRGB;color-interpolation-filters:linearRGB;solid-color:#000000;solid-opacity:1;vector-effect:none;fill:#000000;fill-opacity:1;fill-rule:nonzero;stroke:none;stroke-width:4.99999;stroke-linecap:butt;stroke-linejoin:miter;stroke-miterlimit:4;stroke-dasharray:none;stroke-dashoffset:0;stroke-opacity:1;color-rendering:auto;image-rendering:auto;shape-rendering:auto;text-rendering:auto;enable-background:accumulate;stop-color:#000000;stop-opacity:1"
       d="m 15.875,129.64584 c -5.466467,-1.75278 -8.4770308,-7.60511 -6.7243063,-13.07159 1.7527293,-5.46649 7.6050373,-8.4771 13.0715383,-6.72442 5.466501,1.75268 8.477168,7.60496 6.724534,13.07148 -1.752633,5.46652 -7.604889,8.47724 -13.071421,6.72465"
       id="path5791" />
    <path
       style="color:#000000;font-style:normal;font-variant:normal;font-weight:normal;font-stretch:normal;font-size:medium;line-height:normal;font-family:sans-serif;font-variant-ligatures:normal;font-variant-position:normal;font-variant-caps:normal;font-variant-numeric:normal;font-variant-alternates:normal;font-variant-east-asian:normal;font-feature-settings:normal;font-variation-settings:normal;text-indent:0;text-align:start;text-decoration:none;text-decoration-line:none;text-decoration-style:solid;text-decoration-color:#000000;letter-spacing:normal;word-spacing:normal;text-transform:none;writing-mode:lr-tb;direction:ltr;text-orientation:mixed;dominant-baseline:auto;baseline-shift:baseline;text-anchor:start;white-space:normal;shape-padding:0;shape-margin:0;inline-size:0;clip-rule:nonzero;display:inline;overflow:visible;visibility:visible;opacity:1;isolation:auto;mix-blend-mode:normal;color-interpolation:sRGB;color-interpolation-filters:linearRGB;solid-color:#000000;solid-opacity:1;vector-effect:none;fill:#000000;fill-opacity:1;fill-rule:nonzero;stroke:none;stroke-width:4.99999;stroke-linecap:butt;stroke-linejoin:miter;stroke-miterlimit:4;stroke-dasharray:none;stroke-dashoffset:0;stroke-opacity:1;color-rendering:auto;image-rendering:auto;shape-rendering:auto;text-rendering:auto;enable-background:accumulate;stop-color:#000000;stop-opacity:1"
       d="m 17.197916,204.29612 c -5.466472,-1.75278 -8.4770371,-7.60511 -6.724306,-13.0716 1.752729,-5.46649 7.605038,-8.4771 13.071539,-6.72442 5.466501,1.75268 8.477168,7.60496 6.724534,13.07148 -1.752633,5.46652 -7.604889,8.47724 -13.071421,6.72465"
       id="path5791-5" />
    <path
       style="color:#000000;font-style:normal;font-variant:normal;font-weight:normal;font-stretch:normal;font-size:medium;line-height:normal;font-family:sans-serif;font-variant-ligatures:normal;font-variant-position:normal;font-variant-caps:normal;font-variant-numeric:normal;font-variant-alternates:normal;font-variant-east-asian:normal;font-feature-settings:normal;font-variation-settings:normal;text-indent:0;text-align:start;text-decoration:none;text-decoration-line:none;text-decoration-style:solid;text-decoration-color:#000000;letter-spacing:normal;word-spacing:normal;text-transform:none;writing-mode:lr-tb;direction:ltr;text-orientation:mixed;dominant-baseline:auto;baseline-shift:baseline;text-anchor:start;white-space:normal;shape-padding:0;shape-margin:0;inline-size:0;clip-rule:nonzero;display:inline;overflow:visible;visibility:visible;opacity:1;isolation:auto;mix-blend-mode:normal;color-interpolation:sRGB;color-interpolation-filters:linearRGB;solid-color:#000000;solid-opacity:1;vector-effect:none;fill:#000000;fill-opacity:1;fill-rule:nonzero;stroke:none;stroke-width:4.99999;stroke-linecap:butt;stroke-linejoin:miter;stroke-miterlimit:4;stroke-dasharray:none;stroke-dashoffset:0;stroke-opacity:1;color-rendering:auto;image-rendering:auto;shape-rendering:auto;text-rendering:auto;enable-background:accumulate;stop-color:#000000;stop-opacity:1"
       d="m 183.50744,203.54017 c -5.46647,-1.75278 -8.47703,-7.60512 -6.7243,-13.0716 1.75273,-5.46649 7.60504,-8.4771 13.07154,-6.72442 5.4665,1.75268 8.47716,7.60497 6.72453,13.07148 -1.75263,5.46652 -7.60489,8.47724 -13.07142,6.72465"
       id="path5791-5-1" />
    <path
       style="color:#000000;font-style:normal;font-variant:normal;font-weight:normal;font-stretch:normal;font-size:medium;line-height:normal;font-family:sans-serif;font-variant-ligatures:normal;font-variant-position:normal;font-variant-caps:normal;font-variant-numeric:normal;font-variant-alternates:normal;font-variant-east-asian:normal;font-feature-settings:normal;font-variation-settings:normal;text-indent:0;text-align:start;text-decoration:none;text-decoration-line:none;text-decoration-style:solid;text-decoration-color:#000000;letter-spacing:normal;word-spacing:normal;text-transform:none;writing-mode:lr-tb;direction:ltr;text-orientation:mixed;dominant-baseline:auto;baseline-shift:baseline;text-anchor:start;white-space:normal;shape-padding:0;shape-margin:0;inline-size:0;clip-rule:nonzero;display:inline;overflow:visible;visibility:visible;opacity:1;isolation:auto;mix-blend-mode:normal;color-interpolation:sRGB;color-interpolation-filters:linearRGB;solid-color:#000000;solid-opacity:1;vector-effect:none;fill:#000000;fill-opacity:1;fill-rule:nonzero;stroke:none;stroke-width:4.99999;stroke-linecap:butt;stroke-linejoin:miter;stroke-miterlimit:4;stroke-dasharray:none;stroke-dashoffset:0;stroke-opacity:1;color-rendering:auto;image-rendering:auto;shape-rendering:auto;text-rendering:auto;enable-background:accumulate;stop-color:#000000;stop-opacity:1"
       d="m 182.7515,127.56696 c -5.46647,-1.75277 -8.47703,-7.60511 -6.72431,-13.07159 1.75273,-5.46649 7.60504,-8.4771 13.07154,-6.72442 5.4665,1.75268 8.47717,7.60496 6.72454,13.07148 -1.75263,5.46652 -7.6049,8.47724 -13.07143,6.72465"
       id="path5791-5-1-6" />
    <path
       style="color:#000000;font-style:normal;font-variant:normal;font-weight:normal;font-stretch:normal;font-size:medium;line-height:normal;font-family:sans-serif;font-variant-ligatures:normal;font-variant-position:normal;font-variant-caps:normal;font-variant-numeric:normal;font-variant-alternates:normal;font-variant-east-asian:normal;font-feature-settings:normal;font-variation-settings:normal;text-indent:0;text-align:start;text-decoration:none;text-decoration-line:none;text-decoration-style:solid;text-decoration-color:#000000;letter-spacing:normal;word-spacing:normal;text-transform:none;writing-mode:lr-tb;direction:ltr;text-orientation:mixed;dominant-baseline:auto;baseline-shift:baseline;text-anchor:start;white-space:normal;shape-padding:0;shape-margin:0;inline-size:0;clip-rule:nonzero;display:inline;overflow:visible;visibility:visible;opacity:1;isolation:auto;mix-blend-mode:normal;color-interpolation:sRGB;color-interpolation-filters:linearRGB;solid-color:#000000;solid-opacity:1;vector-effect:none;fill:#000000;fill-opacity:1;fill-rule:nonzero;stroke:none;stroke-width:4.99999;stroke-linecap:butt;stroke-linejoin:miter;stroke-miterlimit:4;stroke-dasharray:none;stroke-dashoffset:0;stroke-opacity:1;color-rendering:auto;image-rendering:auto;shape-rendering:auto;text-rendering:auto;enable-background:accumulate;stop-color:#000000;stop-opacity:1"
       d="m 16.40287,139.02462 c -1.789028,-0.57364 -2.774303,-2.48895 -2.200681,-4.27798 0.573624,-1.78903 2.488923,-2.77431 4.277957,-2.20071 1.789032,0.5736 2.77434,2.48889 2.200757,4.27793 -0.573587,1.78904 -2.488871,2.77437 -4.27792,2.2008"
       id="path5853" />
    <path
       style="color:#000000;font-style:normal;font-variant:normal;font-weight:normal;font-stretch:normal;font-size:medium;line-height:normal;font-family:sans-serif;font-variant-ligatures:normal;font-variant-position:normal;font-variant-caps:normal;font-variant-numeric:normal;font-variant-alternates:normal;font-variant-east-asian:normal;font-feature-settings:normal;font-variation-settings:normal;text-indent:0;text-align:start;text-decoration:none;text-decoration-line:none;text-decoration-style:solid;text-decoration-color:#000000;letter-spacing:normal;word-spacing:normal;text-transform:none;writing-mode:lr-tb;direction:ltr;text-orientation:mixed;dominant-baseline:auto;baseline-shift:baseline;text-anchor:start;white-space:normal;shape-padding:0;shape-margin:0;inline-size:0;clip-rule:nonzero;display:inline;overflow:visible;visibility:visible;opacity:1;isolation:auto;mix-blend-mode:normal;color-interpolation:sRGB;color-interpolation-filters:linearRGB;solid-color:#000000;solid-opacity:1;vector-effect:none;fill:#000000;fill-opacity:1;fill-rule:nonzero;stroke:none;stroke-width:4.99999;stroke-linecap:butt;stroke-linejoin:miter;stroke-miterlimit:4;stroke-dasharray:none;stroke-dashoffset:0;stroke-opacity:1;color-rendering:auto;image-rendering:auto;shape-rendering:auto;text-rendering:auto;enable-background:accumulate;stop-color:#000000;stop-opacity:1"
       d="m 16.40287,149.60795 c -1.789028,-0.57364 -2.774303,-2.48895 -2.200681,-4.27798 0.57362,-1.78903 2.48892,-2.77432 4.277957,-2.20072 1.789037,0.5736 2.774347,2.4889 2.200757,4.27794 -0.573587,1.78904 -2.488871,2.77437 -4.27792,2.2008"
       id="path5853-6" />
    <path
       style="color:#000000;font-style:normal;font-variant:normal;font-weight:normal;font-stretch:normal;font-size:medium;line-height:normal;font-family:sans-serif;font-variant-ligatures:normal;font-variant-position:normal;font-variant-caps:normal;font-variant-numeric:normal;font-variant-alternates:normal;font-variant-east-asian:normal;font-feature-settings:normal;font-variation-settings:normal;text-indent:0;text-align:start;text-decoration:none;text-decoration-line:none;text-decoration-style:solid;text-decoration-color:#000000;letter-spacing:normal;word-spacing:normal;text-transform:none;writing-mode:lr-tb;direction:ltr;text-orientation:mixed;dominant-baseline:auto;baseline-shift:baseline;text-anchor:start;white-space:normal;shape-padding:0;shape-margin:0;inline-size:0;clip-rule:nonzero;display:inline;overflow:visible;visibility:visible;opacity:1;isolation:auto;mix-blend-mode:normal;color-interpolation:sRGB;color-interpolation-filters:linearRGB;solid-color:#000000;solid-opacity:1;vector-effect:none;fill:#000000;fill-opacity:1;fill-rule:nonzero;stroke:none;stroke-width:4.99999;stroke-linecap:butt;stroke-linejoin:miter;stroke-miterlimit:4;stroke-dasharray:none;stroke-dashoffset:0;stroke-opacity:1;color-rendering:auto;image-rendering:auto;shape-rendering:auto;text-rendering:auto;enable-background:accumulate;stop-color:#000000;stop-opacity:1"
       d="m 16.40287,160.19129 c -1.789023,-0.57364 -2.774297,-2.48894 -2.200681,-4.27797 0.57362,-1.78903 2.48892,-2.77432 4.277957,-2.20072 1.789037,0.5736 2.774347,2.4889 2.200757,4.27794 -0.573591,1.78904 -2.488874,2.77436 -4.27792,2.20079"
       id="path5853-2" />
    <path
       style="color:#000000;font-style:normal;font-variant:normal;font-weight:normal;font-stretch:normal;font-size:medium;line-height:normal;font-family:sans-serif;font-variant-ligatures:normal;font-variant-position:normal;font-variant-caps:normal;font-variant-numeric:normal;font-variant-alternates:normal;font-variant-east-asian:normal;font-feature-settings:normal;font-variation-settings:normal;text-indent:0;text-align:start;text-decoration:none;text-decoration-line:none;text-decoration-style:solid;text-decoration-color:#000000;letter-spacing:normal;word-spacing:normal;text-transform:none;writing-mode:lr-tb;direction:ltr;text-orientation:mixed;dominant-baseline:auto;baseline-shift:baseline;text-anchor:start;white-space:normal;shape-padding:0;shape-margin:0;inline-size:0;clip-rule:nonzero;display:inline;overflow:visible;visibility:visible;opacity:1;isolation:auto;mix-blend-mode:normal;color-interpolation:sRGB;color-interpolation-filters:linearRGB;solid-color:#000000;solid-opacity:1;vector-effect:none;fill:#000000;fill-opacity:1;fill-rule:nonzero;stroke:none;stroke-width:4.99999;stroke-linecap:butt;stroke-linejoin:miter;stroke-miterlimit:4;stroke-dasharray:none;stroke-dashoffset:0;stroke-opacity:1;color-rendering:auto;image-rendering:auto;shape-rendering:auto;text-rendering:auto;enable-background:accumulate;stop-color:#000000;stop-opacity:1"
       d="m 16.40287,170.77463 c -1.789028,-0.57364 -2.774303,-2.48895 -2.200681,-4.27798 0.573624,-1.78903 2.488923,-2.77431 4.277957,-2.20071 1.789032,0.5736 2.77434,2.48889 2.200757,4.27793 -0.573587,1.78904 -2.488871,2.77437 -4.27792,2.2008"
       id="path5853-3" />
    <path
       style="color:#000000;font-style:normal;font-variant:normal;font-weight:normal;font-stretch:normal;font-size:medium;line-height:normal;font-family:sans-serif;font-variant-ligatures:normal;font-variant-position:normal;font-variant-caps:normal;font-variant-numeric:normal;font-variant-alternates:normal;font-variant-east-asian:normal;font-feature-settings:normal;font-variation-settings:normal;text-indent:0;text-align:start;text-decoration:none;text-decoration-line:none;text-decoration-style:solid;text-decoration-color:#000000;letter-spacing:normal;word-spacing:normal;text-transform:none;writing-mode:lr-tb;direction:ltr;text-orientation:mixed;dominant-baseline:auto;baseline-shift:baseline;text-anchor:start;white-space:normal;shape-padding:0;shape-margin:0;inline-size:0;clip-rule:nonzero;display:inline;overflow:visible;visibility:visible;opacity:1;isolation:auto;mix-blend-mode:normal;color-interpolation:sRGB;color-interpolation-filters:linearRGB;solid-color:#000000;solid-opacity:1;vector-effect:none;fill:#000000;fill-opacity:1;fill-rule:nonzero;stroke:none;stroke-width:4.99999;stroke-linecap:butt;stroke-linejoin:miter;stroke-miterlimit:4;stroke-dasharray:none;stroke-dashoffset:0;stroke-opacity:1;color-rendering:auto;image-rendering:auto;shape-rendering:auto;text-rendering:auto;enable-background:accumulate;stop-color:#000000;stop-opacity:1"
       d="m 16.40287,181.35795 c -1.789028,-0.57364 -2.774303,-2.48895 -2.200681,-4.27798 0.57362,-1.78903 2.48892,-2.77432 4.277957,-2.20072 1.789037,0.5736 2.774347,2.4889 2.200757,4.27794 -0.573587,1.78904 -2.488871,2.77437 -4.27792,2.2008"
       id="path5853-6-0" />
    <path
       style="color:#000000;font-style:normal;font-variant:normal;font-weight:normal;font-stretch:normal;font-size:medium;line-height:normal;font-family:sans-serif;font-variant-ligatures:normal;font-variant-position:normal;font-variant-caps:normal;font-variant-numeric:normal;font-variant-alternates:normal;font-variant-east-asian:normal;font-feature-settings:normal;font-variation-settings:normal;text-indent:0;text-align:start;text-decoration:none;text-decoration-line:none;text-decoration-style:solid;text-decoration-color:#000000;letter-spacing:normal;word-spacing:normal;text-transform:none;writing-mode:lr-tb;direction:ltr;text-orientation:mixed;dominant-baseline:auto;baseline-shift:baseline;text-anchor:start;white-space:normal;shape-padding:0;shape-margin:0;inline-size:0;clip-rule:nonzero;display:inline;overflow:visible;visibility:visible;opacity:1;isolation:auto;mix-blend-mode:normal;color-interpolation:sRGB;color-interpolation-filters:linearRGB;solid-color:#000000;solid-opacity:1;vector-effect:none;fill:#000000;fill-opacity:1;fill-rule:nonzero;stroke:none;stroke-width:4.99999;stroke-linecap:butt;stroke-linejoin:miter;stroke-miterlimit:4;stroke-dasharray:none;stroke-dashoffset:0;stroke-opacity:1;color-rendering:auto;image-rendering:auto;shape-rendering:auto;text-rendering:auto;enable-background:accumulate;stop-color:#000000;stop-opacity:1"
       d="m 187.059,137.70167 c -1.78903,-0.57364 -2.7743,-2.48895 -2.20068,-4.27798 0.57362,-1.78903 2.48892,-2.77433 4.27796,-2.20072 1.78903,0.57361 2.77434,2.4889 2.20075,4.27794 -0.57359,1.78904 -2.48887,2.77437 -4.27792,2.2008"
       id="path5853-1" />
    <path
       style="color:#000000;font-style:normal;font-variant:normal;font-weight:normal;font-stretch:normal;font-size:medium;line-height:normal;font-family:sans-serif;font-variant-ligatures:normal;font-variant-position:normal;font-variant-caps:normal;font-variant-numeric:normal;font-variant-alternates:normal;font-variant-east-asian:normal;font-feature-settings:normal;font-variation-settings:normal;text-indent:0;text-align:start;text-decoration:none;text-decoration-line:none;text-decoration-style:solid;text-decoration-color:#000000;letter-spacing:normal;word-spacing:normal;text-transform:none;writing-mode:lr-tb;direction:ltr;text-orientation:mixed;dominant-baseline:auto;baseline-shift:baseline;text-anchor:start;white-space:normal;shape-padding:0;shape-margin:0;inline-size:0;clip-rule:nonzero;display:inline;overflow:visible;visibility:visible;opacity:1;isolation:auto;mix-blend-mode:normal;color-interpolation:sRGB;color-interpolation-filters:linearRGB;solid-color:#000000;solid-opacity:1;vector-effect:none;fill:#000000;fill-opacity:1;fill-rule:nonzero;stroke:none;stroke-width:4.99999;stroke-linecap:butt;stroke-linejoin:miter;stroke-miterlimit:4;stroke-dasharray:none;stroke-dashoffset:0;stroke-opacity:1;color-rendering:auto;image-rendering:auto;shape-rendering:auto;text-rendering:auto;enable-background:accumulate;stop-color:#000000;stop-opacity:1"
       d="m 187.059,148.285 c -1.78903,-0.57364 -2.7743,-2.48895 -2.20068,-4.27798 0.57362,-1.78903 2.48892,-2.77433 4.27796,-2.20072 1.78903,0.57361 2.77434,2.4889 2.20075,4.27794 -0.57359,1.78904 -2.48887,2.77436 -4.27792,2.20079"
       id="path5853-6-5" />
    <path
       style="color:#000000;font-style:normal;font-variant:normal;font-weight:normal;font-stretch:normal;font-size:medium;line-height:normal;font-family:sans-serif;font-variant-ligatures:normal;font-variant-position:normal;font-variant-caps:normal;font-variant-numeric:normal;font-variant-alternates:normal;font-variant-east-asian:normal;font-feature-settings:normal;font-variation-settings:normal;text-indent:0;text-align:start;text-decoration:none;text-decoration-line:none;text-decoration-style:solid;text-decoration-color:#000000;letter-spacing:normal;word-spacing:normal;text-transform:none;writing-mode:lr-tb;direction:ltr;text-orientation:mixed;dominant-baseline:auto;baseline-shift:baseline;text-anchor:start;white-space:normal;shape-padding:0;shape-margin:0;inline-size:0;clip-rule:nonzero;display:inline;overflow:visible;visibility:visible;opacity:1;isolation:auto;mix-blend-mode:normal;color-interpolation:sRGB;color-interpolation-filters:linearRGB;solid-color:#000000;solid-opacity:1;vector-effect:none;fill:#000000;fill-opacity:1;fill-rule:nonzero;stroke:none;stroke-width:4.99999;stroke-linecap:butt;stroke-linejoin:miter;stroke-miterlimit:4;stroke-dasharray:none;stroke-dashoffset:0;stroke-opacity:1;color-rendering:auto;image-rendering:auto;shape-rendering:auto;text-rendering:auto;enable-background:accumulate;stop-color:#000000;stop-opacity:1"
       d="m 187.059,158.86834 c -1.78903,-0.57364 -2.7743,-2.48895 -2.20068,-4.27798 0.57362,-1.78903 2.48892,-2.77433 4.27796,-2.20072 1.78903,0.57361 2.77434,2.4889 2.20075,4.27794 -0.57359,1.78904 -2.48887,2.77437 -4.27792,2.2008"
       id="path5853-2-3" />
    <path
       style="color:#000000;font-style:normal;font-variant:normal;font-weight:normal;font-stretch:normal;font-size:medium;line-height:normal;font-family:sans-serif;font-variant-ligatures:normal;font-variant-position:normal;font-variant-caps:normal;font-variant-numeric:normal;font-variant-alternates:normal;font-variant-east-asian:normal;font-feature-settings:normal;font-variation-settings:normal;text-indent:0;text-align:start;text-decoration:none;text-decoration-line:none;text-decoration-style:solid;text-decoration-color:#000000;letter-spacing:normal;word-spacing:normal;text-transform:none;writing-mode:lr-tb;direction:ltr;text-orientation:mixed;dominant-baseline:auto;baseline-shift:baseline;text-anchor:start;white-space:normal;shape-padding:0;shape-margin:0;inline-size:0;clip-rule:nonzero;display:inline;overflow:visible;visibility:visible;opacity:1;isolation:auto;mix-blend-mode:normal;color-interpolation:sRGB;color-interpolation-filters:linearRGB;solid-color:#000000;solid-opacity:1;vector-effect:none;fill:#000000;fill-opacity:1;fill-rule:nonzero;stroke:none;stroke-width:4.99999;stroke-linecap:butt;stroke-linejoin:miter;stroke-miterlimit:4;stroke-dasharray:none;stroke-dashoffset:0;stroke-opacity:1;color-rendering:auto;image-rendering:auto;shape-rendering:auto;text-rendering:auto;enable-background:accumulate;stop-color:#000000;stop-opacity:1"
       d="m 187.059,169.45167 c -1.78903,-0.57364 -2.7743,-2.48895 -2.20068,-4.27798 0.57362,-1.78903 2.48892,-2.77433 4.27796,-2.20072 1.78903,0.57361 2.77434,2.4889 2.20075,4.27794 -0.57359,1.78904 -2.48887,2.77437 -4.27792,2.2008"
       id="path5853-3-1" />
    <path
       style="color:#000000;font-style:normal;font-variant:normal;font-weight:normal;font-stretch:normal;font-size:medium;line-height:normal;font-family:sans-serif;font-variant-ligatures:normal;font-variant-position:normal;font-variant-caps:normal;font-variant-numeric:normal;font-variant-alternates:normal;font-variant-east-asian:normal;font-feature-settings:normal;font-variation-settings:normal;text-indent:0;text-align:start;text-decoration:none;text-decoration-line:none;text-decoration-style:solid;text-decoration-color:#000000;letter-spacing:normal;word-spacing:normal;text-transform:none;writing-mode:lr-tb;direction:ltr;text-orientation:mixed;dominant-baseline:auto;baseline-shift:baseline;text-anchor:start;white-space:normal;shape-padding:0;shape-margin:0;inline-size:0;clip-rule:nonzero;display:inline;overflow:visible;visibility:visible;opacity:1;isolation:auto;mix-blend-mode:normal;color-interpolation:sRGB;color-interpolation-filters:linearRGB;solid-color:#000000;solid-opacity:1;vector-effect:none;fill:#000000;fill-opacity:1;fill-rule:nonzero;stroke:none;stroke-width:4.99999;stroke-linecap:butt;stroke-linejoin:miter;stroke-miterlimit:4;stroke-dasharray:none;stroke-dashoffset:0;stroke-opacity:1;color-rendering:auto;image-rendering:auto;shape-rendering:auto;text-rendering:auto;enable-background:accumulate;stop-color:#000000;stop-opacity:1"
       d="m 187.059,180.035 c -1.78903,-0.57364 -2.7743,-2.48895 -2.20068,-4.27798 0.57362,-1.78903 2.48892,-2.77433 4.27796,-2.20072 1.78903,0.57361 2.77434,2.4889 2.20075,4.27794 -0.57359,1.78904 -2.48887,2.77436 -4.27792,2.20079"
       id="path5853-6-0-2" />
    <path
       style="color:#000000;font-style:normal;font-variant:normal;font-weight:normal;font-stretch:normal;font-size:medium;line-height:normal;font-family:sans-serif;font-variant-ligatures:normal;font-variant-position:normal;font-variant-caps:normal;font-variant-numeric:normal;font-variant-alternates:normal;font-variant-east-asian:normal;font-feature-settings:normal;font-variation-settings:normal;text-indent:0;text-align:start;text-decoration:none;text-decoration-line:none;text-decoration-style:solid;text-decoration-color:#000000;letter-spacing:normal;word-spacing:normal;text-transform:none;writing-mode:lr-tb;direction:ltr;text-orientation:mixed;dominant-baseline:auto;baseline-shift:baseline;text-anchor:start;white-space:normal;shape-padding:0;shape-margin:0;inline-size:0;clip-rule:nonzero;display:inline;overflow:visible;visibility:visible;opacity:1;isolation:auto;mix-blend-mode:normal;color-interpolation:sRGB;color-interpolation-filters:linearRGB;solid-color:#000000;solid-opacity:1;vector-effect:none;fill:#000000;fill-opacity:1;fill-rule:nonzero;stroke:none;stroke-linecap:butt;stroke-linejoin:miter;stroke-miterlimit:4;stroke-dasharray:1.68093, 1.68093;stroke-dashoffset:0;stroke-opacity:1;color-rendering:auto;image-rendering:auto;shape-rendering:auto;text-rendering:auto;enable-background:accumulate;stop-color:#000000;stop-opacity:1"
       d="m 64.140625,110.28516 v 1.67968 h 1.679687 v -1.67968 z m 3.361328,0 v 1.67968 h 1.681641 v -1.67968 z m 3.361328,0 v 1.67968 h 1.681641 v -1.67968 z m 3.363281,0 v 1.67968 h 1.679688 v -1.67968 z m 3.361329,0 v 1.67968 h 1.679687 v -1.67968 z m 3.361328,0 v 1.67968 h 1.68164 v -1.67968 z m 3.361328,0 v 1.67968 h 1.681641 v -1.67968 z m 3.363281,0 v 1.67968 h 1.679688 v -1.67968 z m 3.361328,0 v 1.67968 h 1.681641 v -1.67968 z m 3.361328,0 v 1.67968 h 1.681641 v -1.67968 z m 3.361328,0 v 1.67968 h 1.681641 v -1.67968 z m 3.363278,0 v 1.67968 h 1.67969 v -1.67968 z m 3.36133,0 v 1.67968 h 1.68164 v -1.67968 z m 3.36133,0 v 1.67968 h 1.68164 v -1.67968 z m 3.36328,0 v 1.67968 h 1.67969 v -1.67968 z m 3.36133,0 v 1.67968 h 1.67969 v -1.67968 z m 3.36133,0 v 1.67968 h 1.68164 v -1.67968 z m 3.36133,0 v 1.67968 h 1.68164 v -1.67968 z m 3.36328,0 v 1.67968 h 1.67968 v -1.67968 z m 3.36132,0 v 1.67968 h 1.68165 v -1.67968 z m 3.36133,0 v 1.67968 h 1.68164 v -1.67968 z m 3.36133,0 v 1.67968 h 1.68164 v -1.67968 z m 3.36328,0 v 1.67968 h 1.67969 v -1.67968 z m 3.36133,0 v 1.67968 h 1.68164 v -1.67968 z m 3.36133,0 v 1.67968 h 1.68164 v -1.67968 z m 3.36328,0 v 1.67968 h 1.67969 v -1.67968 z m 3.36133,0 v 1.67968 h 1.67969 v -1.67968 z m 3.36133,0 v 1.67968 h 1.68164 v -1.67968 z m 3.36132,0 v 1.67968 h 1.68164 v -1.67968 z m 3.36329,0 v 1.67968 h 1.67968 v -1.67968 z m 3.36132,0 v 1.67968 h 1.68164 v -1.67968 z m 3.36133,0 v 1.67968 h 1.68164 v -1.67968 z m 3.36133,0 v 1.67968 h 1.68164 v -1.67968 z m 3.36328,0 v 1.67968 h 1.67969 v -1.67968 z m 3.36133,0 v 1.67968 h 1.68164 v -1.67968 z m 3.36133,0 v 1.67968 h 1.68164 v -1.67968 z m 3.36328,0 v 1.67968 h 1.67969 v -1.67968 z m 3.36133,0 v 1.67968 h 1.67968 v -1.67968 z m 3.36132,0 v 1.67968 h 1.68165 v -1.67968 z m 3.47071,0.0156 -0.2168,1.66602 c -0.0267,-0.003 -0.12945,-0.0535 -0.16406,-0.0937 -0.0346,-0.0402 -0.0194,-0.0396 -0.008,0.0117 0.0232,0.10268 0.016,0.36391 -0.01,0.51171 l 1.65625,0.28907 c 0.0525,-0.30138 0.0979,-0.70176 -0.008,-1.16993 -0.0529,-0.23408 -0.14734,-0.49646 -0.35547,-0.73828 -0.20813,-0.24181 -0.54705,-0.43148 -0.89453,-0.47656 z m -132.701174,1.77539 v 1.68164 h 1.679688 v -1.68164 z m 132.291014,2.14649 v 1.68164 h 1.68164 v -1.68164 z M 62.660156,115.4375 v 1.68164 h 1.679688 v -1.68164 z m 132.291014,2.14648 v 1.68164 h 1.68164 v -1.68164 z m -132.291014,1.2168 v 1.67969 h 1.679688 v -1.67969 z m 132.291014,2.14453 v 1.68164 h 1.68164 v -1.68164 z m -132.291014,1.2168 v 1.68164 h 1.679688 v -1.68164 z m 132.291014,2.14648 v 1.67969 h 1.68164 v -1.67969 z m -132.291014,1.21485 v 1.68164 h 1.679688 v -1.68164 z m 132.291014,2.14648 v 1.68164 h 1.68164 v -1.68164 z m -132.291014,1.2168 v 1.67969 h 1.679688 v -1.67969 z m 132.291014,2.14453 v 1.68164 h 1.68164 v -1.68164 z m -132.291014,1.2168 v 1.67968 h 1.679688 v -1.67968 z m 132.291014,2.14648 v 1.67969 h 1.68164 v -1.67969 z m -132.291014,1.21485 v 1.68164 h 1.679688 v -1.68164 z m 132.291014,2.14648 v 1.67969 h 1.68164 v -1.67969 z M 62.660156,138.9707 v 1.68164 h 1.679688 v -1.68164 z m 132.291014,2.14649 v 1.68164 h 1.68164 v -1.68164 z m -132.291014,1.21679 v 1.67969 h 1.679688 v -1.67969 z m 132.291014,2.14454 v 1.68164 h 1.68164 v -1.68164 z m -132.291014,1.21679 v 1.68164 h 1.679688 v -1.68164 z m 132.291014,2.14649 v 1.67968 h 1.68164 v -1.67968 z m -132.291014,1.21484 v 1.68164 h 1.679688 v -1.68164 z m 132.291014,2.14648 v 1.68165 h 1.68164 v -1.68165 z m -132.291014,1.21485 v 1.68164 h 1.679688 v -1.68164 z m 132.291014,2.14648 v 1.68164 h 1.68164 v -1.68164 z m -132.291014,1.2168 v 1.67969 h 1.679688 v -1.67969 z m 132.291014,2.14453 v 1.68164 h 1.68164 v -1.68164 z m -132.291014,1.2168 v 1.68164 h 1.679688 v -1.68164 z m 132.291014,2.14648 v 1.67969 h 1.68164 v -1.67969 z m -132.291014,1.21485 v 1.68164 h 1.679688 v -1.68164 z m 132.291014,2.14648 v 1.68164 h 1.68164 v -1.68164 z m -132.291014,1.2168 v 1.67969 h 1.679688 v -1.67969 z m 132.291014,2.14453 v 1.68164 h 1.68164 v -1.68164 z m -132.291014,1.2168 v 1.67968 h 1.679688 v -1.67968 z M 194.95117,171.375 v 1.67969 h 1.68164 V 171.375 Z m -132.291014,1.21484 v 1.68164 h 1.679688 v -1.68164 z m 132.291014,2.14649 v 1.67969 h 1.68164 v -1.67969 z m -132.291014,1.21484 v 1.68164 h 1.679688 v -1.68164 z m 132.291014,2.14649 v 1.68164 h 1.68164 v -1.68164 z m -132.291014,1.21679 v 1.67969 h 1.679688 v -1.67969 z m 132.291014,2.14453 v 1.68164 h 1.68164 v -1.68164 z m -132.291014,1.2168 v 1.68164 h 1.679688 v -1.68164 z m 132.291014,2.14649 v 1.67968 h 1.68164 v -1.67968 z m -132.291014,1.21484 v 1.68164 h 1.679688 v -1.68164 z m 132.291014,2.14648 v 1.68164 h 1.68164 v -1.68164 z m -132.291014,1.21485 v 1.68164 h 1.679688 v -1.68164 z m 132.291014,2.14648 v 1.68164 h 1.68164 v -1.68164 z m -132.291014,1.2168 v 1.67969 h 1.679688 v -1.67969 z m 132.291014,2.14453 v 1.68164 h 1.68164 v -1.68164 z m -132.291014,1.2168 v 1.68164 h 1.679688 v -1.68164 z m 132.291014,2.14648 v 1.67969 h 1.68164 v -1.67969 z m -130.613279,1.14649 -1.675782,0.13867 c -9.6e-5,-0.001 -0.04207,0.3789 -0.01953,0.80664 0.01127,0.21387 0.04301,0.46264 0.171875,0.73437 0.128861,0.27173 0.390298,0.55539 0.71875,0.69727 L 64.199219,200.25 c 0.04283,0.0185 0.120827,0.0997 0.132812,0.125 0.01198,0.0253 -0.0071,-0.0159 -0.01172,-0.10352 -0.0092,-0.17521 0.05202,-0.43965 0.01758,-0.85546 z m 1.199218,0.82617 v 1.68164 h 1.681641 v -1.68164 z m 3.363282,0 v 1.68164 h 1.679687 v -1.68164 z m 3.361328,0 v 1.68164 h 1.68164 v -1.68164 z m 3.361328,0 v 1.68164 h 1.681641 v -1.68164 z m 3.363281,0 v 1.68164 h 1.679688 v -1.68164 z m 3.361328,0 v 1.68164 h 1.679688 v -1.68164 z m 3.361328,0 v 1.68164 h 1.681641 v -1.68164 z m 3.361328,0 v 1.68164 h 1.681641 v -1.68164 z m 3.363282,0 v 1.68164 h 1.679687 v -1.68164 z m 3.361328,0 v 1.68164 h 1.68164 v -1.68164 z m 3.361328,0 v 1.68164 h 1.68164 v -1.68164 z m 3.36133,0 v 1.68164 h 1.68164 v -1.68164 z m 3.36328,0 v 1.68164 h 1.67969 v -1.68164 z m 3.36133,0 v 1.68164 h 1.68164 v -1.68164 z m 3.36133,0 v 1.68164 h 1.68164 v -1.68164 z m 3.36328,0 v 1.68164 h 1.67968 v -1.68164 z m 3.36132,0 v 1.68164 h 1.67969 v -1.68164 z m 3.36133,0 v 1.68164 h 1.68164 v -1.68164 z m 3.36133,0 v 1.68164 h 1.68164 v -1.68164 z m 3.36328,0 v 1.68164 h 1.67969 v -1.68164 z m 3.36133,0 v 1.68164 h 1.68164 v -1.68164 z m 3.36133,0 v 1.68164 h 1.68164 v -1.68164 z m 3.36133,0 v 1.68164 h 1.68164 v -1.68164 z m 3.36328,0 v 1.68164 h 1.67969 v -1.68164 z m 3.36133,0 v 1.68164 h 1.68164 v -1.68164 z m 3.36132,0 v 1.68164 h 1.68164 v -1.68164 z m 3.36329,0 v 1.68164 h 1.67968 v -1.68164 z m 3.36132,0 v 1.68164 h 1.67969 v -1.68164 z m 3.36133,0 v 1.68164 h 1.68164 v -1.68164 z m 3.36133,0 v 1.68164 h 1.68164 v -1.68164 z m 3.36328,0 v 1.68164 h 1.67969 v -1.68164 z m 3.36133,0 v 1.68164 h 1.68164 v -1.68164 z m 3.36133,0 v 1.68164 h 1.68164 v -1.68164 z m 3.36133,0 v 1.68164 h 1.68164 v -1.68164 z m 3.36328,0 v 1.68164 h 1.67968 v -1.68164 z m 3.36132,0 v 1.68164 h 1.68165 v -1.68164 z m 3.36133,0 v 1.68164 h 1.68164 v -1.68164 z m 3.36328,0 v 1.68164 h 1.67969 v -1.68164 z m 3.36133,0 v 1.68164 h 1.67969 v -1.68164 z"
       id="rect6056" />
    <path
       id="rect6079"
       style="fill:#000000;fill-opacity:1;stroke:none;stroke-width:1.32292;stroke-miterlimit:4;stroke-dasharray:1.32292, 1.32292;stroke-dashoffset:0;stroke-opacity:1"
       d="m 31.75,137.58333 h 20.328826 c 0.232082,0 0.41892,0.18684 0.41892,0.41892 v 4.45382 c 0,0.23209 -0.186838,0.41892 -0.41892,0.41892 H 31.75 c -0.232082,0 -0.41892,-0.18683 -0.41892,-0.41892 v -4.45382 c 0,-0.23208 0.186838,-0.41892 0.41892,-0.41892 z" />
    <path
       id="rect6079-9"
       style="fill:#000000;fill-opacity:1;stroke:none;stroke-width:1.32292;stroke-miterlimit:4;stroke-dasharray:1.32292, 1.32292;stroke-dashoffset:0;stroke-opacity:1"
       d="M 31.750004,145.52083 H 52.07883 c 0.232082,0 0.41892,0.18684 0.41892,0.41892 v 4.45382 c 0,0.23209 -0.186838,0.41892 -0.41892,0.41892 H 31.750004 c -0.232082,0 -0.41892,-0.18683 -0.41892,-0.41892 v -4.45382 c 0,-0.23208 0.186838,-0.41892 0.41892,-0.41892 z" />
    <path
       id="rect6079-6"
       style="fill:#000000;fill-opacity:1;stroke:none;stroke-width:1.32292;stroke-miterlimit:4;stroke-dasharray:1.32292, 1.32292;stroke-dashoffset:0;stroke-opacity:1"
       d="m 31.75,153.45833 h 20.328826 c 0.232082,0 0.41892,0.18684 0.41892,0.41892 v 4.45382 c 0,0.23209 -0.186838,0.41892 -0.41892,0.41892 H 31.75 c -0.232082,0 -0.41892,-0.18683 -0.41892,-0.41892 v -4.45382 c 0,-0.23208 0.186838,-0.41892 0.41892,-0.41892 z" />
    <path
       id="rect6079-93"
       style="fill:#000000;fill-opacity:1;stroke:none;stroke-width:1.32292;stroke-miterlimit:4;stroke-dasharray:1.32292, 1.32292;stroke-dashoffset:0;stroke-opacity:1"
       d="m 31.75,161.39583 h 20.328826 c 0.232082,0 0.41892,0.18684 0.41892,0.41892 v 4.45382 c 0,0.23209 -0.186838,0.41892 -0.41892,0.41892 H 31.75 c -0.232082,0 -0.41892,-0.18683 -0.41892,-0.41892 v -4.45382 c 0,-0.23208 0.186838,-0.41892 0.41892,-0.41892 z" />
    <path
       id="rect6079-1"
       style="fill:#000000;fill-opacity:1;stroke:none;stroke-width:1.32292;stroke-miterlimit:4;stroke-dasharray:1.32292, 1.32292;stroke-dashoffset:0;stroke-opacity:1"
       d="m 31.75,169.33333 h 20.328826 c 0.232082,0 0.41892,0.18684 0.41892,0.41892 v 4.45382 c 0,0.23209 -0.186838,0.41892 -0.41892,0.41892 H 31.75 c -0.232082,0 -0.41892,-0.18683 -0.41892,-0.41892 v -4.45382 c 0,-0.23208 0.186838,-0.41892 0.41892,-0.41892 z" />
    <g
       id="g838"
       transform="matrix(0.31854647,0,0,0.31854647,82.190543,109.84501)">
      <path
         style="color:#000000;font-style:normal;font-variant:normal;font-weight:normal;font-stretch:normal;font-size:medium;line-height:normal;font-family:sans-serif;font-variant-ligatures:normal;font-variant-position:normal;font-variant-caps:normal;font-variant-numeric:normal;font-variant-alternates:normal;font-variant-east-asian:normal;font-feature-settings:normal;font-variation-settings:normal;text-indent:0;text-align:start;text-decoration:none;text-decoration-line:none;text-decoration-style:solid;text-decoration-color:#000000;letter-spacing:normal;word-spacing:normal;text-transform:none;writing-mode:lr-tb;direction:ltr;text-orientation:mixed;dominant-baseline:auto;baseline-shift:baseline;text-anchor:start;white-space:normal;shape-padding:0;shape-margin:0;inline-size:0;clip-rule:nonzero;display:inline;overflow:visible;visibility:visible;opacity:1;isolation:auto;mix-blend-mode:normal;color-interpolation:sRGB;color-interpolation-filters:linearRGB;solid-color:#000000;solid-opacity:1;vector-effect:none;fill:#008000;fill-opacity:1;fill-rule:nonzero;stroke:none;stroke-width:4.99999;stroke-linecap:butt;stroke-linejoin:miter;stroke-miterlimit:4;stroke-dasharray:none;stroke-dashoffset:0;stroke-opacity:1;color-rendering:auto;image-rendering:auto;shape-rendering:auto;text-rendering:auto;enable-background:accumulate;stop-color:#000000;stop-opacity:1"
         d="M 113.86902,55.940771 C 81.278454,56.061939 52.473528,77.15776 42.522986,108.19236 c -12.683238,39.55742 9.102293,81.90689 48.65956,94.59061 l 0.0026,0.001 c 29.897094,9.58501 62.602804,-0.40784 82.037414,-25.06559 -28.52044,-16.33766 -80.256937,-46.65856 -80.227203,-47.26536 0.02962,-0.60439 54.086103,-26.38169 84.164883,-40.370148 -9.44106,-14.483469 -23.58335,-25.27245 -40.04665,-30.551107 -7.51194,-2.40851 -15.35601,-3.62032 -23.24457,-3.590994 z"
         id="path3387" />
      <path
         style="color:#000000;font-style:normal;font-variant:normal;font-weight:normal;font-stretch:normal;font-size:medium;line-height:normal;font-family:sans-serif;font-variant-ligatures:normal;font-variant-position:normal;font-variant-caps:normal;font-variant-numeric:normal;font-variant-alternates:normal;font-variant-east-asian:normal;font-feature-settings:normal;font-variation-settings:normal;text-indent:0;text-align:start;text-decoration:none;text-decoration-line:none;text-decoration-style:solid;text-decoration-color:#000000;letter-spacing:normal;word-spacing:normal;text-transform:none;writing-mode:lr-tb;direction:ltr;text-orientation:mixed;dominant-baseline:auto;baseline-shift:baseline;text-anchor:start;white-space:normal;shape-padding:0;shape-margin:0;inline-size:0;clip-rule:nonzero;display:inline;overflow:visible;visibility:visible;opacity:1;isolation:auto;mix-blend-mode:normal;color-interpolation:sRGB;color-interpolation-filters:linearRGB;solid-color:#000000;solid-opacity:1;vector-effect:none;fill:#ffffff;fill-opacity:1;fill-rule:nonzero;stroke:none;stroke-width:4.99999;stroke-linecap:butt;stroke-linejoin:miter;stroke-miterlimit:4;stroke-dasharray:none;stroke-dashoffset:0;stroke-opacity:1;color-rendering:auto;image-rendering:auto;shape-rendering:auto;text-rendering:auto;enable-background:accumulate;stop-color:#000000;stop-opacity:1"
         d="m 90.832767,103.6897 c -6.957326,-2.23081 -10.788953,-9.679233 -8.558207,-16.636578 2.230746,-6.957344 9.679138,-10.789037 16.636502,-8.558352 6.957368,2.230685 10.789118,9.679044 8.558498,16.636428 -2.23062,6.957382 -9.67895,10.789202 -16.636353,8.558642"
         id="path3394" />
      <path
         style="color:#000000;font-style:normal;font-variant:normal;font-weight:normal;font-stretch:normal;font-size:medium;line-height:normal;font-family:sans-serif;font-variant-ligatures:normal;font-variant-position:normal;font-variant-caps:normal;font-variant-numeric:normal;font-variant-alternates:normal;font-variant-east-asian:normal;font-feature-settings:normal;font-variation-settings:normal;text-indent:0;text-align:start;text-decoration:none;text-decoration-line:none;text-decoration-style:solid;text-decoration-color:#000000;letter-spacing:normal;word-spacing:normal;text-transform:none;writing-mode:lr-tb;direction:ltr;text-orientation:mixed;dominant-baseline:auto;baseline-shift:baseline;text-anchor:start;white-space:normal;shape-padding:0;shape-margin:0;inline-size:0;clip-rule:nonzero;display:inline;overflow:visible;visibility:visible;opacity:1;isolation:auto;mix-blend-mode:normal;color-interpolation:sRGB;color-interpolation-filters:linearRGB;solid-color:#000000;solid-opacity:1;vector-effect:none;fill:#ffffff;fill-opacity:1;fill-rule:nonzero;stroke:none;stroke-width:4.99999;stroke-linecap:butt;stroke-linejoin:miter;stroke-miterlimit:4;stroke-dasharray:none;stroke-dashoffset:0;stroke-opacity:1;color-rendering:auto;image-rendering:auto;shape-rendering:auto;text-rendering:auto;enable-background:accumulate;stop-color:#000000;stop-opacity:1"
         d="m 53.68447,147.9832 c 2.306119,2.80438 4.905219,5.32756 7.678031,7.66238 2.668596,2.34998 5.810621,4.00104 8.911177,5.69333 3.690218,1.83438 7.335748,3.74557 10.837516,5.91948 2.718284,1.73156 5.299485,3.65846 7.830754,5.64942 2.026108,1.60511 4.014351,3.25853 5.904169,5.02273 1.548802,1.4324 3.041938,2.92521 4.504285,4.44554 1.018578,1.13255 2.265208,1.99255 3.549538,2.79235 2.55556,1.40208 5.1152,2.79505 7.65074,4.23325 2.17338,1.21481 4.1865,2.70792 6.36616,3.90838 1.46471,0.76055 3.09739,1.07512 4.67321,1.51823 1.36611,0.37515 2.74358,0.72149 4.07468,1.21105 0.64463,0.20791 1.16713,0.58872 1.6302,1.07121 0.24827,0.33578 0.11786,0.16459 0.39217,0.51283 l 4.81662,-2.87914 v 0 c -0.27715,-0.33991 -0.13822,-0.15824 -0.41372,-0.54736 -0.49771,-0.55343 -1.06726,-1.03693 -1.78608,-1.27469 -1.3472,-0.53792 -2.79395,-0.79261 -4.18351,-1.19578 -1.53384,-0.44887 -3.11105,-0.79693 -4.57365,-1.45398 -2.25861,-1.08919 -4.33279,-2.54583 -6.50558,-3.7899 -2.49779,-1.43647 -5.00997,-2.84892 -7.48928,-4.31667 -1.25706,-0.76373 -2.47343,-1.59687 -3.49938,-2.66037 -1.48173,-1.52449 -3.00867,-3.0099 -4.589657,-4.43075 -1.922698,-1.74204 -3.85727,-3.48405 -5.89734,-5.08658 -2.615705,-1.92864 -5.251278,-3.83071 -7.963479,-5.62245 -3.495786,-2.22125 -7.230129,-4.01162 -10.905239,-5.91301 -3.056509,-1.68473 -6.074661,-3.44191 -8.791551,-5.64969 -2.76911,-2.25711 -5.402109,-4.69477 -7.47005,-7.63223 z"
         id="path3398" />
      <path
         style="color:#000000;font-style:normal;font-variant:normal;font-weight:normal;font-stretch:normal;font-size:medium;line-height:normal;font-family:sans-serif;font-variant-ligatures:normal;font-variant-position:normal;font-variant-caps:normal;font-variant-numeric:normal;font-variant-alternates:normal;font-variant-east-asian:normal;font-feature-settings:normal;font-variation-settings:normal;text-indent:0;text-align:start;text-decoration:none;text-decoration-line:none;text-decoration-style:solid;text-decoration-color:#000000;letter-spacing:normal;word-spacing:normal;text-transform:none;writing-mode:lr-tb;direction:ltr;text-orientation:mixed;dominant-baseline:auto;baseline-shift:baseline;text-anchor:start;white-space:normal;shape-padding:0;shape-margin:0;inline-size:0;clip-rule:nonzero;display:inline;overflow:visible;visibility:visible;opacity:1;isolation:auto;mix-blend-mode:normal;color-interpolation:sRGB;color-interpolation-filters:linearRGB;solid-color:#000000;solid-opacity:1;vector-effect:none;fill:#ffffff;fill-opacity:1;fill-rule:nonzero;stroke:none;stroke-width:4.99999;stroke-linecap:butt;stroke-linejoin:miter;stroke-miterlimit:4;stroke-dasharray:none;stroke-dashoffset:0;stroke-opacity:1;color-rendering:auto;image-rendering:auto;shape-rendering:auto;text-rendering:auto;enable-background:accumulate;stop-color:#000000;stop-opacity:1"
         d="m 62.834346,138.91976 c 1.561549,1.63521 3.501506,2.85647 5.33949,4.15397 2.382194,1.79877 4.791392,3.56055 7.184898,5.3442 1.465773,1.04662 2.867149,2.2051 4.528375,2.93007 0.935337,0.34076 1.931543,0.31006 2.885051,0.56817 1.51148,0.56653 2.891232,1.42144 4.295114,2.20668 0.878879,0.46796 1.720313,0.99789 2.567445,1.51976 1.472814,0.79131 2.831663,1.73136 4.136043,2.77228 1.466345,1.25454 2.796223,2.65988 4.054613,4.12027 0.859345,1.04185 1.74735,2.06142 2.570385,3.13238 0.8334,1.10636 1.86163,2.03001 2.89377,2.9435 1.25343,1.25971 2.58051,2.42182 3.99354,3.49635 1.65851,1.18127 3.2645,2.43623 4.96655,3.55452 1.14681,0.7601 2.31168,1.49369 3.44708,2.27076 0.79932,0.625 1.78642,0.85801 2.71726,1.21017 1.3597,0.56013 2.69241,1.18299 4.04288,1.76555 1.13099,0.42788 2.2727,0.80702 3.44182,1.11496 1.04687,0.31214 2.13113,0.45168 3.19483,0.68735 0.85317,0.23405 1.56808,0.78227 2.37043,1.14761 0.77743,0.29633 1.52282,0.68708 2.18764,1.18825 0.59631,0.52111 1.12054,1.12026 1.75101,1.6011 0.10738,0.0625 0.21477,0.12494 0.32215,0.18741 l 4.68867,-3.07998 v 0 c -0.0935,-0.0398 -0.18695,-0.0797 -0.28042,-0.11951 -0.66213,-0.4221 -1.16199,-1.04604 -1.74127,-1.56949 -0.67119,-0.5548 -1.45538,-0.99803 -2.27227,-1.29753 -0.39798,-0.1779 -0.79317,-0.34474 -1.1679,-0.56936 -0.0623,-0.0374 -0.78424,-0.50062 -0.8316,-0.52366 -0.13756,-0.0669 -0.289,-0.10031 -0.4335,-0.15046 -1.06773,-0.23887 -2.15343,-0.36554 -3.213,-0.64577 -1.14633,-0.31283 -2.27017,-0.6606 -3.3884,-1.06286 -1.37003,-0.54663 -2.71725,-1.14392 -4.05868,-1.75698 -0.87423,-0.38902 -1.82369,-0.60061 -2.62792,-1.13023 -1.14927,-0.78142 -2.35767,-1.47434 -3.51913,-2.23784 -1.69625,-1.10112 -3.32394,-2.29833 -4.9278,-3.53012 -1.39262,-1.0745 -2.77185,-2.16389 -3.97623,-3.45475 -0.98791,-0.90952 -1.96294,-1.83527 -2.81528,-2.87657 -0.83912,-1.0735 -1.69483,-2.13639 -2.59361,-3.16047 -1.31785,-1.45148 -2.693464,-2.8504 -4.138867,-4.17576 -1.296079,-1.06494 -2.647272,-2.02867 -4.094792,-2.87954 -0.856988,-0.54045 -1.721728,-1.06222 -2.624992,-1.52263 -1.449292,-0.76095 -2.853661,-1.60803 -4.333314,-2.31021 -0.116308,-0.0413 -0.836528,-0.30628 -1.001143,-0.3342 -0.608084,-0.10313 -1.264886,0.0287 -1.85913,-0.20383 -1.700064,-0.58797 -3.113418,-1.71771 -4.582342,-2.72514 -2.424748,-1.74485 -4.815176,-3.52789 -7.163684,-5.37338 -1.798965,-1.23264 -3.71989,-2.41897 -5.126529,-4.11131 z"
         id="path3400" />
    </g>
    <text
       xml:space="preserve"
       id="text6228"
       style="font-style:normal;font-weight:normal;font-size:10.5833px;line-height:1.25;font-family:sans-serif;letter-spacing:0px;word-spacing:0px;white-space:pre;shape-inside:url(#rect6230);fill:#000000;fill-opacity:1;stroke:none;" />
    <g
       aria-label="123456789"
       transform="rotate(-90)"
       id="text6236"
       style="font-style:normal;font-weight:normal;font-size:7.39398px;line-height:1.25;font-family:sans-serif;letter-spacing:0px;word-spacing:0px;fill:#000000;fill-opacity:1;stroke:none;stroke-width:0.18485"
       inkscape:transform-center-x="31.739777"
       inkscape:transform-center-y="47.188342">
      <path
         d="m -177.12613,59.55162 h 1.19142 v -4.112179 l -1.29611,0.259945 v -0.664303 l 1.28889,-0.259945 h 0.72929 v 4.776482 h 1.19141 v 0.613759 h -3.1049 z"
         style="fill:#c80000;fill-opacity:1;stroke-width:0.18485"
         id="path6874" />
      <path
         d="m -171.92001,59.55162 h 2.54529 v 0.613759 h -3.4226 V 59.55162 q 0.41518,-0.42963 1.13003,-1.151699 0.71846,-0.725678 0.90259,-0.935078 0.3502,-0.393527 0.48739,-0.664303 0.14081,-0.274386 0.14081,-0.537941 0,-0.429631 -0.30327,-0.700406 -0.29966,-0.270776 -0.78345,-0.270776 -0.34298,0 -0.72567,0.119141 -0.37909,0.119142 -0.81233,0.361035 v -0.73651 q 0.44046,-0.176907 0.82316,-0.267165 0.38269,-0.09026 0.7004,-0.09026 0.8376,0 1.33583,0.4188 0.49823,0.418799 0.49823,1.119206 0,0.332151 -0.12637,0.631809 -0.12275,0.296048 -0.45129,0.700407 -0.0903,0.1047 -0.57404,0.606537 -0.48379,0.498227 -1.36471,1.397203 z"
         style="fill:#c80000;fill-opacity:1;stroke-width:0.18485"
         id="path6876" />
      <path
         d="m -165.63441,57.259053 q 0.5235,0.111921 0.81594,0.465735 0.29605,0.353813 0.29605,0.873702 0,0.797886 -0.54877,1.234737 -0.54878,0.436851 -1.55967,0.436851 -0.33937,0 -0.70041,-0.0686 -0.35742,-0.06499 -0.74012,-0.198569 v -0.704016 q 0.30327,0.176906 0.66431,0.267165 0.36103,0.09026 0.75456,0.09026 0.68596,0 1.04339,-0.270775 0.36103,-0.270776 0.36103,-0.787055 0,-0.476565 -0.33576,-0.74373 -0.33215,-0.270776 -0.92786,-0.270776 h -0.6282 v -0.599317 h 0.65708 q 0.53794,0 0.82316,-0.21301 0.28522,-0.21662 0.28522,-0.620979 0,-0.415189 -0.29605,-0.63542 -0.29244,-0.223841 -0.84121,-0.223841 -0.29966,0 -0.64264,0.06499 -0.34298,0.06499 -0.75456,0.202179 v -0.649861 q 0.41519,-0.115531 0.77622,-0.173297 0.36465,-0.05777 0.68597,-0.05777 0.83038,0 1.31416,0.379086 0.48379,0.375475 0.48379,1.018116 0,0.447683 -0.25634,0.758172 -0.25633,0.306879 -0.72929,0.42602 z"
         style="fill:#c80000;fill-opacity:1;stroke-width:0.18485"
         id="path6878" />
      <path
         d="m -161.13592,55.410558 -1.84127,2.877443 h 1.84127 z m -0.19135,-0.63542 h 0.91703 v 3.512863 h 0.769 v 0.606537 h -0.769 v 1.270841 h -0.72568 v -1.270841 h -2.43337 v -0.704016 z"
         style="fill:#c80000;fill-opacity:1;stroke-width:0.18485"
         id="path6880" />
      <path
         d="m -158.42816,54.775138 h 2.863 v 0.613758 h -2.19509 v 1.321385 q 0.15885,-0.05416 0.31771,-0.07943 0.15885,-0.02888 0.31771,-0.02888 0.90258,0 1.42969,0.494617 0.52711,0.494617 0.52711,1.339437 0,0.870092 -0.54155,1.353878 -0.54155,0.480175 -1.52717,0.480175 -0.33937,0 -0.69319,-0.05776 -0.3502,-0.05777 -0.72568,-0.173296 v -0.7329 q 0.32494,0.176907 0.67153,0.263555 0.34659,0.08665 0.7329,0.08665 0.62459,0 0.98923,-0.328541 0.36465,-0.328541 0.36465,-0.891754 0,-0.563213 -0.36465,-0.891755 -0.36464,-0.328541 -0.98923,-0.328541 -0.29244,0 -0.58488,0.06499 -0.28883,0.06499 -0.59209,0.20218 z"
         style="fill:#c80000;fill-opacity:1;stroke-width:0.18485"
         id="path6882" />
      <path
         d="m -152.08118,57.179626 q -0.49101,0 -0.77984,0.335762 -0.28521,0.335761 -0.28521,0.920637 0,0.581265 0.28521,0.920637 0.28883,0.335762 0.77984,0.335762 0.491,0 0.77622,-0.335762 0.28883,-0.339372 0.28883,-0.920637 0,-0.584876 -0.28883,-0.920637 -0.28522,-0.335762 -0.77622,-0.335762 z m 1.44774,-2.285346 v 0.664302 q -0.27438,-0.129972 -0.55599,-0.198568 -0.278,-0.0686 -0.55238,-0.0686 -0.72207,0 -1.10477,0.487396 -0.37908,0.487396 -0.43324,1.47302 0.21301,-0.3141 0.53433,-0.480176 0.32132,-0.169686 0.70763,-0.169686 0.81233,0 1.28167,0.494617 0.47296,0.491007 0.47296,1.339437 0,0.830378 -0.49101,1.332216 -0.49101,0.501837 -1.30694,0.501837 -0.93508,0 -1.4297,-0.714847 -0.49462,-0.718458 -0.49462,-2.079557 0,-1.278061 0.60654,-2.036233 0.60654,-0.761782 1.62827,-0.761782 0.27438,0 0.55238,0.05416 0.28161,0.05416 0.58487,0.162466 z"
         style="fill:#c80000;fill-opacity:1;stroke-width:0.18485"
         id="path6884" />
      <path
         d="m -149.21096,54.775138 h 3.46593 v 0.31049 l -1.95681,5.079751 h -0.76178 l 1.84128,-4.776483 h -2.58862 z"
         style="fill:#c80000;fill-opacity:1;stroke-width:0.18485"
         id="path6886" />
      <path
         d="m -142.76289,57.605646 q -0.51989,0 -0.81955,0.277997 -0.29605,0.277996 -0.29605,0.765392 0,0.487396 0.29605,0.765392 0.29966,0.277997 0.81955,0.277997 0.51989,0 0.81955,-0.277997 0.29965,-0.281606 0.29965,-0.765392 0,-0.487396 -0.29965,-0.765392 -0.29605,-0.277997 -0.81955,-0.277997 z m -0.72929,-0.310489 q -0.46934,-0.115531 -0.7329,-0.436852 -0.25994,-0.32132 -0.25994,-0.783444 0,-0.646251 0.45851,-1.021726 0.46212,-0.375476 1.26362,-0.375476 0.8051,0 1.26362,0.375476 0.45851,0.375475 0.45851,1.021726 0,0.462124 -0.26355,0.783444 -0.25995,0.321321 -0.72568,0.436852 0.52711,0.122751 0.81955,0.480175 0.29604,0.357424 0.29604,0.873703 0,0.783444 -0.48017,1.202244 -0.47657,0.418799 -1.36832,0.418799 -0.89176,0 -1.37193,-0.418799 -0.47657,-0.4188 -0.47657,-1.202244 0,-0.516279 0.29605,-0.873703 0.29605,-0.357424 0.82316,-0.480175 z m -0.26717,-1.151699 q 0,0.418799 0.25995,0.653472 0.26355,0.234672 0.73651,0.234672 0.46934,0 0.7329,-0.234672 0.26716,-0.234673 0.26716,-0.653472 0,-0.4188 -0.26716,-0.653472 -0.26356,-0.234672 -0.7329,-0.234672 -0.47296,0 -0.73651,0.234672 -0.25995,0.234672 -0.25995,0.653472 z"
         style="fill:#c80000;fill-opacity:1;stroke-width:0.18485"
         id="path6888" />
      <path
         d="m -139.59662,60.053458 v -0.664303 q 0.27439,0.129972 0.55599,0.198569 0.28161,0.0686 0.55238,0.0686 0.72207,0 1.10116,-0.483785 0.3827,-0.487397 0.43685,-1.47663 -0.2094,0.310489 -0.53072,0.476565 -0.32132,0.166076 -0.71124,0.166076 -0.80871,0 -1.28167,-0.487397 -0.46934,-0.491006 -0.46934,-1.339436 0,-0.830379 0.491,-1.332216 0.49101,-0.501838 1.30695,-0.501838 0.93508,0 1.42608,0.718458 0.49462,0.714848 0.49462,2.079557 0,1.274451 -0.60654,2.036233 -0.60293,0.758171 -1.62465,0.758171 -0.27439,0 -0.55599,-0.05416 -0.28161,-0.05415 -0.58488,-0.162465 z m 1.45136,-2.285346 q 0.491,0 0.77622,-0.335762 0.28883,-0.335762 0.28883,-0.920637 0,-0.581265 -0.28883,-0.917027 -0.28522,-0.339372 -0.77622,-0.339372 -0.49101,0 -0.77984,0.339372 -0.28521,0.335762 -0.28521,0.917027 0,0.584875 0.28521,0.920637 0.28883,0.335762 0.77984,0.335762 z"
         style="fill:#c80000;fill-opacity:1;stroke-width:0.18485"
         id="path6890" />
    </g>
    <text
       xml:space="preserve"
       id="text6238"
       style="font-style:normal;font-weight:normal;font-size:10.5833px;line-height:1.25;font-family:sans-serif;letter-spacing:0px;word-spacing:0px;white-space:pre;shape-inside:url(#rect6240);fill:#000000;fill-opacity:1;stroke:none;" />
    <g
       aria-label="10-17-29-30-45-20"
       id="text6246"
       style="font-style:normal;font-weight:normal;font-size:5.17224px;line-height:1.25;font-family:sans-serif;letter-spacing:0px;word-spacing:0px;fill:#000000;fill-opacity:1;stroke:none;stroke-width:0.129306">
      <path
         d="m 96.69252,184.69603 h 0.833417 v -2.87655 l -0.906657,0.18183 v -0.46469 l 0.901606,-0.18184 h 0.510153 v 3.34125 h 0.833417 v 0.42934 H 96.69252 Z"
         style="fill:#0000c8;fill-opacity:1;stroke-width:0.129306"
         id="path6893" />
      <path
         d="m 100.98588,181.69068 q -0.39398,0 -0.59349,0.38892 -0.19699,0.38641 -0.19699,1.16426 0,0.77533 0.19699,1.16426 0.19951,0.3864 0.59349,0.3864 0.39651,0 0.5935,-0.3864 0.19951,-0.38893 0.19951,-1.16426 0,-0.77785 -0.19951,-1.16426 -0.19699,-0.38892 -0.5935,-0.38892 z m 0,-0.40409 q 0.63391,0 0.96727,0.50258 0.33589,0.50005 0.33589,1.45469 0,0.95212 -0.33589,1.4547 -0.33336,0.50005 -0.96727,0.50005 -0.6339,0 -0.96979,-0.50005 -0.333369,-0.50258 -0.333369,-1.4547 0,-0.95464 0.333369,-1.45469 0.33589,-0.50258 0.96979,-0.50258 z"
         style="fill:#0000c8;fill-opacity:1;stroke-width:0.129306"
         id="path6895" />
      <path
         d="m 102.88506,183.50146 h 1.36125 v 0.41419 h -1.36125 z"
         style="fill:#0000c8;fill-opacity:1;stroke-width:0.129306"
         id="path6897" />
      <path
         d="m 105.14034,184.69603 h 0.83342 v -2.87655 l -0.90666,0.18183 v -0.46469 l 0.90161,-0.18184 h 0.51015 v 3.34125 h 0.83342 v 0.42934 h -2.17194 z"
         style="fill:#0000c8;fill-opacity:1;stroke-width:0.129306"
         id="path6899" />
      <path
         d="m 108.21389,181.35478 h 2.42448 v 0.2172 l -1.36882,3.55339 h -0.53288 l 1.288,-3.34125 h -1.81078 z"
         style="fill:#0000c8;fill-opacity:1;stroke-width:0.129306"
         id="path6901" />
      <path
         d="m 111.33289,183.50146 h 1.36125 v 0.41419 h -1.36125 z"
         style="fill:#0000c8;fill-opacity:1;stroke-width:0.129306"
         id="path6903" />
      <path
         d="m 113.93921,184.69603 h 1.78048 v 0.42934 h -2.39418 v -0.42934 q 0.29044,-0.30054 0.79049,-0.80564 0.50257,-0.50762 0.63137,-0.6541 0.24498,-0.27528 0.34095,-0.4647 0.0985,-0.19194 0.0985,-0.3763 0,-0.30053 -0.21214,-0.48995 -0.20962,-0.18941 -0.54804,-0.18941 -0.23992,0 -0.50762,0.0833 -0.26518,0.0833 -0.56824,0.25255 v -0.5152 q 0.30811,-0.12375 0.57581,-0.18689 0.26771,-0.0631 0.48995,-0.0631 0.58592,0 0.93444,0.29296 0.34852,0.29296 0.34852,0.78291 0,0.23235 -0.0884,0.44196 -0.0859,0.2071 -0.31569,0.48995 -0.0631,0.0732 -0.40156,0.42429 -0.33842,0.34852 -0.95464,0.97737 z"
         style="fill:#0000c8;fill-opacity:1;stroke-width:0.129306"
         id="path6905" />
      <path
         d="m 116.80566,185.04708 v -0.4647 q 0.19194,0.0909 0.38893,0.1389 0.19699,0.048 0.3864,0.048 0.5051,0 0.77028,-0.33842 0.26771,-0.34094 0.30559,-1.03293 -0.14648,0.21719 -0.37125,0.33337 -0.22477,0.11617 -0.49753,0.11617 -0.56571,0 -0.89655,-0.34094 -0.32832,-0.34347 -0.32832,-0.93697 0,-0.58086 0.34347,-0.93191 0.34347,-0.35105 0.91424,-0.35105 0.6541,0 0.99757,0.50258 0.346,0.50005 0.346,1.45469 0,0.89151 -0.42429,1.42439 -0.42176,0.53036 -1.13648,0.53036 -0.19194,0 -0.38893,-0.0379 -0.19699,-0.0379 -0.40913,-0.11364 z m 1.01526,-1.59865 q 0.34347,0 0.54298,-0.23487 0.20204,-0.23488 0.20204,-0.64401 0,-0.4066 -0.20204,-0.64148 -0.19951,-0.23739 -0.54298,-0.23739 -0.34347,0 -0.54551,0.23739 -0.19952,0.23488 -0.19952,0.64148 0,0.40913 0.19952,0.64401 0.20204,0.23487 0.54551,0.23487 z"
         style="fill:#0000c8;fill-opacity:1;stroke-width:0.129306"
         id="path6907" />
      <path
         d="m 119.78071,183.50146 h 1.36125 v 0.41419 h -1.36125 z"
         style="fill:#0000c8;fill-opacity:1;stroke-width:0.129306"
         id="path6909" />
      <path
         d="m 123.49321,183.09233 q 0.3662,0.0783 0.57076,0.32579 0.20709,0.2475 0.20709,0.61118 0,0.55813 -0.38387,0.86372 -0.38388,0.30559 -1.09102,0.30559 -0.2374,0 -0.48995,-0.048 -0.25003,-0.0455 -0.51773,-0.1389 v -0.49248 q 0.21214,0.12375 0.46469,0.18689 0.25255,0.0631 0.52783,0.0631 0.47985,0 0.72988,-0.18941 0.25255,-0.18942 0.25255,-0.55056 0,-0.33337 -0.23488,-0.52026 -0.23234,-0.18941 -0.64905,-0.18941 h -0.43944 v -0.41924 h 0.45964 q 0.3763,0 0.57582,-0.149 0.19951,-0.15153 0.19951,-0.43439 0,-0.29043 -0.20709,-0.44449 -0.20456,-0.15658 -0.58844,-0.15658 -0.20962,0 -0.44954,0.0455 -0.23992,0.0455 -0.52783,0.14143 v -0.45459 q 0.29043,-0.0808 0.54298,-0.12123 0.25508,-0.0404 0.47985,-0.0404 0.58086,0 0.91928,0.26518 0.33842,0.26266 0.33842,0.7122 0,0.31316 -0.17931,0.53035 -0.17931,0.21467 -0.51015,0.29801 z"
         style="fill:#0000c8;fill-opacity:1;stroke-width:0.129306"
         id="path6911" />
      <path
         d="m 126.32935,181.69068 q -0.39398,0 -0.59349,0.38892 -0.19699,0.38641 -0.19699,1.16426 0,0.77533 0.19699,1.16426 0.19951,0.3864 0.59349,0.3864 0.39651,0 0.5935,-0.3864 0.19951,-0.38893 0.19951,-1.16426 0,-0.77785 -0.19951,-1.16426 -0.19699,-0.38892 -0.5935,-0.38892 z m 0,-0.40409 q 0.6339,0 0.96727,0.50258 0.33589,0.50005 0.33589,1.45469 0,0.95212 -0.33589,1.4547 -0.33337,0.50005 -0.96727,0.50005 -0.6339,0 -0.96979,-0.50005 -0.33337,-0.50258 -0.33337,-1.4547 0,-0.95464 0.33337,-1.45469 0.33589,-0.50258 0.96979,-0.50258 z"
         style="fill:#0000c8;fill-opacity:1;stroke-width:0.129306"
         id="path6913" />
      <path
         d="m 128.22853,183.50146 h 1.36125 v 0.41419 h -1.36125 z"
         style="fill:#0000c8;fill-opacity:1;stroke-width:0.129306"
         id="path6915" />
      <path
         d="m 131.79707,181.79927 -1.28801,2.01283 h 1.28801 z m -0.13385,-0.44449 h 0.64148 v 2.45732 h 0.53793 v 0.42429 h -0.53793 v 0.88898 h -0.50763 v -0.88898 h -1.70219 v -0.49248 z"
         style="fill:#0000c8;fill-opacity:1;stroke-width:0.129306"
         id="path6917" />
      <path
         d="m 133.69121,181.35478 h 2.00272 v 0.42934 h -1.53551 v 0.92434 q 0.11113,-0.0379 0.22225,-0.0556 0.11112,-0.0202 0.22224,-0.0202 0.63138,0 1.0001,0.34599 0.36873,0.346 0.36873,0.93697 0,0.60865 -0.37883,0.94706 -0.37882,0.3359 -1.06829,0.3359 -0.23739,0 -0.48489,-0.0404 -0.24498,-0.0404 -0.50763,-0.12123 v -0.51267 q 0.22729,0.12375 0.46974,0.18436 0.24245,0.0606 0.51268,0.0606 0.43691,0 0.69199,-0.22982 0.25508,-0.22982 0.25508,-0.6238 0,-0.39398 -0.25508,-0.6238 -0.25508,-0.22982 -0.69199,-0.22982 -0.20457,0 -0.40913,0.0455 -0.20204,0.0454 -0.41418,0.14142 z"
         style="fill:#0000c8;fill-opacity:1;stroke-width:0.129306"
         id="path6919" />
      <path
         d="m 136.67636,183.50146 h 1.36124 v 0.41419 h -1.36124 z"
         style="fill:#0000c8;fill-opacity:1;stroke-width:0.129306"
         id="path6921" />
      <path
         d="m 139.28268,184.69603 h 1.78048 v 0.42934 h -2.39418 v -0.42934 q 0.29044,-0.30054 0.79049,-0.80564 0.50257,-0.50762 0.63137,-0.6541 0.24498,-0.27528 0.34095,-0.4647 0.0985,-0.19194 0.0985,-0.3763 0,-0.30053 -0.21214,-0.48995 -0.20962,-0.18941 -0.54804,-0.18941 -0.23992,0 -0.50762,0.0833 -0.26518,0.0833 -0.56824,0.25255 v -0.5152 q 0.30811,-0.12375 0.57581,-0.18689 0.26771,-0.0631 0.48995,-0.0631 0.58592,0 0.93444,0.29296 0.34852,0.29296 0.34852,0.78291 0,0.23235 -0.0884,0.44196 -0.0859,0.2071 -0.31569,0.48995 -0.0631,0.0732 -0.40156,0.42429 -0.33841,0.34852 -0.95464,0.97737 z"
         style="fill:#0000c8;fill-opacity:1;stroke-width:0.129306"
         id="path6923" />
      <path
         d="m 143.225,181.69068 q -0.39398,0 -0.5935,0.38892 -0.19699,0.38641 -0.19699,1.16426 0,0.77533 0.19699,1.16426 0.19952,0.3864 0.5935,0.3864 0.3965,0 0.59349,-0.3864 0.19952,-0.38893 0.19952,-1.16426 0,-0.77785 -0.19952,-1.16426 -0.19699,-0.38892 -0.59349,-0.38892 z m 0,-0.40409 q 0.6339,0 0.96727,0.50258 0.33589,0.50005 0.33589,1.45469 0,0.95212 -0.33589,1.4547 -0.33337,0.50005 -0.96727,0.50005 -0.63391,0 -0.9698,-0.50005 -0.33337,-0.50258 -0.33337,-1.4547 0,-0.95464 0.33337,-1.45469 0.33589,-0.50258 0.9698,-0.50258 z"
         style="fill:#0000c8;fill-opacity:1;stroke-width:0.129306"
         id="path6925" />
    </g>
  </g>
</svg>
