<?xml version="1.0" encoding="UTF-8" standalone="no"?>
<svg
   xmlns:dc="http://purl.org/dc/elements/1.1/"
   xmlns:cc="http://creativecommons.org/ns#"
   xmlns:rdf="http://www.w3.org/1999/02/22-rdf-syntax-ns#"
   xmlns:svg="http://www.w3.org/2000/svg"
   xmlns="http://www.w3.org/2000/svg"
   xmlns:sodipodi="http://sodipodi.sourceforge.net/DTD/sodipodi-0.dtd"
   xmlns:inkscape="http://www.inkscape.org/namespaces/inkscape"
   width="210mm"
   height="297mm"
   viewBox="0 0 210 297"
   version="1.1"
   id="svg5218"
   inkscape:version="1.0.2-2 (e86c870879, 2021-01-15)"
   sodipodi:docname="tickt_template.svg">
  <defs
     id="defs5212" />
  <sodipodi:namedview
     id="base"
     pagecolor="#ffffff"
     bordercolor="#666666"
     borderopacity="1.0"
     inkscape:pageopacity="0.0"
     inkscape:pageshadow="2"
     inkscape:zoom="0.65810357"
     inkscape:cx="352.25221"
     inkscape:cy="620.13739"
     inkscape:document-units="mm"
     inkscape:current-layer="layer1"
     inkscape:document-rotation="0"
     showgrid="true"
     inkscape:window-width="1920"
     inkscape:window-height="1017"
     inkscape:window-x="1912"
     inkscape:window-y="-8"
     inkscape:window-maximized="1">
    <inkscape:grid
       type="xygrid"
       id="grid5877" />
  </sodipodi:namedview>
  <metadata
     id="metadata5215">
    <rdf:RDF>
      <cc:Work
         rdf:about="">
        <dc:format>image/svg+xml</dc:format>
        <dc:type
           rdf:resource="http://purl.org/dc/dcmitype/StillImage" />
        <dc:title></dc:title>
      </cc:Work>
    </rdf:RDF>
  </metadata>
  <g
     inkscape:label="Layer 1"
     inkscape:groupmode="layer"
     id="layer1">
    <g
       id="rect6062"
       style="opacity:1">
      <path
         style="color:#000000;font-style:normal;font-variant:normal;font-weight:normal;font-stretch:normal;font-size:medium;line-height:normal;font-family:sans-serif;font-variant-ligatures:normal;font-variant-position:normal;font-variant-caps:normal;font-variant-numeric:normal;font-variant-alternates:normal;font-variant-east-asian:normal;font-feature-settings:normal;font-variation-settings:normal;text-indent:0;text-align:start;text-decoration:none;text-decoration-line:none;text-decoration-style:solid;text-decoration-color:#000000;letter-spacing:normal;word-spacing:normal;text-transform:none;writing-mode:lr-tb;direction:ltr;text-orientation:mixed;dominant-baseline:auto;baseline-shift:baseline;text-anchor:start;white-space:normal;shape-padding:0;shape-margin:0;inline-size:0;clip-rule:nonzero;display:inline;overflow:visible;visibility:visible;isolation:auto;mix-blend-mode:normal;color-interpolation:sRGB;color-interpolation-filters:linearRGB;solid-color:#000000;solid-opacity:1;vector-effect:none;fill:#000000;fill-opacity:1;fill-rule:nonzero;stroke:none;stroke-width:1.25563;stroke-linecap:butt;stroke-linejoin:miter;stroke-miterlimit:4;stroke-dasharray:1.25563, 1.25563000000000002;stroke-dashoffset:0;stroke-opacity:1.0;color-rendering:auto;image-rendering:auto;shape-rendering:auto;text-rendering:auto;enable-background:accumulate;stop-color:#000000;stop-opacity:1;"
         d="M 0.27446485,105.83334 H 203.45472 c 0.15206,0 0.27447,0.12241 0.27447,0.27447 v 99.99273 c 0,0.15205 -0.12241,0.27446 -0.27447,0.27446 H 0.27446485 C 0.12241132,206.375 0,206.25259 0,206.10054 v -99.99273 c 0,-0.15206 0.12241132,-0.27447 0.27446485,-0.27447 z"
         id="path6139" />
      <path
         style="color:#000000;font-style:normal;font-variant:normal;font-weight:normal;font-stretch:normal;font-size:medium;line-height:normal;font-family:sans-serif;font-variant-ligatures:normal;font-variant-position:normal;font-variant-caps:normal;font-variant-numeric:normal;font-variant-alternates:normal;font-variant-east-asian:normal;font-feature-settings:normal;font-variation-settings:normal;text-indent:0;text-align:start;text-decoration:none;text-decoration-line:none;text-decoration-style:solid;text-decoration-color:#000000;letter-spacing:normal;word-spacing:normal;text-transform:none;writing-mode:lr-tb;direction:ltr;text-orientation:mixed;dominant-baseline:auto;baseline-shift:baseline;text-anchor:start;white-space:normal;shape-padding:0;shape-margin:0;inline-size:0;clip-rule:nonzero;display:inline;overflow:visible;visibility:visible;isolation:auto;mix-blend-mode:normal;color-interpolation:sRGB;color-interpolation-filters:linearRGB;solid-color:#000000;solid-opacity:1;vector-effect:none;fill:#ffffff;fill-opacity:1;fill-rule:nonzero;stroke:none;stroke-linecap:butt;stroke-linejoin:miter;stroke-miterlimit:4;stroke-dasharray:1.25563, 1.25563000000000002;stroke-dashoffset:0;stroke-opacity:1.0;color-rendering:auto;image-rendering:auto;shape-rendering:auto;text-rendering:auto;enable-background:accumulate;stop-color:#000000;stop-opacity:1;"
         d="M 0.27539062 105.20508 L 0.27539062 105.21289 C -0.13097803 105.21211 -0.46939521 105.44962 -0.58789062 105.8418 L 0.26953125 106.10156 L 0.27539062 105.77539 L 0.27539062 106.10352 L 0.61328125 106.20508 C 0.56256105 106.37294 0.44536856 106.45039 0.27539062 106.45312 L 0.27539062 106.46094 L 1.5292969 106.46094 L 1.5292969 105.20508 L 0.28515625 105.20508 L 0.27539062 105.20508 z M 2.7851562 105.20508 L 2.7851562 106.46094 L 4.0410156 106.46094 L 4.0410156 105.20508 L 2.7851562 105.20508 z M 5.296875 105.20508 L 5.296875 106.46094 L 6.5527344 106.46094 L 6.5527344 105.20508 L 5.296875 105.20508 z M 7.8085938 105.20508 L 7.8085938 106.46094 L 9.0644531 106.46094 L 9.0644531 105.20508 L 7.8085938 105.20508 z M 10.320312 105.20508 L 10.320312 106.46094 L 11.574219 106.46094 L 11.574219 105.20508 L 10.320312 105.20508 z M 12.830078 105.20508 L 12.830078 106.46094 L 14.085938 106.46094 L 14.085938 105.20508 L 12.830078 105.20508 z M 15.341797 105.20508 L 15.341797 106.46094 L 16.597656 106.46094 L 16.597656 105.20508 L 15.341797 105.20508 z M 17.853516 105.20508 L 17.853516 106.46094 L 19.109375 106.46094 L 19.109375 105.20508 L 17.853516 105.20508 z M 20.365234 105.20508 L 20.365234 106.46094 L 21.621094 106.46094 L 21.621094 105.20508 L 20.365234 105.20508 z M 22.875 105.20508 L 22.875 106.46094 L 24.130859 106.46094 L 24.130859 105.20508 L 22.875 105.20508 z M 25.386719 105.20508 L 25.386719 106.46094 L 26.642578 106.46094 L 26.642578 105.20508 L 25.386719 105.20508 z M 27.898438 105.20508 L 27.898438 106.46094 L 29.154297 106.46094 L 29.154297 105.20508 L 27.898438 105.20508 z M 30.410156 105.20508 L 30.410156 106.46094 L 31.666016 106.46094 L 31.666016 105.20508 L 30.410156 105.20508 z M 32.919922 105.20508 L 32.919922 106.46094 L 34.175781 106.46094 L 34.175781 105.20508 L 32.919922 105.20508 z M 35.431641 105.20508 L 35.431641 106.46094 L 36.6875 106.46094 L 36.6875 105.20508 L 35.431641 105.20508 z M 37.943359 105.20508 L 37.943359 106.46094 L 39.199219 106.46094 L 39.199219 105.20508 L 37.943359 105.20508 z M 40.455078 105.20508 L 40.455078 106.46094 L 41.710938 106.46094 L 41.710938 105.20508 L 40.455078 105.20508 z M 42.966797 105.20508 L 42.966797 106.46094 L 44.220703 106.46094 L 44.220703 105.20508 L 42.966797 105.20508 z M 45.476562 105.20508 L 45.476562 106.46094 L 46.732422 106.46094 L 46.732422 105.20508 L 45.476562 105.20508 z M 47.988281 105.20508 L 47.988281 106.46094 L 49.244141 106.46094 L 49.244141 105.20508 L 47.988281 105.20508 z M 50.5 105.20508 L 50.5 106.46094 L 51.755859 106.46094 L 51.755859 105.20508 L 50.5 105.20508 z M 53.011719 105.20508 L 53.011719 106.46094 L 54.265625 106.46094 L 54.265625 105.20508 L 53.011719 105.20508 z M 55.521484 105.20508 L 55.521484 106.46094 L 56.777344 106.46094 L 56.777344 105.20508 L 55.521484 105.20508 z M 58.033203 105.20508 L 58.033203 106.46094 L 59.289062 106.46094 L 59.289062 105.20508 L 58.033203 105.20508 z M 60.544922 105.20508 L 60.544922 106.46094 L 61.800781 106.46094 L 61.800781 105.20508 L 60.544922 105.20508 z M 63.056641 105.20508 L 63.056641 106.46094 L 64.3125 106.46094 L 64.3125 105.20508 L 63.056641 105.20508 z M 65.566406 105.20508 L 65.566406 106.46094 L 66.822266 106.46094 L 66.822266 105.20508 L 65.566406 105.20508 z M 68.078125 105.20508 L 68.078125 106.46094 L 69.333984 106.46094 L 69.333984 105.20508 L 68.078125 105.20508 z M 70.589844 105.20508 L 70.589844 106.46094 L 71.845703 106.46094 L 71.845703 105.20508 L 70.589844 105.20508 z M 73.101562 105.20508 L 73.101562 106.46094 L 74.357422 106.46094 L 74.357422 105.20508 L 73.101562 105.20508 z M 75.611328 105.20508 L 75.611328 106.46094 L 76.867188 106.46094 L 76.867188 105.20508 L 75.611328 105.20508 z M 78.123047 105.20508 L 78.123047 106.46094 L 79.378906 106.46094 L 79.378906 105.20508 L 78.123047 105.20508 z M 80.634766 105.20508 L 80.634766 106.46094 L 81.890625 106.46094 L 81.890625 105.20508 L 80.634766 105.20508 z M 83.146484 105.20508 L 83.146484 106.46094 L 84.402344 106.46094 L 84.402344 105.20508 L 83.146484 105.20508 z M 85.658203 105.20508 L 85.658203 106.46094 L 86.912109 106.46094 L 86.912109 105.20508 L 85.658203 105.20508 z M 88.167969 105.20508 L 88.167969 106.46094 L 89.423828 106.46094 L 89.423828 105.20508 L 88.167969 105.20508 z M 90.679688 105.20508 L 90.679688 106.46094 L 91.935547 106.46094 L 91.935547 105.20508 L 90.679688 105.20508 z M 93.191406 105.20508 L 93.191406 106.46094 L 94.447266 106.46094 L 94.447266 105.20508 L 93.191406 105.20508 z M 95.703125 105.20508 L 95.703125 106.46094 L 96.957031 106.46094 L 96.957031 105.20508 L 95.703125 105.20508 z M 98.212891 105.20508 L 98.212891 106.46094 L 99.46875 106.46094 L 99.46875 105.20508 L 98.212891 105.20508 z M 100.72461 105.20508 L 100.72461 106.46094 L 101.98047 106.46094 L 101.98047 105.20508 L 100.72461 105.20508 z M 103.23633 105.20508 L 103.23633 106.46094 L 104.49219 106.46094 L 104.49219 105.20508 L 103.23633 105.20508 z M 105.74805 105.20508 L 105.74805 106.46094 L 107.00391 106.46094 L 107.00391 105.20508 L 105.74805 105.20508 z M 108.25781 105.20508 L 108.25781 106.46094 L 109.51367 106.46094 L 109.51367 105.20508 L 108.25781 105.20508 z M 110.76953 105.20508 L 110.76953 106.46094 L 112.02539 106.46094 L 112.02539 105.20508 L 110.76953 105.20508 z M 113.28125 105.20508 L 113.28125 106.46094 L 114.53711 106.46094 L 114.53711 105.20508 L 113.28125 105.20508 z M 115.79297 105.20508 L 115.79297 106.46094 L 117.04883 106.46094 L 117.04883 105.20508 L 115.79297 105.20508 z M 118.30273 105.20508 L 118.30273 106.46094 L 119.55859 106.46094 L 119.55859 105.20508 L 118.30273 105.20508 z M 120.81445 105.20508 L 120.81445 106.46094 L 122.07031 106.46094 L 122.07031 105.20508 L 120.81445 105.20508 z M 123.32617 105.20508 L 123.32617 106.46094 L 124.58203 106.46094 L 124.58203 105.20508 L 123.32617 105.20508 z M 125.83789 105.20508 L 125.83789 106.46094 L 127.09375 106.46094 L 127.09375 105.20508 L 125.83789 105.20508 z M 128.34961 105.20508 L 128.34961 106.46094 L 129.60352 106.46094 L 129.60352 105.20508 L 128.34961 105.20508 z M 130.85938 105.20508 L 130.85938 106.46094 L 132.11523 106.46094 L 132.11523 105.20508 L 130.85938 105.20508 z M 133.37109 105.20508 L 133.37109 106.46094 L 134.62695 106.46094 L 134.62695 105.20508 L 133.37109 105.20508 z M 135.88281 105.20508 L 135.88281 106.46094 L 137.13867 106.46094 L 137.13867 105.20508 L 135.88281 105.20508 z M 138.39453 105.20508 L 138.39453 106.46094 L 139.64844 106.46094 L 139.64844 105.20508 L 138.39453 105.20508 z M 140.9043 105.20508 L 140.9043 106.46094 L 142.16016 106.46094 L 142.16016 105.20508 L 140.9043 105.20508 z M 143.41602 105.20508 L 143.41602 106.46094 L 144.67188 106.46094 L 144.67188 105.20508 L 143.41602 105.20508 z M 145.92773 105.20508 L 145.92773 106.46094 L 147.18359 106.46094 L 147.18359 105.20508 L 145.92773 105.20508 z M 148.43945 105.20508 L 148.43945 106.46094 L 149.69531 106.46094 L 149.69531 105.20508 L 148.43945 105.20508 z M 150.94922 105.20508 L 150.94922 106.46094 L 152.20508 106.46094 L 152.20508 105.20508 L 150.94922 105.20508 z M 153.46094 105.20508 L 153.46094 106.46094 L 154.7168 106.46094 L 154.7168 105.20508 L 153.46094 105.20508 z M 155.97266 105.20508 L 155.97266 106.46094 L 157.22852 106.46094 L 157.22852 105.20508 L 155.97266 105.20508 z M 158.48438 105.20508 L 158.48438 106.46094 L 159.74023 106.46094 L 159.74023 105.20508 L 158.48438 105.20508 z M 160.99414 105.20508 L 160.99414 106.46094 L 162.25 106.46094 L 162.25 105.20508 L 160.99414 105.20508 z M 163.50586 105.20508 L 163.50586 106.46094 L 164.76172 106.46094 L 164.76172 105.20508 L 163.50586 105.20508 z M 166.01758 105.20508 L 166.01758 106.46094 L 167.27344 106.46094 L 167.27344 105.20508 L 166.01758 105.20508 z M 168.5293 105.20508 L 168.5293 106.46094 L 169.78516 106.46094 L 169.78516 105.20508 L 168.5293 105.20508 z M 171.04102 105.20508 L 171.04102 106.46094 L 172.29492 106.46094 L 172.29492 105.20508 L 171.04102 105.20508 z M 173.55078 105.20508 L 173.55078 106.46094 L 174.80664 106.46094 L 174.80664 105.20508 L 173.55078 105.20508 z M 176.0625 105.20508 L 176.0625 106.46094 L 177.31836 106.46094 L 177.31836 105.20508 L 176.0625 105.20508 z M 178.57422 105.20508 L 178.57422 106.46094 L 179.83008 106.46094 L 179.83008 105.20508 L 178.57422 105.20508 z M 181.08594 105.20508 L 181.08594 106.46094 L 182.33984 106.46094 L 182.33984 105.20508 L 181.08594 105.20508 z M 183.5957 105.20508 L 183.5957 106.46094 L 184.85156 106.46094 L 184.85156 105.20508 L 183.5957 105.20508 z M 186.10742 105.20508 L 186.10742 106.46094 L 187.36328 106.46094 L 187.36328 105.20508 L 186.10742 105.20508 z M 188.61914 105.20508 L 188.61914 106.46094 L 189.875 106.46094 L 189.875 105.20508 L 188.61914 105.20508 z M 191.13086 105.20508 L 191.13086 106.46094 L 192.38672 106.46094 L 192.38672 105.20508 L 191.13086 105.20508 z M 193.64062 105.20508 L 193.64062 106.46094 L 194.89648 106.46094 L 194.89648 105.20508 L 193.64062 105.20508 z M 196.15234 105.20508 L 196.15234 106.46094 L 197.4082 106.46094 L 197.4082 105.20508 L 196.15234 105.20508 z M 198.66406 105.20508 L 198.66406 106.46094 L 199.91992 106.46094 L 199.91992 105.20508 L 198.66406 105.20508 z M 201.17578 105.20508 L 201.17578 106.46094 L 202.43164 106.46094 L 202.43164 105.20508 L 201.17578 105.20508 z M 204.12109 105.5 L 203.19922 106.35156 C 203.09665 106.24036 203.10686 106.08922 203.10156 106.11719 C 203.09627 106.14515 203.05812 106.2582 203.00781 106.40039 C 202.9575 106.54258 202.87456 106.7113 202.90234 107.00977 C 202.91623 107.159 202.98095 107.35152 203.11133 107.49805 C 203.2417 107.64457 203.41216 107.72792 203.56445 107.76953 L 203.89453 106.55859 C 203.9091 106.56257 203.98248 106.5895 204.04883 106.66406 C 204.11517 106.73863 204.14758 106.84331 204.15234 106.89453 C 204.16188 106.99698 204.15306 106.92673 204.19141 106.81836 C 204.22975 106.70999 204.29599 106.56052 204.33594 106.34961 C 204.37588 106.1387 204.37214 105.77218 204.12109 105.5 z M -0.62695312 107.27734 L -0.62695312 108.5332 L 0.62695312 108.5332 L 0.62695312 107.27734 L -0.62695312 107.27734 z M 203.10156 108.41992 L 203.10156 109.67578 L 204.35742 109.67578 L 204.35742 108.41992 L 203.10156 108.41992 z M -0.62695312 109.78906 L -0.62695312 111.04492 L 0.62695312 111.04492 L 0.62695312 109.78906 L -0.62695312 109.78906 z M 203.10156 110.93164 L 203.10156 112.1875 L 204.35742 112.1875 L 204.35742 110.93164 L 203.10156 110.93164 z M -0.62695312 112.30078 L -0.62695312 113.55664 L 0.62695312 113.55664 L 0.62695312 112.30078 L -0.62695312 112.30078 z M 203.10156 113.44141 L 203.10156 114.69727 L 204.35742 114.69727 L 204.35742 113.44141 L 203.10156 113.44141 z M -0.62695312 114.8125 L -0.62695312 116.06836 L 0.62695312 116.06836 L 0.62695312 114.8125 L -0.62695312 114.8125 z M 203.10156 115.95312 L 203.10156 117.20898 L 204.35742 117.20898 L 204.35742 115.95312 L 203.10156 115.95312 z M -0.62695312 117.32227 L -0.62695312 118.57812 L 0.62695312 118.57812 L 0.62695312 117.32227 L -0.62695312 117.32227 z M 203.10156 118.46484 L 203.10156 119.7207 L 204.35742 119.7207 L 204.35742 118.46484 L 203.10156 118.46484 z M -0.62695312 119.83398 L -0.62695312 121.08984 L 0.62695312 121.08984 L 0.62695312 119.83398 L -0.62695312 119.83398 z M 203.10156 120.97656 L 203.10156 122.23242 L 204.35742 122.23242 L 204.35742 120.97656 L 203.10156 120.97656 z M -0.62695312 122.3457 L -0.62695312 123.60156 L 0.62695312 123.60156 L 0.62695312 122.3457 L -0.62695312 122.3457 z M 203.10156 123.48633 L 203.10156 124.74219 L 204.35742 124.74219 L 204.35742 123.48633 L 203.10156 123.48633 z M -0.62695312 124.85742 L -0.62695312 126.11328 L 0.62695312 126.11328 L 0.62695312 124.85742 L -0.62695312 124.85742 z M 203.10156 125.99805 L 203.10156 127.25391 L 204.35742 127.25391 L 204.35742 125.99805 L 203.10156 125.99805 z M -0.62695312 127.36914 L -0.62695312 128.62305 L 0.62695312 128.62305 L 0.62695312 127.36914 L -0.62695312 127.36914 z M 203.10156 128.50977 L 203.10156 129.76562 L 204.35742 129.76562 L 204.35742 128.50977 L 203.10156 128.50977 z M -0.62695312 129.87891 L -0.62695312 131.13477 L 0.62695312 131.13477 L 0.62695312 129.87891 L -0.62695312 129.87891 z M 203.10156 131.02148 L 203.10156 132.27734 L 204.35742 132.27734 L 204.35742 131.02148 L 203.10156 131.02148 z M -0.62695312 132.39062 L -0.62695312 133.64648 L 0.62695312 133.64648 L 0.62695312 132.39062 L -0.62695312 132.39062 z M 203.10156 133.5332 L 203.10156 134.78711 L 204.35742 134.78711 L 204.35742 133.5332 L 203.10156 133.5332 z M -0.62695312 134.90234 L -0.62695312 136.1582 L 0.62695312 136.1582 L 0.62695312 134.90234 L -0.62695312 134.90234 z M 203.10156 136.04297 L 203.10156 137.29883 L 204.35742 137.29883 L 204.35742 136.04297 L 203.10156 136.04297 z M -0.62695312 137.41406 L -0.62695312 138.66797 L 0.62695312 138.66797 L 0.62695312 137.41406 L -0.62695312 137.41406 z M 203.10156 138.55469 L 203.10156 139.81055 L 204.35742 139.81055 L 204.35742 138.55469 L 203.10156 138.55469 z M -0.62695312 139.92383 L -0.62695312 141.17969 L 0.62695312 141.17969 L 0.62695312 139.92383 L -0.62695312 139.92383 z M 203.10156 141.06641 L 203.10156 142.32227 L 204.35742 142.32227 L 204.35742 141.06641 L 203.10156 141.06641 z M -0.62695312 142.43555 L -0.62695312 143.69141 L 0.62695312 143.69141 L 0.62695312 142.43555 L -0.62695312 142.43555 z M 203.10156 143.57812 L 203.10156 144.83203 L 204.35742 144.83203 L 204.35742 143.57812 L 203.10156 143.57812 z M -0.62695312 144.94727 L -0.62695312 146.20312 L 0.62695312 146.20312 L 0.62695312 144.94727 L -0.62695312 144.94727 z M 203.10156 146.08789 L 203.10156 147.34375 L 204.35742 147.34375 L 204.35742 146.08789 L 203.10156 146.08789 z M -0.62695312 147.45898 L -0.62695312 148.71484 L 0.62695312 148.71484 L 0.62695312 147.45898 L -0.62695312 147.45898 z M 203.10156 148.59961 L 203.10156 149.85547 L 204.35742 149.85547 L 204.35742 148.59961 L 203.10156 148.59961 z M -0.62695312 149.96875 L -0.62695312 151.22461 L 0.62695312 151.22461 L 0.62695312 149.96875 L -0.62695312 149.96875 z M 203.10156 151.11133 L 203.10156 152.36719 L 204.35742 152.36719 L 204.35742 151.11133 L 203.10156 151.11133 z M -0.62695312 152.48047 L -0.62695312 153.73633 L 0.62695312 153.73633 L 0.62695312 152.48047 L -0.62695312 152.48047 z M 203.10156 153.62305 L 203.10156 154.87891 L 204.35742 154.87891 L 204.35742 153.62305 L 203.10156 153.62305 z M -0.62695312 154.99219 L -0.62695312 156.24805 L 0.62695312 156.24805 L 0.62695312 154.99219 L -0.62695312 154.99219 z M 203.10156 156.13281 L 203.10156 157.38867 L 204.35742 157.38867 L 204.35742 156.13281 L 203.10156 156.13281 z M -0.62695312 157.50391 L -0.62695312 158.75977 L 0.62695312 158.75977 L 0.62695312 157.50391 L -0.62695312 157.50391 z M 203.10156 158.64453 L 203.10156 159.90039 L 204.35742 159.90039 L 204.35742 158.64453 L 203.10156 158.64453 z M -0.62695312 160.01367 L -0.62695312 161.26953 L 0.62695312 161.26953 L 0.62695312 160.01367 L -0.62695312 160.01367 z M 203.10156 161.15625 L 203.10156 162.41211 L 204.35742 162.41211 L 204.35742 161.15625 L 203.10156 161.15625 z M -0.62695312 162.52539 L -0.62695312 163.78125 L 0.62695312 163.78125 L 0.62695312 162.52539 L -0.62695312 162.52539 z M 203.10156 163.66797 L 203.10156 164.92383 L 204.35742 164.92383 L 204.35742 163.66797 L 203.10156 163.66797 z M -0.62695312 165.03711 L -0.62695312 166.29297 L 0.62695312 166.29297 L 0.62695312 165.03711 L -0.62695312 165.03711 z M 203.10156 166.17773 L 203.10156 167.43359 L 204.35742 167.43359 L 204.35742 166.17773 L 203.10156 166.17773 z M -0.62695312 167.54883 L -0.62695312 168.80469 L 0.62695312 168.80469 L 0.62695312 167.54883 L -0.62695312 167.54883 z M 203.10156 168.68945 L 203.10156 169.94531 L 204.35742 169.94531 L 204.35742 168.68945 L 203.10156 168.68945 z M -0.62695312 170.06055 L -0.62695312 171.31445 L 0.62695312 171.31445 L 0.62695312 170.06055 L -0.62695312 170.06055 z M 203.10156 171.20117 L 203.10156 172.45703 L 204.35742 172.45703 L 204.35742 171.20117 L 203.10156 171.20117 z M -0.62695312 172.57031 L -0.62695312 173.82617 L 0.62695312 173.82617 L 0.62695312 172.57031 L -0.62695312 172.57031 z M 203.10156 173.71289 L 203.10156 174.96875 L 204.35742 174.96875 L 204.35742 173.71289 L 203.10156 173.71289 z M -0.62695312 175.08203 L -0.62695312 176.33789 L 0.62695312 176.33789 L 0.62695312 175.08203 L -0.62695312 175.08203 z M 203.10156 176.22461 L 203.10156 177.47852 L 204.35742 177.47852 L 204.35742 176.22461 L 203.10156 176.22461 z M -0.62695312 177.59375 L -0.62695312 178.84961 L 0.62695312 178.84961 L 0.62695312 177.59375 L -0.62695312 177.59375 z M 203.10156 178.73438 L 203.10156 179.99023 L 204.35742 179.99023 L 204.35742 178.73438 L 203.10156 178.73438 z M -0.62695312 180.10547 L -0.62695312 181.35938 L 0.62695312 181.35938 L 0.62695312 180.10547 L -0.62695312 180.10547 z M 203.10156 181.24609 L 203.10156 182.50195 L 204.35742 182.50195 L 204.35742 181.24609 L 203.10156 181.24609 z M -0.62695312 182.61523 L -0.62695312 183.87109 L 0.62695312 183.87109 L 0.62695312 182.61523 L -0.62695312 182.61523 z M 203.10156 183.75781 L 203.10156 185.01367 L 204.35742 185.01367 L 204.35742 183.75781 L 203.10156 183.75781 z M -0.62695312 185.12695 L -0.62695312 186.38281 L 0.62695312 186.38281 L 0.62695312 185.12695 L -0.62695312 185.12695 z M 203.10156 186.26953 L 203.10156 187.52344 L 204.35742 187.52344 L 204.35742 186.26953 L 203.10156 186.26953 z M -0.62695312 187.63867 L -0.62695312 188.89453 L 0.62695312 188.89453 L 0.62695312 187.63867 L -0.62695312 187.63867 z M 203.10156 188.7793 L 203.10156 190.03516 L 204.35742 190.03516 L 204.35742 188.7793 L 203.10156 188.7793 z M -0.62695312 190.15039 L -0.62695312 191.40625 L 0.62695312 191.40625 L 0.62695312 190.15039 L -0.62695312 190.15039 z M 203.10156 191.29102 L 203.10156 192.54688 L 204.35742 192.54688 L 204.35742 191.29102 L 203.10156 191.29102 z M -0.62695312 192.66016 L -0.62695312 193.91602 L 0.62695312 193.91602 L 0.62695312 192.66016 L -0.62695312 192.66016 z M 203.10156 193.80273 L 203.10156 195.05859 L 204.35742 195.05859 L 204.35742 193.80273 L 203.10156 193.80273 z M -0.62695312 195.17188 L -0.62695312 196.42773 L 0.62695312 196.42773 L 0.62695312 195.17188 L -0.62695312 195.17188 z M 203.10156 196.31445 L 203.10156 197.57031 L 204.35742 197.57031 L 204.35742 196.31445 L 203.10156 196.31445 z M -0.62695312 197.68359 L -0.62695312 198.93945 L 0.62695312 198.93945 L 0.62695312 197.68359 L -0.62695312 197.68359 z M 203.10156 198.82422 L 203.10156 200.08008 L 204.35742 200.08008 L 204.35742 198.82422 L 203.10156 198.82422 z M -0.62695312 200.19531 L -0.62695312 201.45117 L 0.62695312 201.45117 L 0.62695312 200.19531 L -0.62695312 200.19531 z M 203.10156 201.33594 L 203.10156 202.5918 L 204.35742 202.5918 L 204.35742 201.33594 L 203.10156 201.33594 z M -0.62695312 202.70508 L -0.62695312 203.96094 L 0.62695312 203.96094 L 0.62695312 202.70508 L -0.62695312 202.70508 z M 203.10156 203.84766 L 203.10156 205.10352 L 204.35742 205.10352 L 204.35742 203.84766 L 203.10156 203.84766 z M 0.28710938 204.6582 L -0.28710938 205.77539 C -0.50629049 205.66248 -0.56554301 205.45882 -0.57617188 205.39844 C -0.58680074 205.33805 -0.57987562 205.34571 -0.58203125 205.37305 C -0.58634251 205.42772 -0.61016267 205.56408 -0.62695312 205.72461 C -0.64374358 205.88514 -0.66469665 206.07312 -0.59765625 206.32227 C -0.53061585 206.57141 -0.2501975 206.9116 0.0859375 206.98242 L 0.34570312 205.75391 C 0.44543156 205.77492 0.60489813 205.95768 0.61523438 205.99609 C 0.62557062 206.03451 0.61224525 205.95874 0.62304688 205.85547 C 0.6338485 205.7522 0.65775096 205.62505 0.66992188 205.4707 C 0.67600733 205.39353 0.68321016 205.31066 0.66015625 205.17969 C 0.63710234 205.04871 0.55130743 204.7943 0.28710938 204.6582 z M 202.50586 205.52344 C 202.18728 205.56658 201.85157 205.90598 201.76758 206.20508 L 202.97656 206.54492 C 202.97856 206.53782 202.79694 206.75091 202.67383 206.76758 C 202.55071 206.78425 202.60231 206.76421 202.70117 206.80273 C 202.80004 206.84126 202.94239 206.91101 203.14453 206.96289 C 203.34667 207.01477 203.69911 207.04695 203.99609 206.82227 L 203.23828 205.82227 C 203.36255 205.72825 203.49372 205.75551 203.45703 205.74609 C 203.42034 205.73668 203.3038 205.69031 203.15625 205.63281 C 203.0087 205.57531 202.82444 205.4803 202.50586 205.52344 z M 1.4707031 205.74805 L 1.4707031 207.00195 L 2.7265625 207.00195 L 2.7265625 205.74805 L 1.4707031 205.74805 z M 3.9824219 205.74805 L 3.9824219 207.00195 L 5.2382812 207.00195 L 5.2382812 205.74805 L 3.9824219 205.74805 z M 6.4941406 205.74805 L 6.4941406 207.00195 L 7.75 207.00195 L 7.75 205.74805 L 6.4941406 205.74805 z M 9.0058594 205.74805 L 9.0058594 207.00195 L 10.259766 207.00195 L 10.259766 205.74805 L 9.0058594 205.74805 z M 11.515625 205.74805 L 11.515625 207.00195 L 12.771484 207.00195 L 12.771484 205.74805 L 11.515625 205.74805 z M 14.027344 205.74805 L 14.027344 207.00195 L 15.283203 207.00195 L 15.283203 205.74805 L 14.027344 205.74805 z M 16.539062 205.74805 L 16.539062 207.00195 L 17.794922 207.00195 L 17.794922 205.74805 L 16.539062 205.74805 z M 19.050781 205.74805 L 19.050781 207.00195 L 20.306641 207.00195 L 20.306641 205.74805 L 19.050781 205.74805 z M 21.560547 205.74805 L 21.560547 207.00195 L 22.816406 207.00195 L 22.816406 205.74805 L 21.560547 205.74805 z M 24.072266 205.74805 L 24.072266 207.00195 L 25.328125 207.00195 L 25.328125 205.74805 L 24.072266 205.74805 z M 26.583984 205.74805 L 26.583984 207.00195 L 27.839844 207.00195 L 27.839844 205.74805 L 26.583984 205.74805 z M 29.095703 205.74805 L 29.095703 207.00195 L 30.351562 207.00195 L 30.351562 205.74805 L 29.095703 205.74805 z M 31.605469 205.74805 L 31.605469 207.00195 L 32.861328 207.00195 L 32.861328 205.74805 L 31.605469 205.74805 z M 34.117188 205.74805 L 34.117188 207.00195 L 35.373047 207.00195 L 35.373047 205.74805 L 34.117188 205.74805 z M 36.628906 205.74805 L 36.628906 207.00195 L 37.884766 207.00195 L 37.884766 205.74805 L 36.628906 205.74805 z M 39.140625 205.74805 L 39.140625 207.00195 L 40.396484 207.00195 L 40.396484 205.74805 L 39.140625 205.74805 z M 41.652344 205.74805 L 41.652344 207.00195 L 42.90625 207.00195 L 42.90625 205.74805 L 41.652344 205.74805 z M 44.162109 205.74805 L 44.162109 207.00195 L 45.417969 207.00195 L 45.417969 205.74805 L 44.162109 205.74805 z M 46.673828 205.74805 L 46.673828 207.00195 L 47.929688 207.00195 L 47.929688 205.74805 L 46.673828 205.74805 z M 49.185547 205.74805 L 49.185547 207.00195 L 50.441406 207.00195 L 50.441406 205.74805 L 49.185547 205.74805 z M 51.697266 205.74805 L 51.697266 207.00195 L 52.951172 207.00195 L 52.951172 205.74805 L 51.697266 205.74805 z M 54.207031 205.74805 L 54.207031 207.00195 L 55.462891 207.00195 L 55.462891 205.74805 L 54.207031 205.74805 z M 56.71875 205.74805 L 56.71875 207.00195 L 57.974609 207.00195 L 57.974609 205.74805 L 56.71875 205.74805 z M 59.230469 205.74805 L 59.230469 207.00195 L 60.486328 207.00195 L 60.486328 205.74805 L 59.230469 205.74805 z M 61.742188 205.74805 L 61.742188 207.00195 L 62.998047 207.00195 L 62.998047 205.74805 L 61.742188 205.74805 z M 64.251953 205.74805 L 64.251953 207.00195 L 65.507812 207.00195 L 65.507812 205.74805 L 64.251953 205.74805 z M 66.763672 205.74805 L 66.763672 207.00195 L 68.019531 207.00195 L 68.019531 205.74805 L 66.763672 205.74805 z M 69.275391 205.74805 L 69.275391 207.00195 L 70.53125 207.00195 L 70.53125 205.74805 L 69.275391 205.74805 z M 71.787109 205.74805 L 71.787109 207.00195 L 73.042969 207.00195 L 73.042969 205.74805 L 71.787109 205.74805 z M 74.296875 205.74805 L 74.296875 207.00195 L 75.552734 207.00195 L 75.552734 205.74805 L 74.296875 205.74805 z M 76.808594 205.74805 L 76.808594 207.00195 L 78.064453 207.00195 L 78.064453 205.74805 L 76.808594 205.74805 z M 79.320312 205.74805 L 79.320312 207.00195 L 80.576172 207.00195 L 80.576172 205.74805 L 79.320312 205.74805 z M 81.832031 205.74805 L 81.832031 207.00195 L 83.087891 207.00195 L 83.087891 205.74805 L 81.832031 205.74805 z M 84.34375 205.74805 L 84.34375 207.00195 L 85.597656 207.00195 L 85.597656 205.74805 L 84.34375 205.74805 z M 86.853516 205.74805 L 86.853516 207.00195 L 88.109375 207.00195 L 88.109375 205.74805 L 86.853516 205.74805 z M 89.365234 205.74805 L 89.365234 207.00195 L 90.621094 207.00195 L 90.621094 205.74805 L 89.365234 205.74805 z M 91.876953 205.74805 L 91.876953 207.00195 L 93.132812 207.00195 L 93.132812 205.74805 L 91.876953 205.74805 z M 94.388672 205.74805 L 94.388672 207.00195 L 95.642578 207.00195 L 95.642578 205.74805 L 94.388672 205.74805 z M 96.898438 205.74805 L 96.898438 207.00195 L 98.154297 207.00195 L 98.154297 205.74805 L 96.898438 205.74805 z M 99.410156 205.74805 L 99.410156 207.00195 L 100.66602 207.00195 L 100.66602 205.74805 L 99.410156 205.74805 z M 101.92188 205.74805 L 101.92188 207.00195 L 103.17773 207.00195 L 103.17773 205.74805 L 101.92188 205.74805 z M 104.43359 205.74805 L 104.43359 207.00195 L 105.68945 207.00195 L 105.68945 205.74805 L 104.43359 205.74805 z M 106.94336 205.74805 L 106.94336 207.00195 L 108.19922 207.00195 L 108.19922 205.74805 L 106.94336 205.74805 z M 109.45508 205.74805 L 109.45508 207.00195 L 110.71094 207.00195 L 110.71094 205.74805 L 109.45508 205.74805 z M 111.9668 205.74805 L 111.9668 207.00195 L 113.22266 207.00195 L 113.22266 205.74805 L 111.9668 205.74805 z M 114.47852 205.74805 L 114.47852 207.00195 L 115.73438 207.00195 L 115.73438 205.74805 L 114.47852 205.74805 z M 116.98828 205.74805 L 116.98828 207.00195 L 118.24414 207.00195 L 118.24414 205.74805 L 116.98828 205.74805 z M 119.5 205.74805 L 119.5 207.00195 L 120.75586 207.00195 L 120.75586 205.74805 L 119.5 205.74805 z M 122.01172 205.74805 L 122.01172 207.00195 L 123.26758 207.00195 L 123.26758 205.74805 L 122.01172 205.74805 z M 124.52344 205.74805 L 124.52344 207.00195 L 125.7793 207.00195 L 125.7793 205.74805 L 124.52344 205.74805 z M 127.03516 205.74805 L 127.03516 207.00195 L 128.28906 207.00195 L 128.28906 205.74805 L 127.03516 205.74805 z M 129.54492 205.74805 L 129.54492 207.00195 L 130.80078 207.00195 L 130.80078 205.74805 L 129.54492 205.74805 z M 132.05664 205.74805 L 132.05664 207.00195 L 133.3125 207.00195 L 133.3125 205.74805 L 132.05664 205.74805 z M 134.56836 205.74805 L 134.56836 207.00195 L 135.82422 207.00195 L 135.82422 205.74805 L 134.56836 205.74805 z M 137.08008 205.74805 L 137.08008 207.00195 L 138.33398 207.00195 L 138.33398 205.74805 L 137.08008 205.74805 z M 139.58984 205.74805 L 139.58984 207.00195 L 140.8457 207.00195 L 140.8457 205.74805 L 139.58984 205.74805 z M 142.10156 205.74805 L 142.10156 207.00195 L 143.35742 207.00195 L 143.35742 205.74805 L 142.10156 205.74805 z M 144.61328 205.74805 L 144.61328 207.00195 L 145.86914 207.00195 L 145.86914 205.74805 L 144.61328 205.74805 z M 147.125 205.74805 L 147.125 207.00195 L 148.38086 207.00195 L 148.38086 205.74805 L 147.125 205.74805 z M 149.63477 205.74805 L 149.63477 207.00195 L 150.89062 207.00195 L 150.89062 205.74805 L 149.63477 205.74805 z M 152.14648 205.74805 L 152.14648 207.00195 L 153.40234 207.00195 L 153.40234 205.74805 L 152.14648 205.74805 z M 154.6582 205.74805 L 154.6582 207.00195 L 155.91406 207.00195 L 155.91406 205.74805 L 154.6582 205.74805 z M 157.16992 205.74805 L 157.16992 207.00195 L 158.42578 207.00195 L 158.42578 205.74805 L 157.16992 205.74805 z M 159.67969 205.74805 L 159.67969 207.00195 L 160.93555 207.00195 L 160.93555 205.74805 L 159.67969 205.74805 z M 162.19141 205.74805 L 162.19141 207.00195 L 163.44727 207.00195 L 163.44727 205.74805 L 162.19141 205.74805 z M 164.70312 205.74805 L 164.70312 207.00195 L 165.95898 207.00195 L 165.95898 205.74805 L 164.70312 205.74805 z M 167.21484 205.74805 L 167.21484 207.00195 L 168.4707 207.00195 L 168.4707 205.74805 L 167.21484 205.74805 z M 169.72656 205.74805 L 169.72656 207.00195 L 170.98047 207.00195 L 170.98047 205.74805 L 169.72656 205.74805 z M 172.23633 205.74805 L 172.23633 207.00195 L 173.49219 207.00195 L 173.49219 205.74805 L 172.23633 205.74805 z M 174.74805 205.74805 L 174.74805 207.00195 L 176.00391 207.00195 L 176.00391 205.74805 L 174.74805 205.74805 z M 177.25977 205.74805 L 177.25977 207.00195 L 178.51562 207.00195 L 178.51562 205.74805 L 177.25977 205.74805 z M 179.77148 205.74805 L 179.77148 207.00195 L 181.02539 207.00195 L 181.02539 205.74805 L 179.77148 205.74805 z M 182.28125 205.74805 L 182.28125 207.00195 L 183.53711 207.00195 L 183.53711 205.74805 L 182.28125 205.74805 z M 184.79297 205.74805 L 184.79297 207.00195 L 186.04883 207.00195 L 186.04883 205.74805 L 184.79297 205.74805 z M 187.30469 205.74805 L 187.30469 207.00195 L 188.56055 207.00195 L 188.56055 205.74805 L 187.30469 205.74805 z M 189.81641 205.74805 L 189.81641 207.00195 L 191.07227 207.00195 L 191.07227 205.74805 L 189.81641 205.74805 z M 192.32617 205.74805 L 192.32617 207.00195 L 193.58203 207.00195 L 193.58203 205.74805 L 192.32617 205.74805 z M 194.83789 205.74805 L 194.83789 207.00195 L 196.09375 207.00195 L 196.09375 205.74805 L 194.83789 205.74805 z M 197.34961 205.74805 L 197.34961 207.00195 L 198.60547 207.00195 L 198.60547 205.74805 L 197.34961 205.74805 z M 199.86133 205.74805 L 199.86133 207.00195 L 201.11719 207.00195 L 201.11719 205.74805 L 199.86133 205.74805 z "
         id="path6141" />
    </g>
    <path
       style="color:#000000;font-style:normal;font-variant:normal;font-weight:normal;font-stretch:normal;font-size:medium;line-height:normal;font-family:sans-serif;font-variant-ligatures:normal;font-variant-position:normal;font-variant-caps:normal;font-variant-numeric:normal;font-variant-alternates:normal;font-variant-east-asian:normal;font-feature-settings:normal;font-variation-settings:normal;text-indent:0;text-align:start;text-decoration:none;text-decoration-line:none;text-decoration-style:solid;text-decoration-color:#000000;letter-spacing:normal;word-spacing:normal;text-transform:none;writing-mode:lr-tb;direction:ltr;text-orientation:mixed;dominant-baseline:auto;baseline-shift:baseline;text-anchor:start;white-space:normal;shape-padding:0;shape-margin:0;inline-size:0;clip-rule:nonzero;display:inline;overflow:visible;visibility:visible;isolation:auto;mix-blend-mode:normal;color-interpolation:sRGB;color-interpolation-filters:linearRGB;solid-color:#000000;solid-opacity:1;vector-effect:none;fill:#ffffff;fill-opacity:1;fill-rule:nonzero;stroke-width:4.99999;stroke-linecap:butt;stroke-linejoin:miter;stroke-miterlimit:4;stroke-dasharray:none;stroke-dashoffset:0;stroke-opacity:1;color-rendering:auto;image-rendering:auto;shape-rendering:auto;text-rendering:auto;enable-background:accumulate;stop-color:#000000;stop-opacity:1;stroke:none;opacity:1"
       d="M 17.766732,117.66897 H 188.15211 c 0.23208,0 0.41892,0.18684 0.41892,0.41892 v 74.7574 c 0,0.23208 -0.18684,0.41892 -0.41892,0.41892 H 17.766732 c -0.232082,0 -0.41892,-0.18684 -0.41892,-0.41892 v -74.7574 c 0,-0.23208 0.186838,-0.41892 0.41892,-0.41892 z"
       id="rect5785" />
    <path
       style="color:#000000;font-style:normal;font-variant:normal;font-weight:normal;font-stretch:normal;font-size:medium;line-height:normal;font-family:sans-serif;font-variant-ligatures:normal;font-variant-position:normal;font-variant-caps:normal;font-variant-numeric:normal;font-variant-alternates:normal;font-variant-east-asian:normal;font-feature-settings:normal;font-variation-settings:normal;text-indent:0;text-align:start;text-decoration:none;text-decoration-line:none;text-decoration-style:solid;text-decoration-color:#000000;letter-spacing:normal;word-spacing:normal;text-transform:none;writing-mode:lr-tb;direction:ltr;text-orientation:mixed;dominant-baseline:auto;baseline-shift:baseline;text-anchor:start;white-space:normal;shape-padding:0;shape-margin:0;inline-size:0;clip-rule:nonzero;display:inline;overflow:visible;visibility:visible;isolation:auto;mix-blend-mode:normal;color-interpolation:sRGB;color-interpolation-filters:linearRGB;solid-color:#000000;solid-opacity:1;vector-effect:none;fill:#000000;fill-opacity:1;fill-rule:nonzero;stroke-width:4.99999;stroke-linecap:butt;stroke-linejoin:miter;stroke-miterlimit:4;stroke-dasharray:none;stroke-dashoffset:0;stroke-opacity:1;color-rendering:auto;image-rendering:auto;shape-rendering:auto;text-rendering:auto;enable-background:accumulate;stop-color:#000000;stop-opacity:1;stroke:none;opacity:1"
       d="m 15.875,129.64584 c -5.466467,-1.75278 -8.4770308,-7.60511 -6.7243063,-13.07159 1.7527293,-5.46649 7.6050373,-8.4771 13.0715383,-6.72442 5.466501,1.75268 8.477168,7.60496 6.724534,13.07148 -1.752633,5.46652 -7.604889,8.47724 -13.071421,6.72465"
       id="path5791" />
    <path
       style="color:#000000;font-style:normal;font-variant:normal;font-weight:normal;font-stretch:normal;font-size:medium;line-height:normal;font-family:sans-serif;font-variant-ligatures:normal;font-variant-position:normal;font-variant-caps:normal;font-variant-numeric:normal;font-variant-alternates:normal;font-variant-east-asian:normal;font-feature-settings:normal;font-variation-settings:normal;text-indent:0;text-align:start;text-decoration:none;text-decoration-line:none;text-decoration-style:solid;text-decoration-color:#000000;letter-spacing:normal;word-spacing:normal;text-transform:none;writing-mode:lr-tb;direction:ltr;text-orientation:mixed;dominant-baseline:auto;baseline-shift:baseline;text-anchor:start;white-space:normal;shape-padding:0;shape-margin:0;inline-size:0;clip-rule:nonzero;display:inline;overflow:visible;visibility:visible;isolation:auto;mix-blend-mode:normal;color-interpolation:sRGB;color-interpolation-filters:linearRGB;solid-color:#000000;solid-opacity:1;vector-effect:none;fill:#000000;fill-opacity:1;fill-rule:nonzero;stroke-width:4.99999;stroke-linecap:butt;stroke-linejoin:miter;stroke-miterlimit:4;stroke-dasharray:none;stroke-dashoffset:0;stroke-opacity:1;color-rendering:auto;image-rendering:auto;shape-rendering:auto;text-rendering:auto;enable-background:accumulate;stop-color:#000000;stop-opacity:1;stroke:none;opacity:1"
       d="m 17.197916,204.29612 c -5.466472,-1.75278 -8.4770371,-7.60511 -6.724306,-13.0716 1.752729,-5.46649 7.605038,-8.4771 13.071539,-6.72442 5.466501,1.75268 8.477168,7.60496 6.724534,13.07148 -1.752633,5.46652 -7.604889,8.47724 -13.071421,6.72465"
       id="path5791-5" />
    <path
       style="color:#000000;font-style:normal;font-variant:normal;font-weight:normal;font-stretch:normal;font-size:medium;line-height:normal;font-family:sans-serif;font-variant-ligatures:normal;font-variant-position:normal;font-variant-caps:normal;font-variant-numeric:normal;font-variant-alternates:normal;font-variant-east-asian:normal;font-feature-settings:normal;font-variation-settings:normal;text-indent:0;text-align:start;text-decoration:none;text-decoration-line:none;text-decoration-style:solid;text-decoration-color:#000000;letter-spacing:normal;word-spacing:normal;text-transform:none;writing-mode:lr-tb;direction:ltr;text-orientation:mixed;dominant-baseline:auto;baseline-shift:baseline;text-anchor:start;white-space:normal;shape-padding:0;shape-margin:0;inline-size:0;clip-rule:nonzero;display:inline;overflow:visible;visibility:visible;isolation:auto;mix-blend-mode:normal;color-interpolation:sRGB;color-interpolation-filters:linearRGB;solid-color:#000000;solid-opacity:1;vector-effect:none;fill:#000000;fill-opacity:1;fill-rule:nonzero;stroke-width:4.99999;stroke-linecap:butt;stroke-linejoin:miter;stroke-miterlimit:4;stroke-dasharray:none;stroke-dashoffset:0;stroke-opacity:1;color-rendering:auto;image-rendering:auto;shape-rendering:auto;text-rendering:auto;enable-background:accumulate;stop-color:#000000;stop-opacity:1;stroke:none;opacity:1"
       d="m 183.50744,203.54017 c -5.46647,-1.75278 -8.47703,-7.60512 -6.7243,-13.0716 1.75273,-5.46649 7.60504,-8.4771 13.07154,-6.72442 5.4665,1.75268 8.47716,7.60497 6.72453,13.07148 -1.75263,5.46652 -7.60489,8.47724 -13.07142,6.72465"
       id="path5791-5-1" />
    <path
       style="color:#000000;font-style:normal;font-variant:normal;font-weight:normal;font-stretch:normal;font-size:medium;line-height:normal;font-family:sans-serif;font-variant-ligatures:normal;font-variant-position:normal;font-variant-caps:normal;font-variant-numeric:normal;font-variant-alternates:normal;font-variant-east-asian:normal;font-feature-settings:normal;font-variation-settings:normal;text-indent:0;text-align:start;text-decoration:none;text-decoration-line:none;text-decoration-style:solid;text-decoration-color:#000000;letter-spacing:normal;word-spacing:normal;text-transform:none;writing-mode:lr-tb;direction:ltr;text-orientation:mixed;dominant-baseline:auto;baseline-shift:baseline;text-anchor:start;white-space:normal;shape-padding:0;shape-margin:0;inline-size:0;clip-rule:nonzero;display:inline;overflow:visible;visibility:visible;isolation:auto;mix-blend-mode:normal;color-interpolation:sRGB;color-interpolation-filters:linearRGB;solid-color:#000000;solid-opacity:1;vector-effect:none;fill:#000000;fill-opacity:1;fill-rule:nonzero;stroke-width:4.99999;stroke-linecap:butt;stroke-linejoin:miter;stroke-miterlimit:4;stroke-dasharray:none;stroke-dashoffset:0;stroke-opacity:1;color-rendering:auto;image-rendering:auto;shape-rendering:auto;text-rendering:auto;enable-background:accumulate;stop-color:#000000;stop-opacity:1;stroke:none;opacity:1"
       d="m 182.7515,127.56696 c -5.46647,-1.75277 -8.47703,-7.60511 -6.72431,-13.07159 1.75273,-5.46649 7.60504,-8.4771 13.07154,-6.72442 5.4665,1.75268 8.47717,7.60496 6.72454,13.07148 -1.75263,5.46652 -7.6049,8.47724 -13.07143,6.72465"
       id="path5791-5-1-6" />
    <path
       style="color:#000000;font-style:normal;font-variant:normal;font-weight:normal;font-stretch:normal;font-size:medium;line-height:normal;font-family:sans-serif;font-variant-ligatures:normal;font-variant-position:normal;font-variant-caps:normal;font-variant-numeric:normal;font-variant-alternates:normal;font-variant-east-asian:normal;font-feature-settings:normal;font-variation-settings:normal;text-indent:0;text-align:start;text-decoration:none;text-decoration-line:none;text-decoration-style:solid;text-decoration-color:#000000;letter-spacing:normal;word-spacing:normal;text-transform:none;writing-mode:lr-tb;direction:ltr;text-orientation:mixed;dominant-baseline:auto;baseline-shift:baseline;text-anchor:start;white-space:normal;shape-padding:0;shape-margin:0;inline-size:0;clip-rule:nonzero;display:inline;overflow:visible;visibility:visible;isolation:auto;mix-blend-mode:normal;color-interpolation:sRGB;color-interpolation-filters:linearRGB;solid-color:#000000;solid-opacity:1;vector-effect:none;fill:#000000;fill-opacity:1;fill-rule:nonzero;stroke-width:4.99999;stroke-linecap:butt;stroke-linejoin:miter;stroke-miterlimit:4;stroke-dasharray:none;stroke-dashoffset:0;stroke-opacity:1;color-rendering:auto;image-rendering:auto;shape-rendering:auto;text-rendering:auto;enable-background:accumulate;stop-color:#000000;stop-opacity:1;stroke:none;opacity:1"
       d="m 16.40287,139.02462 c -1.789028,-0.57364 -2.774303,-2.48895 -2.200681,-4.27798 0.573624,-1.78903 2.488923,-2.77431 4.277957,-2.20071 1.789032,0.5736 2.77434,2.48889 2.200757,4.27793 -0.573587,1.78904 -2.488871,2.77437 -4.27792,2.2008"
       id="path5853" />
    <path
       style="color:#000000;font-style:normal;font-variant:normal;font-weight:normal;font-stretch:normal;font-size:medium;line-height:normal;font-family:sans-serif;font-variant-ligatures:normal;font-variant-position:normal;font-variant-caps:normal;font-variant-numeric:normal;font-variant-alternates:normal;font-variant-east-asian:normal;font-feature-settings:normal;font-variation-settings:normal;text-indent:0;text-align:start;text-decoration:none;text-decoration-line:none;text-decoration-style:solid;text-decoration-color:#000000;letter-spacing:normal;word-spacing:normal;text-transform:none;writing-mode:lr-tb;direction:ltr;text-orientation:mixed;dominant-baseline:auto;baseline-shift:baseline;text-anchor:start;white-space:normal;shape-padding:0;shape-margin:0;inline-size:0;clip-rule:nonzero;display:inline;overflow:visible;visibility:visible;isolation:auto;mix-blend-mode:normal;color-interpolation:sRGB;color-interpolation-filters:linearRGB;solid-color:#000000;solid-opacity:1;vector-effect:none;fill:#000000;fill-opacity:1;fill-rule:nonzero;stroke-width:4.99999;stroke-linecap:butt;stroke-linejoin:miter;stroke-miterlimit:4;stroke-dasharray:none;stroke-dashoffset:0;stroke-opacity:1;color-rendering:auto;image-rendering:auto;shape-rendering:auto;text-rendering:auto;enable-background:accumulate;stop-color:#000000;stop-opacity:1;stroke:none;opacity:1"
       d="m 16.40287,149.60795 c -1.789028,-0.57364 -2.774303,-2.48895 -2.200681,-4.27798 0.57362,-1.78903 2.48892,-2.77432 4.277957,-2.20072 1.789037,0.5736 2.774347,2.4889 2.200757,4.27794 -0.573587,1.78904 -2.488871,2.77437 -4.27792,2.2008"
       id="path5853-6" />
    <path
       style="color:#000000;font-style:normal;font-variant:normal;font-weight:normal;font-stretch:normal;font-size:medium;line-height:normal;font-family:sans-serif;font-variant-ligatures:normal;font-variant-position:normal;font-variant-caps:normal;font-variant-numeric:normal;font-variant-alternates:normal;font-variant-east-asian:normal;font-feature-settings:normal;font-variation-settings:normal;text-indent:0;text-align:start;text-decoration:none;text-decoration-line:none;text-decoration-style:solid;text-decoration-color:#000000;letter-spacing:normal;word-spacing:normal;text-transform:none;writing-mode:lr-tb;direction:ltr;text-orientation:mixed;dominant-baseline:auto;baseline-shift:baseline;text-anchor:start;white-space:normal;shape-padding:0;shape-margin:0;inline-size:0;clip-rule:nonzero;display:inline;overflow:visible;visibility:visible;isolation:auto;mix-blend-mode:normal;color-interpolation:sRGB;color-interpolation-filters:linearRGB;solid-color:#000000;solid-opacity:1;vector-effect:none;fill:#000000;fill-opacity:1;fill-rule:nonzero;stroke-width:4.99999;stroke-linecap:butt;stroke-linejoin:miter;stroke-miterlimit:4;stroke-dasharray:none;stroke-dashoffset:0;stroke-opacity:1;color-rendering:auto;image-rendering:auto;shape-rendering:auto;text-rendering:auto;enable-background:accumulate;stop-color:#000000;stop-opacity:1;stroke:none;opacity:1"
       d="m 16.40287,160.19129 c -1.789023,-0.57364 -2.774297,-2.48894 -2.200681,-4.27797 0.57362,-1.78903 2.48892,-2.77432 4.277957,-2.20072 1.789037,0.5736 2.774347,2.4889 2.200757,4.27794 -0.573591,1.78904 -2.488874,2.77436 -4.27792,2.20079"
       id="path5853-2" />
    <path
       style="color:#000000;font-style:normal;font-variant:normal;font-weight:normal;font-stretch:normal;font-size:medium;line-height:normal;font-family:sans-serif;font-variant-ligatures:normal;font-variant-position:normal;font-variant-caps:normal;font-variant-numeric:normal;font-variant-alternates:normal;font-variant-east-asian:normal;font-feature-settings:normal;font-variation-settings:normal;text-indent:0;text-align:start;text-decoration:none;text-decoration-line:none;text-decoration-style:solid;text-decoration-color:#000000;letter-spacing:normal;word-spacing:normal;text-transform:none;writing-mode:lr-tb;direction:ltr;text-orientation:mixed;dominant-baseline:auto;baseline-shift:baseline;text-anchor:start;white-space:normal;shape-padding:0;shape-margin:0;inline-size:0;clip-rule:nonzero;display:inline;overflow:visible;visibility:visible;isolation:auto;mix-blend-mode:normal;color-interpolation:sRGB;color-interpolation-filters:linearRGB;solid-color:#000000;solid-opacity:1;vector-effect:none;fill:#000000;fill-opacity:1;fill-rule:nonzero;stroke-width:4.99999;stroke-linecap:butt;stroke-linejoin:miter;stroke-miterlimit:4;stroke-dasharray:none;stroke-dashoffset:0;stroke-opacity:1;color-rendering:auto;image-rendering:auto;shape-rendering:auto;text-rendering:auto;enable-background:accumulate;stop-color:#000000;stop-opacity:1;stroke:none;opacity:1"
       d="m 16.40287,170.77463 c -1.789028,-0.57364 -2.774303,-2.48895 -2.200681,-4.27798 0.573624,-1.78903 2.488923,-2.77431 4.277957,-2.20071 1.789032,0.5736 2.77434,2.48889 2.200757,4.27793 -0.573587,1.78904 -2.488871,2.77437 -4.27792,2.2008"
       id="path5853-3" />
    <path
       style="color:#000000;font-style:normal;font-variant:normal;font-weight:normal;font-stretch:normal;font-size:medium;line-height:normal;font-family:sans-serif;font-variant-ligatures:normal;font-variant-position:normal;font-variant-caps:normal;font-variant-numeric:normal;font-variant-alternates:normal;font-variant-east-asian:normal;font-feature-settings:normal;font-variation-settings:normal;text-indent:0;text-align:start;text-decoration:none;text-decoration-line:none;text-decoration-style:solid;text-decoration-color:#000000;letter-spacing:normal;word-spacing:normal;text-transform:none;writing-mode:lr-tb;direction:ltr;text-orientation:mixed;dominant-baseline:auto;baseline-shift:baseline;text-anchor:start;white-space:normal;shape-padding:0;shape-margin:0;inline-size:0;clip-rule:nonzero;display:inline;overflow:visible;visibility:visible;isolation:auto;mix-blend-mode:normal;color-interpolation:sRGB;color-interpolation-filters:linearRGB;solid-color:#000000;solid-opacity:1;vector-effect:none;fill:#000000;fill-opacity:1;fill-rule:nonzero;stroke-width:4.99999;stroke-linecap:butt;stroke-linejoin:miter;stroke-miterlimit:4;stroke-dasharray:none;stroke-dashoffset:0;stroke-opacity:1;color-rendering:auto;image-rendering:auto;shape-rendering:auto;text-rendering:auto;enable-background:accumulate;stop-color:#000000;stop-opacity:1;stroke:none;opacity:1"
       d="m 16.40287,181.35795 c -1.789028,-0.57364 -2.774303,-2.48895 -2.200681,-4.27798 0.57362,-1.78903 2.48892,-2.77432 4.277957,-2.20072 1.789037,0.5736 2.774347,2.4889 2.200757,4.27794 -0.573587,1.78904 -2.488871,2.77437 -4.27792,2.2008"
       id="path5853-6-0" />
    <path
       style="color:#000000;font-style:normal;font-variant:normal;font-weight:normal;font-stretch:normal;font-size:medium;line-height:normal;font-family:sans-serif;font-variant-ligatures:normal;font-variant-position:normal;font-variant-caps:normal;font-variant-numeric:normal;font-variant-alternates:normal;font-variant-east-asian:normal;font-feature-settings:normal;font-variation-settings:normal;text-indent:0;text-align:start;text-decoration:none;text-decoration-line:none;text-decoration-style:solid;text-decoration-color:#000000;letter-spacing:normal;word-spacing:normal;text-transform:none;writing-mode:lr-tb;direction:ltr;text-orientation:mixed;dominant-baseline:auto;baseline-shift:baseline;text-anchor:start;white-space:normal;shape-padding:0;shape-margin:0;inline-size:0;clip-rule:nonzero;display:inline;overflow:visible;visibility:visible;isolation:auto;mix-blend-mode:normal;color-interpolation:sRGB;color-interpolation-filters:linearRGB;solid-color:#000000;solid-opacity:1;vector-effect:none;fill:#000000;fill-opacity:1;fill-rule:nonzero;stroke-width:4.99999;stroke-linecap:butt;stroke-linejoin:miter;stroke-miterlimit:4;stroke-dasharray:none;stroke-dashoffset:0;stroke-opacity:1;color-rendering:auto;image-rendering:auto;shape-rendering:auto;text-rendering:auto;enable-background:accumulate;stop-color:#000000;stop-opacity:1;stroke:none;opacity:1"
       d="m 187.059,137.70167 c -1.78903,-0.57364 -2.7743,-2.48895 -2.20068,-4.27798 0.57362,-1.78903 2.48892,-2.77433 4.27796,-2.20072 1.78903,0.57361 2.77434,2.4889 2.20075,4.27794 -0.57359,1.78904 -2.48887,2.77437 -4.27792,2.2008"
       id="path5853-1" />
    <path
       style="color:#000000;font-style:normal;font-variant:normal;font-weight:normal;font-stretch:normal;font-size:medium;line-height:normal;font-family:sans-serif;font-variant-ligatures:normal;font-variant-position:normal;font-variant-caps:normal;font-variant-numeric:normal;font-variant-alternates:normal;font-variant-east-asian:normal;font-feature-settings:normal;font-variation-settings:normal;text-indent:0;text-align:start;text-decoration:none;text-decoration-line:none;text-decoration-style:solid;text-decoration-color:#000000;letter-spacing:normal;word-spacing:normal;text-transform:none;writing-mode:lr-tb;direction:ltr;text-orientation:mixed;dominant-baseline:auto;baseline-shift:baseline;text-anchor:start;white-space:normal;shape-padding:0;shape-margin:0;inline-size:0;clip-rule:nonzero;display:inline;overflow:visible;visibility:visible;isolation:auto;mix-blend-mode:normal;color-interpolation:sRGB;color-interpolation-filters:linearRGB;solid-color:#000000;solid-opacity:1;vector-effect:none;fill:#000000;fill-opacity:1;fill-rule:nonzero;stroke-width:4.99999;stroke-linecap:butt;stroke-linejoin:miter;stroke-miterlimit:4;stroke-dasharray:none;stroke-dashoffset:0;stroke-opacity:1;color-rendering:auto;image-rendering:auto;shape-rendering:auto;text-rendering:auto;enable-background:accumulate;stop-color:#000000;stop-opacity:1;stroke:none;opacity:1"
       d="m 187.059,148.285 c -1.78903,-0.57364 -2.7743,-2.48895 -2.20068,-4.27798 0.57362,-1.78903 2.48892,-2.77433 4.27796,-2.20072 1.78903,0.57361 2.77434,2.4889 2.20075,4.27794 -0.57359,1.78904 -2.48887,2.77436 -4.27792,2.20079"
       id="path5853-6-5" />
    <path
       style="color:#000000;font-style:normal;font-variant:normal;font-weight:normal;font-stretch:normal;font-size:medium;line-height:normal;font-family:sans-serif;font-variant-ligatures:normal;font-variant-position:normal;font-variant-caps:normal;font-variant-numeric:normal;font-variant-alternates:normal;font-variant-east-asian:normal;font-feature-settings:normal;font-variation-settings:normal;text-indent:0;text-align:start;text-decoration:none;text-decoration-line:none;text-decoration-style:solid;text-decoration-color:#000000;letter-spacing:normal;word-spacing:normal;text-transform:none;writing-mode:lr-tb;direction:ltr;text-orientation:mixed;dominant-baseline:auto;baseline-shift:baseline;text-anchor:start;white-space:normal;shape-padding:0;shape-margin:0;inline-size:0;clip-rule:nonzero;display:inline;overflow:visible;visibility:visible;isolation:auto;mix-blend-mode:normal;color-interpolation:sRGB;color-interpolation-filters:linearRGB;solid-color:#000000;solid-opacity:1;vector-effect:none;fill:#000000;fill-opacity:1;fill-rule:nonzero;stroke-width:4.99999;stroke-linecap:butt;stroke-linejoin:miter;stroke-miterlimit:4;stroke-dasharray:none;stroke-dashoffset:0;stroke-opacity:1;color-rendering:auto;image-rendering:auto;shape-rendering:auto;text-rendering:auto;enable-background:accumulate;stop-color:#000000;stop-opacity:1;stroke:none;opacity:1"
       d="m 187.059,158.86834 c -1.78903,-0.57364 -2.7743,-2.48895 -2.20068,-4.27798 0.57362,-1.78903 2.48892,-2.77433 4.27796,-2.20072 1.78903,0.57361 2.77434,2.4889 2.20075,4.27794 -0.57359,1.78904 -2.48887,2.77437 -4.27792,2.2008"
       id="path5853-2-3" />
    <path
       style="color:#000000;font-style:normal;font-variant:normal;font-weight:normal;font-stretch:normal;font-size:medium;line-height:normal;font-family:sans-serif;font-variant-ligatures:normal;font-variant-position:normal;font-variant-caps:normal;font-variant-numeric:normal;font-variant-alternates:normal;font-variant-east-asian:normal;font-feature-settings:normal;font-variation-settings:normal;text-indent:0;text-align:start;text-decoration:none;text-decoration-line:none;text-decoration-style:solid;text-decoration-color:#000000;letter-spacing:normal;word-spacing:normal;text-transform:none;writing-mode:lr-tb;direction:ltr;text-orientation:mixed;dominant-baseline:auto;baseline-shift:baseline;text-anchor:start;white-space:normal;shape-padding:0;shape-margin:0;inline-size:0;clip-rule:nonzero;display:inline;overflow:visible;visibility:visible;isolation:auto;mix-blend-mode:normal;color-interpolation:sRGB;color-interpolation-filters:linearRGB;solid-color:#000000;solid-opacity:1;vector-effect:none;fill:#000000;fill-opacity:1;fill-rule:nonzero;stroke-width:4.99999;stroke-linecap:butt;stroke-linejoin:miter;stroke-miterlimit:4;stroke-dasharray:none;stroke-dashoffset:0;stroke-opacity:1;color-rendering:auto;image-rendering:auto;shape-rendering:auto;text-rendering:auto;enable-background:accumulate;stop-color:#000000;stop-opacity:1;stroke:none;opacity:1"
       d="m 187.059,169.45167 c -1.78903,-0.57364 -2.7743,-2.48895 -2.20068,-4.27798 0.57362,-1.78903 2.48892,-2.77433 4.27796,-2.20072 1.78903,0.57361 2.77434,2.4889 2.20075,4.27794 -0.57359,1.78904 -2.48887,2.77437 -4.27792,2.2008"
       id="path5853-3-1" />
    <path
       style="color:#000000;font-style:normal;font-variant:normal;font-weight:normal;font-stretch:normal;font-size:medium;line-height:normal;font-family:sans-serif;font-variant-ligatures:normal;font-variant-position:normal;font-variant-caps:normal;font-variant-numeric:normal;font-variant-alternates:normal;font-variant-east-asian:normal;font-feature-settings:normal;font-variation-settings:normal;text-indent:0;text-align:start;text-decoration:none;text-decoration-line:none;text-decoration-style:solid;text-decoration-color:#000000;letter-spacing:normal;word-spacing:normal;text-transform:none;writing-mode:lr-tb;direction:ltr;text-orientation:mixed;dominant-baseline:auto;baseline-shift:baseline;text-anchor:start;white-space:normal;shape-padding:0;shape-margin:0;inline-size:0;clip-rule:nonzero;display:inline;overflow:visible;visibility:visible;isolation:auto;mix-blend-mode:normal;color-interpolation:sRGB;color-interpolation-filters:linearRGB;solid-color:#000000;solid-opacity:1;vector-effect:none;fill:#000000;fill-opacity:1;fill-rule:nonzero;stroke-width:4.99999;stroke-linecap:butt;stroke-linejoin:miter;stroke-miterlimit:4;stroke-dasharray:none;stroke-dashoffset:0;stroke-opacity:1;color-rendering:auto;image-rendering:auto;shape-rendering:auto;text-rendering:auto;enable-background:accumulate;stop-color:#000000;stop-opacity:1;stroke:none;opacity:1"
       d="m 187.059,180.035 c -1.78903,-0.57364 -2.7743,-2.48895 -2.20068,-4.27798 0.57362,-1.78903 2.48892,-2.77433 4.27796,-2.20072 1.78903,0.57361 2.77434,2.4889 2.20075,4.27794 -0.57359,1.78904 -2.48887,2.77436 -4.27792,2.20079"
       id="path5853-6-0-2" />
    <path
       style="color:#000000;font-style:normal;font-variant:normal;font-weight:normal;font-stretch:normal;font-size:medium;line-height:normal;font-family:sans-serif;font-variant-ligatures:normal;font-variant-position:normal;font-variant-caps:normal;font-variant-numeric:normal;font-variant-alternates:normal;font-variant-east-asian:normal;font-feature-settings:normal;font-variation-settings:normal;text-indent:0;text-align:start;text-decoration:none;text-decoration-line:none;text-decoration-style:solid;text-decoration-color:#000000;letter-spacing:normal;word-spacing:normal;text-transform:none;writing-mode:lr-tb;direction:ltr;text-orientation:mixed;dominant-baseline:auto;baseline-shift:baseline;text-anchor:start;white-space:normal;shape-padding:0;shape-margin:0;inline-size:0;clip-rule:nonzero;display:inline;overflow:visible;visibility:visible;isolation:auto;mix-blend-mode:normal;color-interpolation:sRGB;color-interpolation-filters:linearRGB;solid-color:#000000;solid-opacity:1;vector-effect:none;fill:#000000;fill-opacity:1;fill-rule:nonzero;stroke:none;stroke-linecap:butt;stroke-linejoin:miter;stroke-miterlimit:4;stroke-dasharray:1.68093, 1.68093000000000004;stroke-dashoffset:0;stroke-opacity:1;color-rendering:auto;image-rendering:auto;shape-rendering:auto;text-rendering:auto;enable-background:accumulate;stop-color:#000000;stop-opacity:1;opacity:1"
       d="M 64.140625 110.28516 L 64.140625 111.96484 L 65.820312 111.96484 L 65.820312 110.28516 L 64.140625 110.28516 z M 67.501953 110.28516 L 67.501953 111.96484 L 69.183594 111.96484 L 69.183594 110.28516 L 67.501953 110.28516 z M 70.863281 110.28516 L 70.863281 111.96484 L 72.544922 111.96484 L 72.544922 110.28516 L 70.863281 110.28516 z M 74.226562 110.28516 L 74.226562 111.96484 L 75.90625 111.96484 L 75.90625 110.28516 L 74.226562 110.28516 z M 77.587891 110.28516 L 77.587891 111.96484 L 79.267578 111.96484 L 79.267578 110.28516 L 77.587891 110.28516 z M 80.949219 110.28516 L 80.949219 111.96484 L 82.630859 111.96484 L 82.630859 110.28516 L 80.949219 110.28516 z M 84.310547 110.28516 L 84.310547 111.96484 L 85.992188 111.96484 L 85.992188 110.28516 L 84.310547 110.28516 z M 87.673828 110.28516 L 87.673828 111.96484 L 89.353516 111.96484 L 89.353516 110.28516 L 87.673828 110.28516 z M 91.035156 110.28516 L 91.035156 111.96484 L 92.716797 111.96484 L 92.716797 110.28516 L 91.035156 110.28516 z M 94.396484 110.28516 L 94.396484 111.96484 L 96.078125 111.96484 L 96.078125 110.28516 L 94.396484 110.28516 z M 97.757812 110.28516 L 97.757812 111.96484 L 99.439453 111.96484 L 99.439453 110.28516 L 97.757812 110.28516 z M 101.12109 110.28516 L 101.12109 111.96484 L 102.80078 111.96484 L 102.80078 110.28516 L 101.12109 110.28516 z M 104.48242 110.28516 L 104.48242 111.96484 L 106.16406 111.96484 L 106.16406 110.28516 L 104.48242 110.28516 z M 107.84375 110.28516 L 107.84375 111.96484 L 109.52539 111.96484 L 109.52539 110.28516 L 107.84375 110.28516 z M 111.20703 110.28516 L 111.20703 111.96484 L 112.88672 111.96484 L 112.88672 110.28516 L 111.20703 110.28516 z M 114.56836 110.28516 L 114.56836 111.96484 L 116.24805 111.96484 L 116.24805 110.28516 L 114.56836 110.28516 z M 117.92969 110.28516 L 117.92969 111.96484 L 119.61133 111.96484 L 119.61133 110.28516 L 117.92969 110.28516 z M 121.29102 110.28516 L 121.29102 111.96484 L 122.97266 111.96484 L 122.97266 110.28516 L 121.29102 110.28516 z M 124.6543 110.28516 L 124.6543 111.96484 L 126.33398 111.96484 L 126.33398 110.28516 L 124.6543 110.28516 z M 128.01562 110.28516 L 128.01562 111.96484 L 129.69727 111.96484 L 129.69727 110.28516 L 128.01562 110.28516 z M 131.37695 110.28516 L 131.37695 111.96484 L 133.05859 111.96484 L 133.05859 110.28516 L 131.37695 110.28516 z M 134.73828 110.28516 L 134.73828 111.96484 L 136.41992 111.96484 L 136.41992 110.28516 L 134.73828 110.28516 z M 138.10156 110.28516 L 138.10156 111.96484 L 139.78125 111.96484 L 139.78125 110.28516 L 138.10156 110.28516 z M 141.46289 110.28516 L 141.46289 111.96484 L 143.14453 111.96484 L 143.14453 110.28516 L 141.46289 110.28516 z M 144.82422 110.28516 L 144.82422 111.96484 L 146.50586 111.96484 L 146.50586 110.28516 L 144.82422 110.28516 z M 148.1875 110.28516 L 148.1875 111.96484 L 149.86719 111.96484 L 149.86719 110.28516 L 148.1875 110.28516 z M 151.54883 110.28516 L 151.54883 111.96484 L 153.22852 111.96484 L 153.22852 110.28516 L 151.54883 110.28516 z M 154.91016 110.28516 L 154.91016 111.96484 L 156.5918 111.96484 L 156.5918 110.28516 L 154.91016 110.28516 z M 158.27148 110.28516 L 158.27148 111.96484 L 159.95312 111.96484 L 159.95312 110.28516 L 158.27148 110.28516 z M 161.63477 110.28516 L 161.63477 111.96484 L 163.31445 111.96484 L 163.31445 110.28516 L 161.63477 110.28516 z M 164.99609 110.28516 L 164.99609 111.96484 L 166.67773 111.96484 L 166.67773 110.28516 L 164.99609 110.28516 z M 168.35742 110.28516 L 168.35742 111.96484 L 170.03906 111.96484 L 170.03906 110.28516 L 168.35742 110.28516 z M 171.71875 110.28516 L 171.71875 111.96484 L 173.40039 111.96484 L 173.40039 110.28516 L 171.71875 110.28516 z M 175.08203 110.28516 L 175.08203 111.96484 L 176.76172 111.96484 L 176.76172 110.28516 L 175.08203 110.28516 z M 178.44336 110.28516 L 178.44336 111.96484 L 180.125 111.96484 L 180.125 110.28516 L 178.44336 110.28516 z M 181.80469 110.28516 L 181.80469 111.96484 L 183.48633 111.96484 L 183.48633 110.28516 L 181.80469 110.28516 z M 185.16797 110.28516 L 185.16797 111.96484 L 186.84766 111.96484 L 186.84766 110.28516 L 185.16797 110.28516 z M 188.5293 110.28516 L 188.5293 111.96484 L 190.20898 111.96484 L 190.20898 110.28516 L 188.5293 110.28516 z M 191.89062 110.28516 L 191.89062 111.96484 L 193.57227 111.96484 L 193.57227 110.28516 L 191.89062 110.28516 z M 195.36133 110.30078 L 195.14453 111.9668 C 195.11779 111.96333 195.01508 111.91326 194.98047 111.87305 C 194.94586 111.83283 194.96106 111.83342 194.97266 111.88477 C 194.99585 111.98745 194.98864 112.24868 194.96289 112.39648 L 196.61914 112.68555 C 196.67165 112.38417 196.71705 111.98379 196.61133 111.51562 C 196.55847 111.28154 196.46399 111.01916 196.25586 110.77734 C 196.04773 110.53553 195.70881 110.34586 195.36133 110.30078 z M 62.660156 112.07617 L 62.660156 113.75781 L 64.339844 113.75781 L 64.339844 112.07617 L 62.660156 112.07617 z M 194.95117 114.22266 L 194.95117 115.9043 L 196.63281 115.9043 L 196.63281 114.22266 L 194.95117 114.22266 z M 62.660156 115.4375 L 62.660156 117.11914 L 64.339844 117.11914 L 64.339844 115.4375 L 62.660156 115.4375 z M 194.95117 117.58398 L 194.95117 119.26562 L 196.63281 119.26562 L 196.63281 117.58398 L 194.95117 117.58398 z M 62.660156 118.80078 L 62.660156 120.48047 L 64.339844 120.48047 L 64.339844 118.80078 L 62.660156 118.80078 z M 194.95117 120.94531 L 194.95117 122.62695 L 196.63281 122.62695 L 196.63281 120.94531 L 194.95117 120.94531 z M 62.660156 122.16211 L 62.660156 123.84375 L 64.339844 123.84375 L 64.339844 122.16211 L 62.660156 122.16211 z M 194.95117 124.30859 L 194.95117 125.98828 L 196.63281 125.98828 L 196.63281 124.30859 L 194.95117 124.30859 z M 62.660156 125.52344 L 62.660156 127.20508 L 64.339844 127.20508 L 64.339844 125.52344 L 62.660156 125.52344 z M 194.95117 127.66992 L 194.95117 129.35156 L 196.63281 129.35156 L 196.63281 127.66992 L 194.95117 127.66992 z M 62.660156 128.88672 L 62.660156 130.56641 L 64.339844 130.56641 L 64.339844 128.88672 L 62.660156 128.88672 z M 194.95117 131.03125 L 194.95117 132.71289 L 196.63281 132.71289 L 196.63281 131.03125 L 194.95117 131.03125 z M 62.660156 132.24805 L 62.660156 133.92773 L 64.339844 133.92773 L 64.339844 132.24805 L 62.660156 132.24805 z M 194.95117 134.39453 L 194.95117 136.07422 L 196.63281 136.07422 L 196.63281 134.39453 L 194.95117 134.39453 z M 62.660156 135.60938 L 62.660156 137.29102 L 64.339844 137.29102 L 64.339844 135.60938 L 62.660156 135.60938 z M 194.95117 137.75586 L 194.95117 139.43555 L 196.63281 139.43555 L 196.63281 137.75586 L 194.95117 137.75586 z M 62.660156 138.9707 L 62.660156 140.65234 L 64.339844 140.65234 L 64.339844 138.9707 L 62.660156 138.9707 z M 194.95117 141.11719 L 194.95117 142.79883 L 196.63281 142.79883 L 196.63281 141.11719 L 194.95117 141.11719 z M 62.660156 142.33398 L 62.660156 144.01367 L 64.339844 144.01367 L 64.339844 142.33398 L 62.660156 142.33398 z M 194.95117 144.47852 L 194.95117 146.16016 L 196.63281 146.16016 L 196.63281 144.47852 L 194.95117 144.47852 z M 62.660156 145.69531 L 62.660156 147.37695 L 64.339844 147.37695 L 64.339844 145.69531 L 62.660156 145.69531 z M 194.95117 147.8418 L 194.95117 149.52148 L 196.63281 149.52148 L 196.63281 147.8418 L 194.95117 147.8418 z M 62.660156 149.05664 L 62.660156 150.73828 L 64.339844 150.73828 L 64.339844 149.05664 L 62.660156 149.05664 z M 194.95117 151.20312 L 194.95117 152.88477 L 196.63281 152.88477 L 196.63281 151.20312 L 194.95117 151.20312 z M 62.660156 152.41797 L 62.660156 154.09961 L 64.339844 154.09961 L 64.339844 152.41797 L 62.660156 152.41797 z M 194.95117 154.56445 L 194.95117 156.24609 L 196.63281 156.24609 L 196.63281 154.56445 L 194.95117 154.56445 z M 62.660156 155.78125 L 62.660156 157.46094 L 64.339844 157.46094 L 64.339844 155.78125 L 62.660156 155.78125 z M 194.95117 157.92578 L 194.95117 159.60742 L 196.63281 159.60742 L 196.63281 157.92578 L 194.95117 157.92578 z M 62.660156 159.14258 L 62.660156 160.82422 L 64.339844 160.82422 L 64.339844 159.14258 L 62.660156 159.14258 z M 194.95117 161.28906 L 194.95117 162.96875 L 196.63281 162.96875 L 196.63281 161.28906 L 194.95117 161.28906 z M 62.660156 162.50391 L 62.660156 164.18555 L 64.339844 164.18555 L 64.339844 162.50391 L 62.660156 162.50391 z M 194.95117 164.65039 L 194.95117 166.33203 L 196.63281 166.33203 L 196.63281 164.65039 L 194.95117 164.65039 z M 62.660156 165.86719 L 62.660156 167.54688 L 64.339844 167.54688 L 64.339844 165.86719 L 62.660156 165.86719 z M 194.95117 168.01172 L 194.95117 169.69336 L 196.63281 169.69336 L 196.63281 168.01172 L 194.95117 168.01172 z M 62.660156 169.22852 L 62.660156 170.9082 L 64.339844 170.9082 L 64.339844 169.22852 L 62.660156 169.22852 z M 194.95117 171.375 L 194.95117 173.05469 L 196.63281 173.05469 L 196.63281 171.375 L 194.95117 171.375 z M 62.660156 172.58984 L 62.660156 174.27148 L 64.339844 174.27148 L 64.339844 172.58984 L 62.660156 172.58984 z M 194.95117 174.73633 L 194.95117 176.41602 L 196.63281 176.41602 L 196.63281 174.73633 L 194.95117 174.73633 z M 62.660156 175.95117 L 62.660156 177.63281 L 64.339844 177.63281 L 64.339844 175.95117 L 62.660156 175.95117 z M 194.95117 178.09766 L 194.95117 179.7793 L 196.63281 179.7793 L 196.63281 178.09766 L 194.95117 178.09766 z M 62.660156 179.31445 L 62.660156 180.99414 L 64.339844 180.99414 L 64.339844 179.31445 L 62.660156 179.31445 z M 194.95117 181.45898 L 194.95117 183.14062 L 196.63281 183.14062 L 196.63281 181.45898 L 194.95117 181.45898 z M 62.660156 182.67578 L 62.660156 184.35742 L 64.339844 184.35742 L 64.339844 182.67578 L 62.660156 182.67578 z M 194.95117 184.82227 L 194.95117 186.50195 L 196.63281 186.50195 L 196.63281 184.82227 L 194.95117 184.82227 z M 62.660156 186.03711 L 62.660156 187.71875 L 64.339844 187.71875 L 64.339844 186.03711 L 62.660156 186.03711 z M 194.95117 188.18359 L 194.95117 189.86523 L 196.63281 189.86523 L 196.63281 188.18359 L 194.95117 188.18359 z M 62.660156 189.39844 L 62.660156 191.08008 L 64.339844 191.08008 L 64.339844 189.39844 L 62.660156 189.39844 z M 194.95117 191.54492 L 194.95117 193.22656 L 196.63281 193.22656 L 196.63281 191.54492 L 194.95117 191.54492 z M 62.660156 192.76172 L 62.660156 194.44141 L 64.339844 194.44141 L 64.339844 192.76172 L 62.660156 192.76172 z M 194.95117 194.90625 L 194.95117 196.58789 L 196.63281 196.58789 L 196.63281 194.90625 L 194.95117 194.90625 z M 62.660156 196.12305 L 62.660156 197.80469 L 64.339844 197.80469 L 64.339844 196.12305 L 62.660156 196.12305 z M 194.95117 198.26953 L 194.95117 199.94922 L 196.63281 199.94922 L 196.63281 198.26953 L 194.95117 198.26953 z M 64.337891 199.41602 L 62.662109 199.55469 C 62.662013 199.55352 62.620041 199.93359 62.642578 200.36133 C 62.653846 200.5752 62.685592 200.82397 62.814453 201.0957 C 62.943314 201.36743 63.204751 201.65109 63.533203 201.79297 L 64.199219 200.25 C 64.242044 200.2685 64.320046 200.34973 64.332031 200.375 C 64.344016 200.40027 64.324928 200.35909 64.320312 200.27148 C 64.311081 200.09627 64.372335 199.83183 64.337891 199.41602 z M 65.537109 200.24219 L 65.537109 201.92383 L 67.21875 201.92383 L 67.21875 200.24219 L 65.537109 200.24219 z M 68.900391 200.24219 L 68.900391 201.92383 L 70.580078 201.92383 L 70.580078 200.24219 L 68.900391 200.24219 z M 72.261719 200.24219 L 72.261719 201.92383 L 73.943359 201.92383 L 73.943359 200.24219 L 72.261719 200.24219 z M 75.623047 200.24219 L 75.623047 201.92383 L 77.304688 201.92383 L 77.304688 200.24219 L 75.623047 200.24219 z M 78.986328 200.24219 L 78.986328 201.92383 L 80.666016 201.92383 L 80.666016 200.24219 L 78.986328 200.24219 z M 82.347656 200.24219 L 82.347656 201.92383 L 84.027344 201.92383 L 84.027344 200.24219 L 82.347656 200.24219 z M 85.708984 200.24219 L 85.708984 201.92383 L 87.390625 201.92383 L 87.390625 200.24219 L 85.708984 200.24219 z M 89.070312 200.24219 L 89.070312 201.92383 L 90.751953 201.92383 L 90.751953 200.24219 L 89.070312 200.24219 z M 92.433594 200.24219 L 92.433594 201.92383 L 94.113281 201.92383 L 94.113281 200.24219 L 92.433594 200.24219 z M 95.794922 200.24219 L 95.794922 201.92383 L 97.476562 201.92383 L 97.476562 200.24219 L 95.794922 200.24219 z M 99.15625 200.24219 L 99.15625 201.92383 L 100.83789 201.92383 L 100.83789 200.24219 L 99.15625 200.24219 z M 102.51758 200.24219 L 102.51758 201.92383 L 104.19922 201.92383 L 104.19922 200.24219 L 102.51758 200.24219 z M 105.88086 200.24219 L 105.88086 201.92383 L 107.56055 201.92383 L 107.56055 200.24219 L 105.88086 200.24219 z M 109.24219 200.24219 L 109.24219 201.92383 L 110.92383 201.92383 L 110.92383 200.24219 L 109.24219 200.24219 z M 112.60352 200.24219 L 112.60352 201.92383 L 114.28516 201.92383 L 114.28516 200.24219 L 112.60352 200.24219 z M 115.9668 200.24219 L 115.9668 201.92383 L 117.64648 201.92383 L 117.64648 200.24219 L 115.9668 200.24219 z M 119.32812 200.24219 L 119.32812 201.92383 L 121.00781 201.92383 L 121.00781 200.24219 L 119.32812 200.24219 z M 122.68945 200.24219 L 122.68945 201.92383 L 124.37109 201.92383 L 124.37109 200.24219 L 122.68945 200.24219 z M 126.05078 200.24219 L 126.05078 201.92383 L 127.73242 201.92383 L 127.73242 200.24219 L 126.05078 200.24219 z M 129.41406 200.24219 L 129.41406 201.92383 L 131.09375 201.92383 L 131.09375 200.24219 L 129.41406 200.24219 z M 132.77539 200.24219 L 132.77539 201.92383 L 134.45703 201.92383 L 134.45703 200.24219 L 132.77539 200.24219 z M 136.13672 200.24219 L 136.13672 201.92383 L 137.81836 201.92383 L 137.81836 200.24219 L 136.13672 200.24219 z M 139.49805 200.24219 L 139.49805 201.92383 L 141.17969 201.92383 L 141.17969 200.24219 L 139.49805 200.24219 z M 142.86133 200.24219 L 142.86133 201.92383 L 144.54102 201.92383 L 144.54102 200.24219 L 142.86133 200.24219 z M 146.22266 200.24219 L 146.22266 201.92383 L 147.9043 201.92383 L 147.9043 200.24219 L 146.22266 200.24219 z M 149.58398 200.24219 L 149.58398 201.92383 L 151.26562 201.92383 L 151.26562 200.24219 L 149.58398 200.24219 z M 152.94727 200.24219 L 152.94727 201.92383 L 154.62695 201.92383 L 154.62695 200.24219 L 152.94727 200.24219 z M 156.30859 200.24219 L 156.30859 201.92383 L 157.98828 201.92383 L 157.98828 200.24219 L 156.30859 200.24219 z M 159.66992 200.24219 L 159.66992 201.92383 L 161.35156 201.92383 L 161.35156 200.24219 L 159.66992 200.24219 z M 163.03125 200.24219 L 163.03125 201.92383 L 164.71289 201.92383 L 164.71289 200.24219 L 163.03125 200.24219 z M 166.39453 200.24219 L 166.39453 201.92383 L 168.07422 201.92383 L 168.07422 200.24219 L 166.39453 200.24219 z M 169.75586 200.24219 L 169.75586 201.92383 L 171.4375 201.92383 L 171.4375 200.24219 L 169.75586 200.24219 z M 173.11719 200.24219 L 173.11719 201.92383 L 174.79883 201.92383 L 174.79883 200.24219 L 173.11719 200.24219 z M 176.47852 200.24219 L 176.47852 201.92383 L 178.16016 201.92383 L 178.16016 200.24219 L 176.47852 200.24219 z M 179.8418 200.24219 L 179.8418 201.92383 L 181.52148 201.92383 L 181.52148 200.24219 L 179.8418 200.24219 z M 183.20312 200.24219 L 183.20312 201.92383 L 184.88477 201.92383 L 184.88477 200.24219 L 183.20312 200.24219 z M 186.56445 200.24219 L 186.56445 201.92383 L 188.24609 201.92383 L 188.24609 200.24219 L 186.56445 200.24219 z M 189.92773 200.24219 L 189.92773 201.92383 L 191.60742 201.92383 L 191.60742 200.24219 L 189.92773 200.24219 z M 193.28906 200.24219 L 193.28906 201.92383 L 194.96875 201.92383 L 194.96875 200.24219 L 193.28906 200.24219 z "
       id="rect6056" />
    <path
       id="rect6079"
       style="fill:#000000;fill-opacity:1;stroke:none;stroke-width:1.32292;stroke-miterlimit:4;stroke-dasharray:1.32292, 1.32292;stroke-dashoffset:0;stroke-opacity:1"
       d="m 34.814752,137.58333 h 20.328826 c 0.232082,0 0.41892,0.18684 0.41892,0.41892 v 4.45382 c 0,0.23209 -0.186838,0.41892 -0.41892,0.41892 H 34.814752 c -0.232082,0 -0.41892,-0.18683 -0.41892,-0.41892 v -4.45382 c 0,-0.23208 0.186838,-0.41892 0.41892,-0.41892 z" />
    <path
       id="rect6079-9"
       style="fill:#000000;fill-opacity:1;stroke:none;stroke-width:1.32292;stroke-miterlimit:4;stroke-dasharray:1.32292, 1.32292;stroke-dashoffset:0;stroke-opacity:1"
       d="m 34.814756,145.52083 h 20.328826 c 0.232082,0 0.41892,0.18684 0.41892,0.41892 v 4.45382 c 0,0.23209 -0.186838,0.41892 -0.41892,0.41892 H 34.814756 c -0.232082,0 -0.41892,-0.18683 -0.41892,-0.41892 v -4.45382 c 0,-0.23208 0.186838,-0.41892 0.41892,-0.41892 z" />
    <path
       id="rect6079-6"
       style="fill:#000000;fill-opacity:1;stroke:none;stroke-width:1.32292;stroke-miterlimit:4;stroke-dasharray:1.32292, 1.32292;stroke-dashoffset:0;stroke-opacity:1"
       d="m 34.814752,153.45833 h 20.328826 c 0.232082,0 0.41892,0.18684 0.41892,0.41892 v 4.45382 c 0,0.23209 -0.186838,0.41892 -0.41892,0.41892 H 34.814752 c -0.232082,0 -0.41892,-0.18683 -0.41892,-0.41892 v -4.45382 c 0,-0.23208 0.186838,-0.41892 0.41892,-0.41892 z" />
    <path
       id="rect6079-93"
       style="fill:#000000;fill-opacity:1;stroke:none;stroke-width:1.32292;stroke-miterlimit:4;stroke-dasharray:1.32292, 1.32292;stroke-dashoffset:0;stroke-opacity:1"
       d="m 34.814752,161.39583 h 20.328826 c 0.232082,0 0.41892,0.18684 0.41892,0.41892 v 4.45382 c 0,0.23209 -0.186838,0.41892 -0.41892,0.41892 H 34.814752 c -0.232082,0 -0.41892,-0.18683 -0.41892,-0.41892 v -4.45382 c 0,-0.23208 0.186838,-0.41892 0.41892,-0.41892 z" />
    <path
       id="rect6079-1"
       style="fill:#000000;fill-opacity:1;stroke:none;stroke-width:1.32292;stroke-miterlimit:4;stroke-dasharray:1.32292, 1.32292;stroke-dashoffset:0;stroke-opacity:1"
       d="m 34.814752,169.33333 h 20.328826 c 0.232082,0 0.41892,0.18684 0.41892,0.41892 v 4.45382 c 0,0.23209 -0.186838,0.41892 -0.41892,0.41892 H 34.814752 c -0.232082,0 -0.41892,-0.18683 -0.41892,-0.41892 v -4.45382 c 0,-0.23208 0.186838,-0.41892 0.41892,-0.41892 z" />
  </g>
</svg>
